LibertineSuper-Black.ufo
<glyph name="exclam" format="2">
  <advance width="248.26"/>
  <unicode hex="0021"/>
  <outline>
    <contour>
      <point x="59.092" y="732" type="curve" smooth="yes"/>
      <point x="59.092" y="230.532" type="line" smooth="yes"/>
      <point x="59.092" y="197.395"/>
      <point x="85.954" y="170.532"/>
      <point x="119.092" y="170.532" type="curve" smooth="yes"/>
      <point x="152.229" y="170.532"/>
      <point x="179.092" y="197.395"/>
      <point x="179.092" y="230.532" type="curve" smooth="yes"/>
      <point x="179.092" y="732" type="line" smooth="yes"/>
      <point x="179.092" y="765.137"/>
      <point x="152.229" y="792"/>
      <point x="119.092" y="792" type="curve" smooth="yes"/>
      <point x="85.954" y="792"/>
      <point x="59.092" y="765.137"/>
    </contour>
    <component base="period" xOffset="0.002"/>
  </outline>
</glyph>
<glyph name="numbersign" format="2">
  <advance width="617"/>
  <unicode hex="0023"/>
  <outline>
    <contour>
      <point x="223" y="641" type="curve" smooth="yes"/>
      <point x="71" y="75" type="line" smooth="yes"/>
      <point x="70" y="70"/>
      <point x="69" y="64"/>
      <point x="69" y="59" type="curve" smooth="yes"/>
      <point x="69" y="26"/>
      <point x="96" y="-1"/>
      <point x="129" y="-1" type="curve" smooth="yes"/>
      <point x="157" y="-1"/>
      <point x="180" y="18"/>
      <point x="187" y="43" type="curve" smooth="yes"/>
      <point x="339" y="609" type="line" smooth="yes"/>
      <point x="340" y="614"/>
      <point x="341" y="620"/>
      <point x="341" y="625" type="curve" smooth="yes"/>
      <point x="341" y="658"/>
      <point x="314" y="685"/>
      <point x="281" y="685" type="curve" smooth="yes"/>
      <point x="253" y="685"/>
      <point x="230" y="666"/>
    </contour>
    <contour>
      <point x="436" y="641" type="curve" smooth="yes"/>
      <point x="284" y="75" type="line" smooth="yes"/>
      <point x="283" y="70"/>
      <point x="282" y="64"/>
      <point x="282" y="59" type="curve" smooth="yes"/>
      <point x="282" y="26"/>
      <point x="309" y="-1"/>
      <point x="342" y="-1" type="curve" smooth="yes"/>
      <point x="370" y="-1"/>
      <point x="393" y="18"/>
      <point x="400" y="43" type="curve" smooth="yes"/>
      <point x="552" y="609" type="line" smooth="yes"/>
      <point x="553" y="614"/>
      <point x="554" y="620"/>
      <point x="554" y="625" type="curve" smooth="yes"/>
      <point x="554" y="658"/>
      <point x="527" y="685"/>
      <point x="494" y="685" type="curve" smooth="yes"/>
      <point x="466" y="685"/>
      <point x="443" y="666"/>
    </contour>
    <contour>
      <point x="537" y="499" type="curve" smooth="yes"/>
      <point x="123" y="499" type="line" smooth="yes"/>
      <point x="90" y="499"/>
      <point x="63" y="472"/>
      <point x="63" y="439" type="curve" smooth="yes"/>
      <point x="63" y="406"/>
      <point x="90" y="379"/>
      <point x="123" y="379" type="curve" smooth="yes"/>
      <point x="537" y="379" type="line" smooth="yes"/>
      <point x="570" y="379"/>
      <point x="597" y="406"/>
      <point x="597" y="439" type="curve" smooth="yes"/>
      <point x="597" y="472"/>
      <point x="570" y="499"/>
    </contour>
    <contour>
      <point x="494" y="306" type="curve" smooth="yes"/>
      <point x="80" y="306" type="line" smooth="yes"/>
      <point x="47" y="306"/>
      <point x="20" y="279"/>
      <point x="20" y="246" type="curve" smooth="yes"/>
      <point x="20" y="213"/>
      <point x="47" y="186"/>
      <point x="80" y="186" type="curve" smooth="yes"/>
      <point x="494" y="186" type="line" smooth="yes"/>
      <point x="527" y="186"/>
      <point x="554" y="213"/>
      <point x="554" y="246" type="curve" smooth="yes"/>
      <point x="554" y="279"/>
      <point x="527" y="306"/>
    </contour>
  </outline>
</glyph>
<glyph name="dollar" format="2">
  <advance width="587.11"/>
  <unicode hex="0024"/>
  <outline>
    <contour>
      <point x="226.11" y="792" type="curve" smooth="yes"/>
      <point x="226.11" y="691" type="line" smooth="yes"/>
      <point x="226.11" y="658"/>
      <point x="253.11" y="631"/>
      <point x="286.11" y="631" type="curve" smooth="yes"/>
      <point x="319.11" y="631"/>
      <point x="346.11" y="658"/>
      <point x="346.11" y="691" type="curve" smooth="yes"/>
      <point x="346.11" y="792" type="line" smooth="yes"/>
      <point x="346.11" y="825"/>
      <point x="319.11" y="852"/>
      <point x="286.11" y="852" type="curve" smooth="yes"/>
      <point x="253.11" y="852"/>
      <point x="226.11" y="825"/>
    </contour>
    <contour>
      <point x="226.11" y="54" type="curve" smooth="yes"/>
      <point x="226.11" y="-46" type="line" smooth="yes"/>
      <point x="226.11" y="-79"/>
      <point x="253.11" y="-106"/>
      <point x="286.11" y="-106" type="curve" smooth="yes"/>
      <point x="319.11" y="-106"/>
      <point x="346.11" y="-79"/>
      <point x="346.11" y="-46" type="curve" smooth="yes"/>
      <point x="346.11" y="54" type="line" smooth="yes"/>
      <point x="346.11" y="87"/>
      <point x="319.11" y="114"/>
      <point x="286.11" y="114" type="curve" smooth="yes"/>
      <point x="253.11" y="114"/>
      <point x="226.11" y="87"/>
    </contour>
    <contour>
      <point x="47.11" y="117" type="curve" smooth="yes"/>
      <point x="87.11" y="42"/>
      <point x="174.11" y="-6"/>
      <point x="286.11" y="-6" type="curve" smooth="yes"/>
      <point x="420.11" y="-6"/>
      <point x="537.11" y="88"/>
      <point x="537.11" y="210" type="curve" smooth="yes"/>
      <point x="537.11" y="326"/>
      <point x="448.11" y="380"/>
      <point x="315.11" y="438" type="curve" smooth="yes"/>
      <point x="200.11" y="488"/>
      <point x="177.11" y="498"/>
      <point x="177.11" y="540" type="curve" smooth="yes"/>
      <point x="177.11" y="596"/>
      <point x="217.11" y="631"/>
      <point x="295.11" y="631" type="curve" smooth="yes"/>
      <point x="350.11" y="631"/>
      <point x="385.11" y="612"/>
      <point x="408.11" y="577" type="curve" smooth="yes"/>
      <point x="418.11" y="561"/>
      <point x="437.11" y="550"/>
      <point x="458.11" y="550" type="curve" smooth="yes"/>
      <point x="491.11" y="550"/>
      <point x="518.11" y="577"/>
      <point x="518.11" y="610" type="curve" smooth="yes"/>
      <point x="518.11" y="622"/>
      <point x="514.11" y="633"/>
      <point x="508.11" y="643" type="curve" smooth="yes"/>
      <point x="466.11" y="708"/>
      <point x="385.11" y="751"/>
      <point x="295.11" y="751" type="curve" smooth="yes"/>
      <point x="165.11" y="751"/>
      <point x="57.11" y="660"/>
      <point x="57.11" y="540" type="curve" smooth="yes"/>
      <point x="57.11" y="418"/>
      <point x="177.11" y="367"/>
      <point x="268.11" y="328" type="curve" smooth="yes"/>
      <point x="335.11" y="298"/>
      <point x="417.11" y="267"/>
      <point x="417.11" y="210" type="curve" smooth="yes"/>
      <point x="417.11" y="153"/>
      <point x="369.11" y="114"/>
      <point x="286.11" y="114" type="curve" smooth="yes"/>
      <point x="211.11" y="114"/>
      <point x="174.11" y="135"/>
      <point x="153.11" y="173" type="curve" smooth="yes"/>
      <point x="143.11" y="192"/>
      <point x="123.11" y="205"/>
      <point x="100.11" y="205" type="curve" smooth="yes"/>
      <point x="67.11" y="205"/>
      <point x="40.11" y="178"/>
      <point x="40.11" y="145" type="curve" smooth="yes"/>
      <point x="40.11" y="135"/>
      <point x="43.11" y="125"/>
    </contour>
  </outline>
</glyph>
<glyph name="quotesingle" format="2">
  <advance width="318"/>
  <unicode hex="0027"/>
  <outline>
    <contour>
      <point x="99" y="733" type="curve" smooth="yes"/>
      <point x="99" y="515" type="line" smooth="yes"/>
      <point x="99" y="482"/>
      <point x="126" y="455"/>
      <point x="159" y="455" type="curve" smooth="yes"/>
      <point x="192" y="455"/>
      <point x="219" y="482"/>
      <point x="219" y="515" type="curve" smooth="yes"/>
      <point x="219" y="733" type="line" smooth="yes"/>
      <point x="219" y="766"/>
      <point x="192" y="793"/>
      <point x="159" y="793" type="curve" smooth="yes"/>
      <point x="126" y="793"/>
      <point x="99" y="766"/>
    </contour>
  </outline>
</glyph>
<glyph name="parenleft" format="2">
  <advance width="357.26"/>
  <unicode hex="0028"/>
  <outline>
    <contour>
      <point x="314" y="1" type="curve" smooth="yes"/>
      <point x="247" y="83"/>
      <point x="172" y="193"/>
      <point x="169" y="350" type="curve" smooth="yes"/>
      <point x="172" y="516"/>
      <point x="245" y="622"/>
      <point x="310" y="696" type="curve" smooth="yes"/>
      <point x="319" y="707"/>
      <point x="325" y="721"/>
      <point x="325" y="736" type="curve" smooth="yes"/>
      <point x="325" y="769"/>
      <point x="298" y="796"/>
      <point x="265" y="796" type="curve" smooth="yes"/>
      <point x="247" y="796"/>
      <point x="231" y="788"/>
      <point x="220" y="776" type="curve" smooth="yes"/>
      <point x="148" y="694"/>
      <point x="52" y="555"/>
      <point x="49" y="350" type="curve" smooth="yes"/>
      <point x="52" y="155"/>
      <point x="150" y="13"/>
      <point x="220" y="-75" type="curve" smooth="yes"/>
      <point x="231" y="-88"/>
      <point x="248" y="-97"/>
      <point x="267" y="-97" type="curve" smooth="yes"/>
      <point x="300" y="-97"/>
      <point x="327" y="-70"/>
      <point x="327" y="-37" type="curve" smooth="yes"/>
      <point x="327" y="-23"/>
      <point x="322" y="-10"/>
    </contour>
  </outline>
</glyph>
<glyph name="asterisk" format="2">
  <advance width="531"/>
  <unicode hex="002A"/>
  <outline>
    <contour>
      <point x="324" y="416" type="curve" smooth="yes"/>
      <point x="324" y="705" type="line" smooth="yes"/>
      <point x="324" y="738"/>
      <point x="297" y="765"/>
      <point x="264" y="765" type="curve" smooth="yes"/>
      <point x="231" y="765"/>
      <point x="204" y="738"/>
      <point x="204" y="705" type="curve" smooth="yes"/>
      <point x="204" y="416" type="line" smooth="yes"/>
      <point x="204" y="383"/>
      <point x="231" y="356"/>
      <point x="264" y="356" type="curve" smooth="yes"/>
      <point x="297" y="356"/>
      <point x="324" y="383"/>
    </contour>
    <contour>
      <point x="213" y="417" type="curve" smooth="yes"/>
      <point x="405" y="622" type="line" smooth="yes"/>
      <point x="415" y="633"/>
      <point x="421" y="647"/>
      <point x="421" y="663" type="curve" smooth="yes"/>
      <point x="421" y="696"/>
      <point x="394" y="723"/>
      <point x="361" y="723" type="curve" smooth="yes"/>
      <point x="344" y="723"/>
      <point x="328" y="716"/>
      <point x="317" y="704" type="curve" smooth="yes"/>
      <point x="125" y="499" type="line" smooth="yes"/>
      <point x="115" y="488"/>
      <point x="109" y="474"/>
      <point x="109" y="458" type="curve" smooth="yes"/>
      <point x="109" y="425"/>
      <point x="136" y="398"/>
      <point x="169" y="398" type="curve" smooth="yes"/>
      <point x="186" y="398"/>
      <point x="202" y="405"/>
    </contour>
    <contour>
      <point x="129" y="501" type="curve" smooth="yes"/>
      <point x="401" y="501" type="line" smooth="yes"/>
      <point x="434" y="501"/>
      <point x="461" y="528"/>
      <point x="461" y="561" type="curve" smooth="yes"/>
      <point x="461" y="594"/>
      <point x="434" y="621"/>
      <point x="401" y="621" type="curve" smooth="yes"/>
      <point x="129" y="621" type="line" smooth="yes"/>
      <point x="96" y="621"/>
      <point x="69" y="594"/>
      <point x="69" y="561" type="curve" smooth="yes"/>
      <point x="69" y="528"/>
      <point x="96" y="501"/>
    </contour>
    <contour>
      <point x="125" y="622" type="curve" smooth="yes"/>
      <point x="317" y="417" type="line" smooth="yes"/>
      <point x="328" y="405"/>
      <point x="344" y="398"/>
      <point x="361" y="398" type="curve" smooth="yes"/>
      <point x="394" y="398"/>
      <point x="421" y="425"/>
      <point x="421" y="458" type="curve" smooth="yes"/>
      <point x="421" y="474"/>
      <point x="415" y="488"/>
      <point x="405" y="499" type="curve" smooth="yes"/>
      <point x="213" y="704" type="line" smooth="yes"/>
      <point x="202" y="716"/>
      <point x="186" y="723"/>
      <point x="169" y="723" type="curve" smooth="yes"/>
      <point x="136" y="723"/>
      <point x="109" y="696"/>
      <point x="109" y="663" type="curve" smooth="yes"/>
      <point x="109" y="647"/>
      <point x="115" y="633"/>
    </contour>
  </outline>
</glyph>
<glyph name="plus" format="2">
  <advance width="620"/>
  <unicode hex="002B"/>
  <outline>
    <contour>
      <point x="251" y="534" type="curve" smooth="yes"/>
      <point x="251" y="63" type="line" smooth="yes"/>
      <point x="251" y="30"/>
      <point x="278" y="3"/>
      <point x="311" y="3" type="curve" smooth="yes"/>
      <point x="344" y="3"/>
      <point x="371" y="30"/>
      <point x="371" y="63" type="curve" smooth="yes"/>
      <point x="371" y="534" type="line" smooth="yes"/>
      <point x="371" y="567"/>
      <point x="344" y="594"/>
      <point x="311" y="594" type="curve" smooth="yes"/>
      <point x="278" y="594"/>
      <point x="251" y="567"/>
    </contour>
    <contour>
      <point x="528" y="359" type="curve" smooth="yes"/>
      <point x="93" y="359" type="line" smooth="yes"/>
      <point x="60" y="359"/>
      <point x="33" y="332"/>
      <point x="33" y="299" type="curve" smooth="yes"/>
      <point x="33" y="266"/>
      <point x="60" y="239"/>
      <point x="93" y="239" type="curve" smooth="yes"/>
      <point x="528" y="239" type="line" smooth="yes"/>
      <point x="561" y="239"/>
      <point x="588" y="266"/>
      <point x="588" y="299" type="curve" smooth="yes"/>
      <point x="588" y="332"/>
      <point x="561" y="359"/>
    </contour>
  </outline>
</glyph>
<glyph name="comma" format="2">
  <advance width="249.29"/>
  <unicode hex="002C"/>
  <outline>
    <contour>
      <point x="136.356" y="-128.473" type="curve" smooth="yes"/>
      <point x="161.8" y="-101.873"/>
      <point x="197.998" y="-58.105"/>
      <point x="197.998" y="24" type="curve"/>
      <point x="199.293" y="69.093" type="line"/>
      <point x="77.998" y="24" type="line"/>
      <point x="77.998" y="-14.095"/>
      <point x="69.716" y="-24.537"/>
      <point x="49.639" y="-45.527" type="curve" smooth="yes"/>
      <point x="39.33" y="-56.301"/>
      <point x="32.998" y="-70.911"/>
      <point x="32.998" y="-87" type="curve" smooth="yes"/>
      <point x="32.998" y="-120.137"/>
      <point x="59.86" y="-147"/>
      <point x="92.998" y="-147" type="curve" smooth="yes"/>
      <point x="110.046" y="-147"/>
      <point x="125.433" y="-139.89"/>
    </contour>
    <component base="period" xOffset="0.07"/>
  </outline>
</glyph>
<glyph name="hyphen" format="2">
  <advance width="484"/>
  <unicode hex="002D"/>
  <outline>
    <contour>
      <point x="395" y="396" type="curve" smooth="yes"/>
      <point x="90" y="396" type="line" smooth="yes"/>
      <point x="57" y="396"/>
      <point x="30" y="369"/>
      <point x="30" y="336" type="curve" smooth="yes"/>
      <point x="30" y="303"/>
      <point x="57" y="276"/>
      <point x="90" y="276" type="curve" smooth="yes"/>
      <point x="395" y="276" type="line" smooth="yes"/>
      <point x="428" y="276"/>
      <point x="455" y="303"/>
      <point x="455" y="336" type="curve" smooth="yes"/>
      <point x="455" y="369"/>
      <point x="428" y="396"/>
    </contour>
  </outline>
</glyph>
<glyph name="period" format="2">
  <advance width="249.22"/>
  <unicode hex="002E"/>
  <outline>
    <contour>
      <point x="124.13" y="-6" type="curve" smooth="yes"/>
      <point x="164.18" y="-6"/>
      <point x="199.223" y="29.043"/>
      <point x="199.223" y="69.093" type="curve" smooth="yes"/>
      <point x="199.223" y="109.143"/>
      <point x="164.18" y="141.683"/>
      <point x="124.13" y="141.683" type="curve" smooth="yes"/>
      <point x="84.08" y="141.683"/>
      <point x="49.037" y="109.143"/>
      <point x="49.037" y="69.093" type="curve" smooth="yes"/>
      <point x="49.037" y="29.043"/>
      <point x="84.08" y="-6"/>
    </contour>
  </outline>
</glyph>
<glyph name="slash" format="2">
  <advance width="450.35"/>
  <unicode hex="002F"/>
  <outline>
    <contour>
      <point x="332.09" y="714" type="curve" smooth="yes"/>
      <point x="12.09" y="86" type="line"/>
      <point x="7.09" y="78"/>
      <point x="5.09" y="69"/>
      <point x="5.09" y="59" type="curve" smooth="yes"/>
      <point x="5.09" y="26"/>
      <point x="32.09" y="-1"/>
      <point x="65.09" y="-1" type="curve" smooth="yes"/>
      <point x="88.09" y="-1"/>
      <point x="109.09" y="12"/>
      <point x="118.09" y="32" type="curve" smooth="yes"/>
      <point x="438.09" y="660" type="line"/>
      <point x="443.09" y="668"/>
      <point x="445.09" y="677"/>
      <point x="445.09" y="687" type="curve" smooth="yes"/>
      <point x="445.09" y="720"/>
      <point x="418.09" y="747"/>
      <point x="385.09" y="747" type="curve" smooth="yes"/>
      <point x="362.09" y="747"/>
      <point x="341.09" y="734"/>
    </contour>
  </outline>
</glyph>
<glyph name="one" format="2">
  <advance width="338"/>
  <unicode hex="0031"/>
  <outline>
    <contour>
      <point x="120" y="574" type="curve" smooth="yes"/>
      <point x="195" y="601" type="line"/>
      <point x="195" y="59" type="line" smooth="yes"/>
      <point x="195" y="26"/>
      <point x="222" y="-1"/>
      <point x="255" y="-1" type="curve" smooth="yes"/>
      <point x="288" y="-1"/>
      <point x="315" y="26"/>
      <point x="315" y="59" type="curve" smooth="yes"/>
      <point x="315" y="699.506" type="line" smooth="yes"/>
      <point x="315" y="744.021"/>
      <point x="287.796" y="763.014"/>
      <point x="246.008" y="747.674" type="curve" smooth="yes"/>
      <point x="78" y="686" type="line" smooth="yes"/>
      <point x="55.14" y="677.608"/>
      <point x="39" y="656"/>
      <point x="39" y="630" type="curve" smooth="yes"/>
      <point x="39" y="597"/>
      <point x="66" y="570"/>
      <point x="99" y="570" type="curve" smooth="yes"/>
      <point x="106" y="570"/>
      <point x="112.834" y="571.42"/>
    </contour>
    <contour>
      <point x="120" y="398" type="curve" smooth="yes"/>
      <point x="276" y="455" type="line" smooth="yes"/>
      <point x="299" y="463"/>
      <point x="315" y="485"/>
      <point x="315" y="511" type="curve" smooth="yes"/>
      <point x="315" y="544"/>
      <point x="288" y="571"/>
      <point x="255" y="571" type="curve" smooth="yes"/>
      <point x="248" y="571"/>
      <point x="241" y="570"/>
      <point x="234" y="567" type="curve" smooth="yes"/>
      <point x="78" y="510" type="line" smooth="yes"/>
      <point x="55" y="502"/>
      <point x="39" y="480"/>
      <point x="39" y="454" type="curve" smooth="yes"/>
      <point x="39" y="421"/>
      <point x="66" y="394"/>
      <point x="99" y="394" type="curve" smooth="yes"/>
      <point x="106" y="394"/>
      <point x="113" y="395"/>
    </contour>
  </outline>
</glyph>
<glyph name="three" format="2">
  <advance width="575.11"/>
  <unicode hex="0033"/>
  <outline>
    <contour>
      <point x="198.11" y="358" type="curve" smooth="yes"/>
      <point x="266.11" y="358" type="line" smooth="yes"/>
      <point x="367.11" y="358"/>
      <point x="424.11" y="310"/>
      <point x="425.11" y="237" type="curve"/>
      <point x="425.11" y="237"/>
      <point x="425.11" y="236"/>
      <point x="425.11" y="236" type="curve"/>
      <point x="425.11" y="162"/>
      <point x="367.11" y="114"/>
      <point x="267.11" y="114" type="curve"/>
      <point x="267.11" y="114"/>
      <point x="265.11" y="114"/>
      <point x="265.11" y="114" type="curve"/>
      <point x="204.11" y="114"/>
      <point x="162.11" y="139"/>
      <point x="138.11" y="188" type="curve" smooth="yes"/>
      <point x="128.11" y="208"/>
      <point x="107.11" y="221"/>
      <point x="84.11" y="221" type="curve" smooth="yes"/>
      <point x="51.11" y="221"/>
      <point x="24.11" y="194"/>
      <point x="24.11" y="161" type="curve" smooth="yes"/>
      <point x="24.11" y="151"/>
      <point x="26.11" y="142"/>
      <point x="30.11" y="134" type="curve" smooth="yes"/>
      <point x="73.11" y="50"/>
      <point x="165.11" y="-6"/>
      <point x="265.11" y="-6" type="curve"/>
      <point x="265.11" y="-6"/>
      <point x="267.11" y="-6"/>
      <point x="267.11" y="-6" type="curve"/>
      <point x="420.11" y="-6"/>
      <point x="545.11" y="98"/>
      <point x="545.11" y="236" type="curve"/>
      <point x="545.11" y="236"/>
      <point x="545.11" y="237"/>
      <point x="545.11" y="237" type="curve"/>
      <point x="544.11" y="374"/>
      <point x="419.11" y="478"/>
      <point x="266.11" y="478" type="curve" smooth="yes"/>
      <point x="198.11" y="478" type="line" smooth="yes"/>
      <point x="165.11" y="478"/>
      <point x="138.11" y="451"/>
      <point x="138.11" y="418" type="curve" smooth="yes"/>
      <point x="138.11" y="385"/>
      <point x="165.11" y="358"/>
    </contour>
    <contour>
      <point x="186.11" y="566" type="curve" smooth="yes"/>
      <point x="195.11" y="609"/>
      <point x="224.11" y="631"/>
      <point x="274.11" y="631" type="curve"/>
      <point x="274.11" y="631"/>
      <point x="276.11" y="631"/>
      <point x="276.11" y="631" type="curve"/>
      <point x="345.11" y="630"/>
      <point x="379.11" y="603"/>
      <point x="379.11" y="555" type="curve"/>
      <point x="379.11" y="555"/>
      <point x="379.11" y="554"/>
      <point x="379.11" y="554" type="curve"/>
      <point x="378.11" y="506"/>
      <point x="345.11" y="478"/>
      <point x="275.11" y="478" type="curve" smooth="yes"/>
      <point x="242.11" y="478"/>
      <point x="215.11" y="451"/>
      <point x="215.11" y="418" type="curve" smooth="yes"/>
      <point x="215.11" y="385"/>
      <point x="242.11" y="358"/>
      <point x="275.11" y="358" type="curve" smooth="yes"/>
      <point x="395.11" y="358"/>
      <point x="498.11" y="440"/>
      <point x="499.11" y="554" type="curve"/>
      <point x="499.11" y="554"/>
      <point x="499.11" y="555"/>
      <point x="499.11" y="555" type="curve"/>
      <point x="499.11" y="667"/>
      <point x="398.11" y="750"/>
      <point x="276.11" y="751" type="curve"/>
      <point x="276.11" y="751"/>
      <point x="274.11" y="751"/>
      <point x="274.11" y="751" type="curve"/>
      <point x="177.11" y="751"/>
      <point x="89.11" y="684"/>
      <point x="68.11" y="592" type="curve" smooth="yes"/>
      <point x="61.11" y="556"/>
      <point x="87.11" y="519"/>
      <point x="127.11" y="519" type="curve" smooth="yes"/>
      <point x="156.11" y="519"/>
      <point x="180.11" y="539"/>
    </contour>
    <contour>
      <point x="198.11" y="196" type="curve" smooth="yes"/>
      <point x="476.11" y="196" type="line" smooth="yes"/>
      <point x="509.11" y="196"/>
      <point x="536.11" y="223"/>
      <point x="536.11" y="256" type="curve" smooth="yes"/>
      <point x="536.11" y="289"/>
      <point x="509.11" y="316"/>
      <point x="476.11" y="316" type="curve" smooth="yes"/>
      <point x="198.11" y="316" type="line" smooth="yes"/>
      <point x="165.11" y="316"/>
      <point x="138.11" y="289"/>
      <point x="138.11" y="256" type="curve" smooth="yes"/>
      <point x="138.11" y="223"/>
      <point x="165.11" y="196"/>
    </contour>
  </outline>
</glyph>
<glyph name="seven" format="2">
  <advance width="561.13002"/>
  <unicode hex="0037"/>
  <outline>
    <contour>
      <point x="161" y="30" type="curve" smooth="yes"/>
      <point x="499.135" y="628.624" type="line" smooth="yes"/>
      <point x="537.803" y="697.081"/>
      <point x="508.668" y="747"/>
      <point x="430.045" y="747" type="curve" smooth="yes"/>
      <point x="98" y="747" type="line" smooth="yes"/>
      <point x="65" y="747"/>
      <point x="38" y="720"/>
      <point x="38" y="687" type="curve" smooth="yes"/>
      <point x="38" y="654"/>
      <point x="65" y="627"/>
      <point x="98" y="627" type="curve" smooth="yes"/>
      <point x="360" y="627" type="line"/>
      <point x="57" y="88" type="line" smooth="yes"/>
      <point x="52.377" y="79.776"/>
      <point x="49" y="70"/>
      <point x="49" y="59" type="curve" smooth="yes"/>
      <point x="49" y="26"/>
      <point x="76" y="-1"/>
      <point x="109" y="-1" type="curve" smooth="yes"/>
      <point x="131" y="-1"/>
      <point x="150.44" y="11.305"/>
    </contour>
    <contour>
      <point x="448" y="533" type="curve" smooth="yes"/>
      <point x="155" y="533" type="line" smooth="yes"/>
      <point x="122" y="533"/>
      <point x="95" y="506"/>
      <point x="95" y="473" type="curve" smooth="yes"/>
      <point x="95" y="440"/>
      <point x="122" y="413"/>
      <point x="155" y="413" type="curve" smooth="yes"/>
      <point x="448" y="413" type="line" smooth="yes"/>
      <point x="481" y="413"/>
      <point x="508" y="440"/>
      <point x="508" y="473" type="curve" smooth="yes"/>
      <point x="508" y="506"/>
      <point x="481" y="533"/>
    </contour>
    <contour>
      <point x="401" y="381" type="curve" smooth="yes"/>
      <point x="108" y="381" type="line" smooth="yes"/>
      <point x="75" y="381"/>
      <point x="48" y="354"/>
      <point x="48" y="321" type="curve" smooth="yes"/>
      <point x="48" y="288"/>
      <point x="75" y="261"/>
      <point x="108" y="261" type="curve" smooth="yes"/>
      <point x="401" y="261" type="line" smooth="yes"/>
      <point x="434" y="261"/>
      <point x="461" y="288"/>
      <point x="461" y="321" type="curve" smooth="yes"/>
      <point x="461" y="354"/>
      <point x="434" y="381"/>
    </contour>
  </outline>
</glyph>
<glyph name="equal" format="2">
  <advance width="620"/>
  <unicode hex="003D"/>
  <outline>
    <contour>
      <point x="528" y="273" type="curve" smooth="yes"/>
      <point x="93" y="273" type="line" smooth="yes"/>
      <point x="60" y="273"/>
      <point x="33" y="246"/>
      <point x="33" y="213" type="curve" smooth="yes"/>
      <point x="33" y="180"/>
      <point x="60" y="153"/>
      <point x="93" y="153" type="curve" smooth="yes"/>
      <point x="528" y="153" type="line" smooth="yes"/>
      <point x="561" y="153"/>
      <point x="588" y="180"/>
      <point x="588" y="213" type="curve" smooth="yes"/>
      <point x="588" y="246"/>
      <point x="561" y="273"/>
    </contour>
    <contour>
      <point x="528" y="444" type="curve" smooth="yes"/>
      <point x="93" y="444" type="line" smooth="yes"/>
      <point x="60" y="444"/>
      <point x="33" y="417"/>
      <point x="33" y="384" type="curve" smooth="yes"/>
      <point x="33" y="351"/>
      <point x="60" y="324"/>
      <point x="93" y="324" type="curve" smooth="yes"/>
      <point x="528" y="324" type="line" smooth="yes"/>
      <point x="561" y="324"/>
      <point x="588" y="351"/>
      <point x="588" y="384" type="curve" smooth="yes"/>
      <point x="588" y="417"/>
      <point x="561" y="444"/>
    </contour>
  </outline>
</glyph>
<glyph name="greater" format="2">
  <advance width="688"/>
  <unicode hex="003E"/>
  <outline>
    <contour>
      <point x="102" y="422" type="curve" smooth="yes"/>
      <point x="345" y="311" type="line"/>
      <point x="104" y="199" type="line" smooth="yes"/>
      <point x="83" y="190"/>
      <point x="69" y="169"/>
      <point x="69" y="145" type="curve" smooth="yes"/>
      <point x="69" y="112"/>
      <point x="96" y="85"/>
      <point x="129" y="85" type="curve" smooth="yes"/>
      <point x="138" y="85"/>
      <point x="147" y="87"/>
      <point x="154" y="91" type="curve" smooth="yes"/>
      <point x="486.032" y="244.138" type="line" smooth="yes"/>
      <point x="563.817" y="280.014"/>
      <point x="563.822" y="341.995"/>
      <point x="486.041" y="377.881" type="curve" smooth="yes"/>
      <point x="152" y="532" type="line" smooth="yes"/>
      <point x="144" y="535"/>
      <point x="136" y="537"/>
      <point x="127" y="537" type="curve" smooth="yes"/>
      <point x="94" y="537"/>
      <point x="67" y="510"/>
      <point x="67" y="477" type="curve" smooth="yes"/>
      <point x="67" y="453"/>
      <point x="81" y="432"/>
    </contour>
  </outline>
</glyph>
<glyph name="question" format="2">
  <advance width="365.7"/>
  <unicode hex="003F"/>
  <outline>
    <contour>
      <point x="225.359" y="232.716" type="curve" smooth="yes"/>
      <point x="220.979" y="250.935"/>
      <point x="218.298" y="274.394"/>
      <point x="218.298" y="297.979" type="curve" smooth="yes"/>
      <point x="218.298" y="368.127"/>
      <point x="245.366" y="406.462"/>
      <point x="280.673" y="456.464" type="curve" smooth="yes"/>
      <point x="311.684" y="500.383"/>
      <point x="350.701" y="554.84"/>
      <point x="350.701" y="632.471" type="curve" smooth="yes"/>
      <point x="350.701" y="733.399"/>
      <point x="283.761" y="797"/>
      <point x="182.688" y="797" type="curve" smooth="yes"/>
      <point x="122.84" y="797"/>
      <point x="72.389" y="769.529"/>
      <point x="37.258" y="720.6" type="curve" smooth="yes"/>
      <point x="30.171" y="710.752"/>
      <point x="25.999" y="698.666"/>
      <point x="25.999" y="685.607" type="curve" smooth="yes"/>
      <point x="25.999" y="652.469"/>
      <point x="52.862" y="625.607"/>
      <point x="85.999" y="625.607" type="curve" smooth="yes"/>
      <point x="139.18" y="625.607"/>
      <point x="132.262" y="677"/>
      <point x="182.688" y="677" type="curve" smooth="yes"/>
      <point x="206.22" y="677"/>
      <point x="230.701" y="664.181"/>
      <point x="230.701" y="632.471" type="curve" smooth="yes"/>
      <point x="230.701" y="593.736"/>
      <point x="213.196" y="568.946"/>
      <point x="182.647" y="525.681" type="curve" smooth="yes"/>
      <point x="146.879" y="475.025"/>
      <point x="98.298" y="407.024"/>
      <point x="98.298" y="297.979" type="curve" smooth="yes"/>
      <point x="98.298" y="267.559"/>
      <point x="102.586" y="230.042"/>
      <point x="108.659" y="204.708" type="curve" smooth="yes"/>
      <point x="114.96" y="178.325"/>
      <point x="138.694" y="158.712"/>
      <point x="167.009" y="158.712" type="curve" smooth="yes"/>
      <point x="208.063" y="158.712"/>
      <point x="233.797" y="197.457"/>
    </contour>
    <component base="period" xOffset="67.85"/>
  </outline>
</glyph>
<glyph name="at" format="2">
  <advance width="796"/>
  <unicode hex="0040"/>
  <outline>
    <contour>
      <point x="199" y="346" type="curve" smooth="yes"/>
      <point x="199" y="309" type="line" smooth="yes"/>
      <point x="199" y="188"/>
      <point x="278" y="101"/>
      <point x="394" y="101" type="curve" smooth="yes"/>
      <point x="402" y="101" type="line" smooth="yes"/>
      <point x="519" y="101"/>
      <point x="596" y="189"/>
      <point x="596" y="309" type="curve" smooth="yes"/>
      <point x="596" y="346" type="line" smooth="yes"/>
      <point x="596" y="470"/>
      <point x="518" y="555"/>
      <point x="402" y="555" type="curve" smooth="yes"/>
      <point x="394" y="555" type="line" smooth="yes"/>
      <point x="279" y="555"/>
      <point x="199" y="470"/>
    </contour>
    <contour>
      <point x="319" y="346" type="line" smooth="yes"/>
      <point x="319" y="414"/>
      <point x="339" y="435"/>
      <point x="394" y="435" type="curve" smooth="yes"/>
      <point x="402" y="435" type="line" smooth="yes"/>
      <point x="458" y="435"/>
      <point x="476" y="415"/>
      <point x="476" y="346" type="curve" smooth="yes"/>
      <point x="476" y="309" type="line" smooth="yes"/>
      <point x="476" y="243"/>
      <point x="457" y="221"/>
      <point x="402" y="221" type="curve" smooth="yes"/>
      <point x="394" y="221" type="line" smooth="yes"/>
      <point x="339" y="221"/>
      <point x="319" y="243"/>
      <point x="319" y="309" type="curve" smooth="yes"/>
    </contour>
    <contour>
      <point x="531" y="88" type="curve" smooth="yes"/>
      <point x="495" y="63"/>
      <point x="459" y="52"/>
      <point x="406" y="52" type="curve" smooth="yes"/>
      <point x="389" y="52" type="line" smooth="yes"/>
      <point x="253" y="52"/>
      <point x="179" y="133"/>
      <point x="179" y="290" type="curve" smooth="yes"/>
      <point x="179" y="364" type="line" smooth="yes"/>
      <point x="179" y="525"/>
      <point x="253" y="604"/>
      <point x="389" y="604" type="curve" smooth="yes"/>
      <point x="406" y="604" type="line" smooth="yes"/>
      <point x="545" y="604"/>
      <point x="617" y="526"/>
      <point x="617" y="364" type="curve" smooth="yes"/>
      <point x="617" y="226" type="line" smooth="yes"/>
      <point x="617" y="211"/>
      <point x="615" y="198"/>
      <point x="608" y="198" type="curve" smooth="yes"/>
      <point x="607" y="198" type="line" smooth="yes"/>
      <point x="598" y="198"/>
      <point x="596" y="211"/>
      <point x="596" y="226" type="curve" smooth="yes"/>
      <point x="596" y="245" type="line"/>
      <point x="596" y="466" type="line" smooth="yes"/>
      <point x="596" y="499"/>
      <point x="569" y="526"/>
      <point x="536" y="526" type="curve" smooth="yes"/>
      <point x="503" y="526"/>
      <point x="476" y="499"/>
      <point x="476" y="466" type="curve" smooth="yes"/>
      <point x="476" y="245" type="line"/>
      <point x="476" y="241" type="line" smooth="yes"/>
      <point x="476" y="163"/>
      <point x="531" y="106"/>
      <point x="605" y="106" type="curve" smooth="yes"/>
      <point x="610" y="106" type="line" smooth="yes"/>
      <point x="684" y="106"/>
      <point x="737" y="163"/>
      <point x="737" y="241" type="curve" smooth="yes"/>
      <point x="737" y="364" type="line" smooth="yes"/>
      <point x="737" y="581"/>
      <point x="605" y="724"/>
      <point x="406" y="724" type="curve" smooth="yes"/>
      <point x="389" y="724" type="line" smooth="yes"/>
      <point x="193" y="724"/>
      <point x="59" y="581"/>
      <point x="59" y="364" type="curve" smooth="yes"/>
      <point x="59" y="290" type="line" smooth="yes"/>
      <point x="59" y="78"/>
      <point x="192" y="-68"/>
      <point x="389" y="-68" type="curve" smooth="yes"/>
      <point x="406" y="-68" type="line" smooth="yes"/>
      <point x="480" y="-68"/>
      <point x="547" y="-47"/>
      <point x="599" y="-10" type="curve" smooth="yes"/>
      <point x="615" y="1"/>
      <point x="625" y="19"/>
      <point x="625" y="39" type="curve" smooth="yes"/>
      <point x="625" y="72"/>
      <point x="598" y="99"/>
      <point x="565" y="99" type="curve" smooth="yes"/>
      <point x="552" y="99"/>
      <point x="540" y="95"/>
    </contour>
  </outline>
</glyph>
<glyph name="A" format="2">
  <advance width="577"/>
  <unicode hex="0041"/>
  <anchor x="289" y="0" name="bottom"/>
  <anchor x="484" y="49" name="ogonek"/>
  <anchor x="289" y="747" name="top"/>
  <outline>
    <contour>
      <point x="231" y="709" type="curve" smooth="yes"/>
      <point x="33" y="77" type="line" smooth="yes"/>
      <point x="31.109" y="70.965"/>
      <point x="30" y="65"/>
      <point x="30" y="59" type="curve" smooth="yes"/>
      <point x="30" y="26"/>
      <point x="57" y="-1"/>
      <point x="90" y="-1" type="curve" smooth="yes"/>
      <point x="117" y="-1"/>
      <point x="139.526" y="17.143"/>
      <point x="147" y="41" type="curve" smooth="yes"/>
      <point x="345" y="673" type="line" smooth="yes"/>
      <point x="346.891" y="679.035"/>
      <point x="348" y="685"/>
      <point x="348" y="691" type="curve" smooth="yes"/>
      <point x="348" y="724"/>
      <point x="321" y="751"/>
      <point x="288" y="751" type="curve" smooth="yes"/>
      <point x="261" y="751"/>
      <point x="238.474" y="732.857"/>
    </contour>
    <contour>
      <point x="154" y="104.092" type="curve" smooth="yes"/>
      <point x="423" y="104.092" type="line" smooth="yes"/>
      <point x="456" y="104.092"/>
      <point x="483" y="131.092"/>
      <point x="483" y="164.092" type="curve" smooth="yes"/>
      <point x="483" y="197.092"/>
      <point x="456" y="224.092"/>
      <point x="423" y="224.092" type="curve" smooth="yes"/>
      <point x="154" y="224.092" type="line" smooth="yes"/>
      <point x="121" y="224.092"/>
      <point x="94" y="197.092"/>
      <point x="94" y="164.092" type="curve" smooth="yes"/>
      <point x="94" y="131.092"/>
      <point x="121" y="104.092"/>
    </contour>
    <contour>
      <point x="177" y="267" type="curve" smooth="yes"/>
      <point x="401" y="267" type="line" smooth="yes"/>
      <point x="434" y="267"/>
      <point x="461" y="294"/>
      <point x="461" y="327" type="curve" smooth="yes"/>
      <point x="461" y="360"/>
      <point x="434" y="387"/>
      <point x="401" y="387" type="curve" smooth="yes"/>
      <point x="177" y="387" type="line" smooth="yes"/>
      <point x="144" y="387"/>
      <point x="117" y="360"/>
      <point x="117" y="327" type="curve" smooth="yes"/>
      <point x="117" y="294"/>
      <point x="144" y="267"/>
    </contour>
    <contour>
      <point x="544" y="77" type="curve" smooth="yes"/>
      <point x="345" y="709" type="line" smooth="yes"/>
      <point x="337.492" y="732.846"/>
      <point x="315" y="751"/>
      <point x="288" y="751" type="curve" smooth="yes"/>
      <point x="255" y="751"/>
      <point x="228" y="724"/>
      <point x="228" y="691" type="curve" smooth="yes"/>
      <point x="228" y="685"/>
      <point x="229.101" y="679.033"/>
      <point x="231" y="673" type="curve" smooth="yes"/>
      <point x="430" y="41" type="line" smooth="yes"/>
      <point x="437.508" y="17.154"/>
      <point x="460" y="-1"/>
      <point x="487" y="-1" type="curve" smooth="yes"/>
      <point x="520" y="-1"/>
      <point x="547" y="26"/>
      <point x="547" y="59" type="curve" smooth="yes"/>
      <point x="547" y="65"/>
      <point x="545.899" y="70.967"/>
    </contour>
  </outline>
</glyph>
<glyph name="B" format="2">
  <advance width="589"/>
  <unicode hex="0042"/>
  <anchor x="294" y="0" name="bottom"/>
  <anchor x="294" y="373.5" name="center"/>
  <anchor x="294" y="747" name="top"/>
  <outline>
    <contour>
      <point x="130" y="0" type="curve" smooth="yes"/>
      <point x="292" y="0" type="line" smooth="yes"/>
      <point x="436" y="0"/>
      <point x="539" y="98"/>
      <point x="539" y="220" type="curve" smooth="yes"/>
      <point x="539" y="233" type="line" smooth="yes"/>
      <point x="539" y="356"/>
      <point x="436" y="454"/>
      <point x="292" y="454" type="curve" smooth="yes"/>
      <point x="130" y="454" type="line"/>
      <point x="130" y="334" type="line"/>
      <point x="275" y="334" type="line" smooth="yes"/>
      <point x="409" y="334"/>
      <point x="503" y="425"/>
      <point x="503" y="536" type="curve" smooth="yes"/>
      <point x="503" y="545" type="line" smooth="yes"/>
      <point x="503" y="657"/>
      <point x="408" y="747"/>
      <point x="275" y="747" type="curve" smooth="yes"/>
      <point x="130" y="747" type="line" smooth="yes"/>
      <point x="91" y="747"/>
      <point x="70" y="726"/>
      <point x="70" y="687" type="curve" smooth="yes"/>
      <point x="70" y="60" type="line" smooth="yes"/>
      <point x="70" y="21"/>
      <point x="91" y="0"/>
    </contour>
    <contour>
      <point x="292" y="120" type="curve" smooth="yes"/>
      <point x="190" y="120" type="line"/>
      <point x="190" y="627" type="line"/>
      <point x="275" y="627" type="line" smooth="yes"/>
      <point x="352" y="627"/>
      <point x="383" y="597"/>
      <point x="383" y="545" type="curve" smooth="yes"/>
      <point x="383" y="536" type="line" smooth="yes"/>
      <point x="383" y="484"/>
      <point x="352" y="454"/>
      <point x="275" y="454" type="curve" smooth="yes"/>
      <point x="130" y="454" type="line"/>
      <point x="130" y="334" type="line"/>
      <point x="292" y="334" type="line" smooth="yes"/>
      <point x="380" y="334"/>
      <point x="419" y="296"/>
      <point x="419" y="233" type="curve" smooth="yes"/>
      <point x="419" y="220" type="line" smooth="yes"/>
      <point x="419" y="158"/>
      <point x="380" y="120"/>
    </contour>
    <contour>
      <point x="134.735" y="627" type="curve" smooth="yes"/>
      <point x="211.735" y="627"/>
      <point x="242.735" y="597"/>
      <point x="242.735" y="545" type="curve" smooth="yes"/>
      <point x="242.735" y="536" type="line" smooth="yes"/>
      <point x="242.735" y="484"/>
      <point x="211.735" y="454"/>
      <point x="134.735" y="454" type="curve" smooth="yes"/>
      <point x="101.735" y="454"/>
      <point x="74.735" y="427"/>
      <point x="74.735" y="394" type="curve" smooth="yes"/>
      <point x="74.735" y="361"/>
      <point x="101.735" y="334"/>
      <point x="134.735" y="334" type="curve" smooth="yes"/>
      <point x="268.735" y="334"/>
      <point x="362.735" y="425"/>
      <point x="362.735" y="536" type="curve" smooth="yes"/>
      <point x="362.735" y="545" type="line" smooth="yes"/>
      <point x="362.735" y="657"/>
      <point x="267.735" y="747"/>
      <point x="134.735" y="747" type="curve" smooth="yes"/>
      <point x="101.735" y="747"/>
      <point x="74.735" y="720"/>
      <point x="74.735" y="687" type="curve" smooth="yes"/>
      <point x="74.735" y="654"/>
      <point x="101.735" y="627"/>
    </contour>
  </outline>
</glyph>
<glyph name="C" format="2">
  <advance width="621"/>
  <unicode hex="0043"/>
  <anchor x="310" y="0" name="bottom"/>
  <anchor x="310" y="747" name="top"/>
  <outline>
    <contour>
      <point x="455" y="177" type="curve" smooth="yes"/>
      <point x="438" y="132"/>
      <point x="414" y="115"/>
      <point x="344" y="115" type="curve" smooth="yes"/>
      <point x="330" y="115" type="line" smooth="yes"/>
      <point x="221" y="115"/>
      <point x="180" y="160"/>
      <point x="180" y="283" type="curve" smooth="yes"/>
      <point x="180" y="464" type="line" smooth="yes"/>
      <point x="180" y="587"/>
      <point x="221" y="632"/>
      <point x="330" y="632" type="curve" smooth="yes"/>
      <point x="344" y="632" type="line" smooth="yes"/>
      <point x="398" y="632"/>
      <point x="427" y="621"/>
      <point x="452" y="595" type="curve" smooth="yes"/>
      <point x="463" y="583"/>
      <point x="479" y="576"/>
      <point x="496" y="576" type="curve" smooth="yes"/>
      <point x="529" y="576"/>
      <point x="556" y="603"/>
      <point x="556" y="636" type="curve" smooth="yes"/>
      <point x="556" y="652"/>
      <point x="550" y="666"/>
      <point x="540" y="677" type="curve" smooth="yes"/>
      <point x="492" y="727"/>
      <point x="423" y="752"/>
      <point x="344" y="752" type="curve" smooth="yes"/>
      <point x="330" y="752" type="line" smooth="yes"/>
      <point x="160" y="752"/>
      <point x="60" y="643"/>
      <point x="60" y="464" type="curve" smooth="yes"/>
      <point x="60" y="283" type="line" smooth="yes"/>
      <point x="60" y="105"/>
      <point x="160" y="-5"/>
      <point x="330" y="-5" type="curve" smooth="yes"/>
      <point x="344" y="-5" type="line" smooth="yes"/>
      <point x="457" y="-5"/>
      <point x="536" y="48"/>
      <point x="567" y="137" type="curve" smooth="yes"/>
      <point x="569.207" y="143.335"/>
      <point x="571" y="150"/>
      <point x="571" y="157" type="curve" smooth="yes"/>
      <point x="571" y="190"/>
      <point x="544" y="217"/>
      <point x="511" y="217" type="curve" smooth="yes"/>
      <point x="485" y="217"/>
      <point x="463" y="200"/>
    </contour>
    <contour>
      <point x="230.498" y="673" type="curve" smooth="yes"/>
      <point x="230.498" y="74" type="line" smooth="yes"/>
      <point x="230.498" y="41"/>
      <point x="257.498" y="14"/>
      <point x="290.498" y="14" type="curve" smooth="yes"/>
      <point x="323.498" y="14"/>
      <point x="350.498" y="41"/>
      <point x="350.498" y="74" type="curve" smooth="yes"/>
      <point x="350.498" y="673" type="line" smooth="yes"/>
      <point x="350.498" y="706"/>
      <point x="323.498" y="733"/>
      <point x="290.498" y="733" type="curve" smooth="yes"/>
      <point x="257.498" y="733"/>
      <point x="230.498" y="706"/>
    </contour>
  </outline>
</glyph>
<glyph name="D" format="2">
  <advance width="636"/>
  <unicode hex="0044"/>
  <anchor x="268" y="0" name="bottom"/>
  <anchor x="313" y="373.5" name="center"/>
  <anchor x="268" y="747" name="top"/>
  <outline>
    <contour>
      <point x="291" y="747" type="curve" smooth="yes"/>
      <point x="130" y="747" type="line" smooth="yes"/>
      <point x="91" y="747"/>
      <point x="70" y="726"/>
      <point x="70" y="687" type="curve" smooth="yes"/>
      <point x="70" y="59" type="line" smooth="yes"/>
      <point x="70" y="20"/>
      <point x="91" y="-1"/>
      <point x="130" y="-1" type="curve" smooth="yes"/>
      <point x="291" y="-1" type="line" smooth="yes"/>
      <point x="461" y="-1"/>
      <point x="576" y="138"/>
      <point x="576" y="335" type="curve" smooth="yes"/>
      <point x="576" y="411" type="line" smooth="yes"/>
      <point x="576" y="608"/>
      <point x="461" y="747"/>
    </contour>
    <contour>
      <point x="190" y="627" type="line"/>
      <point x="291" y="627" type="line" smooth="yes"/>
      <point x="398" y="627"/>
      <point x="456" y="556"/>
      <point x="456" y="411" type="curve" smooth="yes"/>
      <point x="456" y="335" type="line" smooth="yes"/>
      <point x="456" y="190"/>
      <point x="398" y="119"/>
      <point x="291" y="119" type="curve" smooth="yes"/>
      <point x="190" y="119" type="line"/>
    </contour>
    <contour>
      <point x="133" y="627" type="curve" smooth="yes"/>
      <point x="240" y="627"/>
      <point x="299" y="555"/>
      <point x="299" y="411" type="curve" smooth="yes"/>
      <point x="299" y="335" type="line" smooth="yes"/>
      <point x="299" y="191"/>
      <point x="240" y="119"/>
      <point x="133" y="119" type="curve" smooth="yes"/>
      <point x="100" y="119"/>
      <point x="73" y="92"/>
      <point x="73" y="59" type="curve" smooth="yes"/>
      <point x="73" y="26"/>
      <point x="100" y="-1"/>
      <point x="133" y="-1" type="curve" smooth="yes"/>
      <point x="303" y="-1"/>
      <point x="419" y="138"/>
      <point x="419" y="335" type="curve" smooth="yes"/>
      <point x="419" y="411" type="line" smooth="yes"/>
      <point x="419" y="608"/>
      <point x="303" y="747"/>
      <point x="133" y="747" type="curve" smooth="yes"/>
      <point x="100" y="747"/>
      <point x="73" y="720"/>
      <point x="73" y="687" type="curve" smooth="yes"/>
      <point x="73" y="654"/>
      <point x="100" y="627"/>
    </contour>
  </outline>
</glyph>
<glyph name="I" format="2">
  <advance width="260"/>
  <unicode hex="0049"/>
  <anchor x="130" y="0" name="bottom"/>
  <anchor x="129.162" y="55" name="ogonek"/>
  <anchor x="130" y="747" name="top"/>
  <anchor x="66" y="747" name="topleft"/>
  <outline>
    <contour>
      <point x="70" y="687" type="curve" smooth="yes"/>
      <point x="70" y="60" type="line" smooth="yes"/>
      <point x="70" y="27"/>
      <point x="97" y="0"/>
      <point x="130" y="0" type="curve" smooth="yes"/>
      <point x="163" y="0"/>
      <point x="190" y="27"/>
      <point x="190" y="60" type="curve" smooth="yes"/>
      <point x="190" y="687" type="line" smooth="yes"/>
      <point x="190" y="720"/>
      <point x="163" y="747"/>
      <point x="130" y="747" type="curve" smooth="yes"/>
      <point x="97" y="747"/>
      <point x="70" y="720"/>
    </contour>
  </outline>
</glyph>
<glyph name="J" format="2">
  <advance width="583"/>
  <unicode hex="004A"/>
  <anchor x="293" y="0" name="bottom"/>
  <anchor x="293" y="747" name="top"/>
  <outline>
    <contour>
      <point x="173" y="627" type="curve" smooth="yes"/>
      <point x="393" y="627" type="line"/>
      <point x="393" y="283" type="line" smooth="yes"/>
      <point x="393" y="160"/>
      <point x="352" y="115"/>
      <point x="243" y="115" type="curve" smooth="yes"/>
      <point x="229" y="115" type="line" smooth="yes"/>
      <point x="171" y="115"/>
      <point x="149" y="126"/>
      <point x="130" y="155" type="curve" smooth="yes"/>
      <point x="119" y="171"/>
      <point x="101" y="182"/>
      <point x="80" y="182" type="curve" smooth="yes"/>
      <point x="47" y="182"/>
      <point x="20" y="155"/>
      <point x="20" y="122" type="curve" smooth="yes"/>
      <point x="20" y="110"/>
      <point x="24" y="98"/>
      <point x="30" y="89" type="curve" smooth="yes"/>
      <point x="70" y="30"/>
      <point x="138" y="-5"/>
      <point x="229" y="-5" type="curve" smooth="yes"/>
      <point x="243" y="-5" type="line" smooth="yes"/>
      <point x="413" y="-5"/>
      <point x="513" y="105"/>
      <point x="513" y="283" type="curve" smooth="yes"/>
      <point x="513" y="687" type="line" smooth="yes"/>
      <point x="513" y="726"/>
      <point x="492" y="747"/>
      <point x="453" y="747" type="curve" smooth="yes"/>
      <point x="173" y="747" type="line" smooth="yes"/>
      <point x="140" y="747"/>
      <point x="113" y="720"/>
      <point x="113" y="687" type="curve" smooth="yes"/>
      <point x="113" y="654"/>
      <point x="140" y="627"/>
    </contour>
    <contour>
      <point x="354" y="74" type="curve" smooth="yes"/>
      <point x="354" y="687" type="line" smooth="yes"/>
      <point x="354" y="720"/>
      <point x="327" y="747"/>
      <point x="294" y="747" type="curve" smooth="yes"/>
      <point x="261" y="747"/>
      <point x="234" y="720"/>
      <point x="234" y="687" type="curve" smooth="yes"/>
      <point x="234" y="74" type="line" smooth="yes"/>
      <point x="234" y="41"/>
      <point x="261" y="14"/>
      <point x="294" y="14" type="curve" smooth="yes"/>
      <point x="327" y="14"/>
      <point x="354" y="41"/>
    </contour>
  </outline>
</glyph>
<glyph name="K" format="2">
  <advance width="615"/>
  <unicode hex="004B"/>
  <anchor x="277" y="0" name="bottom"/>
  <anchor x="277" y="747" name="top"/>
  <outline>
    <contour>
      <point x="190" y="59" type="curve" smooth="yes"/>
      <point x="190" y="687" type="line" smooth="yes"/>
      <point x="190" y="720"/>
      <point x="163" y="747"/>
      <point x="130" y="747" type="curve" smooth="yes"/>
      <point x="97" y="747"/>
      <point x="70" y="720"/>
      <point x="70" y="687" type="curve" smooth="yes"/>
      <point x="70" y="59" type="line" smooth="yes"/>
      <point x="70" y="26"/>
      <point x="97" y="-1"/>
      <point x="130" y="-1" type="curve" smooth="yes"/>
      <point x="163" y="-1"/>
      <point x="190" y="26"/>
    </contour>
    <contour>
      <point x="175" y="314" type="curve" smooth="yes"/>
      <point x="472" y="647" type="line" smooth="yes"/>
      <point x="481.46" y="657.607"/>
      <point x="487" y="672"/>
      <point x="487" y="687" type="curve" smooth="yes"/>
      <point x="487" y="720"/>
      <point x="460" y="747"/>
      <point x="427" y="747" type="curve" smooth="yes"/>
      <point x="409" y="747"/>
      <point x="392.835" y="739.149"/>
      <point x="382" y="727" type="curve" smooth="yes"/>
      <point x="85" y="394" type="line" smooth="yes"/>
      <point x="75.54" y="383.393"/>
      <point x="70" y="369"/>
      <point x="70" y="354" type="curve" smooth="yes"/>
      <point x="70" y="321"/>
      <point x="97" y="294"/>
      <point x="130" y="294" type="curve" smooth="yes"/>
      <point x="148" y="294"/>
      <point x="164.165" y="301.851"/>
    </contour>
    <contour>
      <point x="251.069" y="483.833" type="curve"/>
      <point x="482" y="32" type="line" smooth="yes"/>
      <point x="491.976" y="12.469"/>
      <point x="512" y="-1"/>
      <point x="535" y="-1" type="curve" smooth="yes"/>
      <point x="568" y="-1"/>
      <point x="595" y="26"/>
      <point x="595" y="59" type="curve" smooth="yes"/>
      <point x="595" y="69"/>
      <point x="592.291" y="77.599"/>
      <point x="588" y="86" type="curve" smooth="yes"/>
      <point x="357.069" y="537.833" type="line" smooth="yes"/>
      <point x="347.088" y="557.361"/>
      <point x="327.069" y="570.833"/>
      <point x="304.069" y="570.833" type="curve" smooth="yes"/>
      <point x="271.069" y="570.833"/>
      <point x="244.069" y="543.833"/>
      <point x="244.069" y="510.833" type="curve" smooth="yes"/>
      <point x="244.069" y="500.833"/>
      <point x="246.069" y="491.833"/>
    </contour>
    <contour>
      <point x="126" y="378" type="curve" smooth="yes"/>
      <point x="305" y="31" type="line" smooth="yes"/>
      <point x="314.843" y="11.918"/>
      <point x="335" y="-1"/>
      <point x="358" y="-1" type="curve" smooth="yes"/>
      <point x="391" y="-1"/>
      <point x="418" y="26"/>
      <point x="418" y="59" type="curve" smooth="yes"/>
      <point x="418" y="69"/>
      <point x="415.72" y="77.85"/>
      <point x="411" y="87" type="curve" smooth="yes"/>
      <point x="232" y="434" type="line" smooth="yes"/>
      <point x="222.157" y="453.082"/>
      <point x="202" y="466"/>
      <point x="179" y="466" type="curve" smooth="yes"/>
      <point x="146" y="466"/>
      <point x="119" y="439"/>
      <point x="119" y="406" type="curve" smooth="yes"/>
      <point x="119" y="396"/>
      <point x="121.28" y="387.15"/>
    </contour>
  </outline>
</glyph>
<glyph name="L" format="2">
  <advance width="515"/>
  <unicode hex="004C"/>
  <anchor x="239.42" y="-5" name="bottom"/>
  <anchor x="256" y="373.5" name="center"/>
  <anchor x="256" y="747" name="top"/>
  <anchor x="446" y="747" name="topright"/>
  <outline>
    <contour>
      <point x="435" y="120" type="curve" smooth="yes"/>
      <point x="190" y="120" type="line"/>
      <point x="190" y="687" type="line" smooth="yes"/>
      <point x="190" y="720"/>
      <point x="163" y="747"/>
      <point x="130" y="747" type="curve" smooth="yes"/>
      <point x="97" y="747"/>
      <point x="70" y="720"/>
      <point x="70" y="687" type="curve" smooth="yes"/>
      <point x="70" y="60" type="line" smooth="yes"/>
      <point x="70" y="21"/>
      <point x="91" y="0"/>
      <point x="130" y="0" type="curve" smooth="yes"/>
      <point x="435" y="0" type="line" smooth="yes"/>
      <point x="468" y="0"/>
      <point x="495" y="27"/>
      <point x="495" y="60" type="curve" smooth="yes"/>
      <point x="495" y="93"/>
      <point x="468" y="120"/>
    </contour>
    <contour>
      <point x="435" y="287" type="curve" smooth="yes"/>
      <point x="130" y="287" type="line" smooth="yes"/>
      <point x="97" y="287"/>
      <point x="70" y="260"/>
      <point x="70" y="227" type="curve" smooth="yes"/>
      <point x="70" y="194"/>
      <point x="97" y="167"/>
      <point x="130" y="167" type="curve" smooth="yes"/>
      <point x="435" y="167" type="line" smooth="yes"/>
      <point x="468" y="167"/>
      <point x="495" y="194"/>
      <point x="495" y="227" type="curve" smooth="yes"/>
      <point x="495" y="260"/>
      <point x="468" y="287"/>
    </contour>
  </outline>
</glyph>
<glyph name="N" format="2">
  <advance width="568"/>
  <unicode hex="004E"/>
  <anchor x="284" y="0" name="bottom"/>
  <anchor x="284" y="747" name="top"/>
  <outline>
    <contour>
      <point x="70" y="687" type="curve" smooth="yes"/>
      <point x="70" y="60" type="line" smooth="yes"/>
      <point x="70" y="27"/>
      <point x="97" y="0"/>
      <point x="130" y="0" type="curve" smooth="yes"/>
      <point x="163" y="0"/>
      <point x="190" y="27"/>
      <point x="190" y="60" type="curve" smooth="yes"/>
      <point x="190" y="687" type="line" smooth="yes"/>
      <point x="190" y="720"/>
      <point x="163" y="747"/>
      <point x="130" y="747" type="curve" smooth="yes"/>
      <point x="97" y="747"/>
      <point x="70" y="720"/>
    </contour>
    <contour>
      <point x="331" y="87" type="curve" smooth="yes"/>
      <point x="185.918" y="379.957" type="line" smooth="yes"/>
      <point x="175.994" y="399.995"/>
      <point x="154.918" y="412.957"/>
      <point x="131.918" y="412.957" type="curve" smooth="yes"/>
      <point x="98.918" y="412.957"/>
      <point x="71.918" y="385.957"/>
      <point x="71.918" y="352.957" type="curve" smooth="yes"/>
      <point x="71.918" y="342.957"/>
      <point x="73.948" y="333.972"/>
      <point x="77.918" y="325.957" type="curve" smooth="yes"/>
      <point x="223" y="33" type="line" smooth="yes"/>
      <point x="232.924" y="12.962"/>
      <point x="254" y="0"/>
      <point x="277" y="0" type="curve" smooth="yes"/>
      <point x="310" y="0"/>
      <point x="337" y="27"/>
      <point x="337" y="60" type="curve" smooth="yes"/>
      <point x="337" y="70"/>
      <point x="334.969" y="78.985"/>
    </contour>
    <contour>
      <point x="378" y="687" type="curve" smooth="yes"/>
      <point x="378" y="60" type="line" smooth="yes"/>
      <point x="378" y="27"/>
      <point x="405" y="0"/>
      <point x="438" y="0" type="curve" smooth="yes"/>
      <point x="471" y="0"/>
      <point x="498" y="27"/>
      <point x="498" y="60" type="curve" smooth="yes"/>
      <point x="498" y="687" type="line" smooth="yes"/>
      <point x="498" y="720"/>
      <point x="471" y="747"/>
      <point x="438" y="747" type="curve" smooth="yes"/>
      <point x="405" y="747"/>
      <point x="378" y="720"/>
    </contour>
    <contour>
      <point x="492" y="86" type="curve" smooth="yes"/>
      <point x="184" y="713" type="line" smooth="yes"/>
      <point x="174.141" y="733.07"/>
      <point x="154" y="747"/>
      <point x="130" y="747" type="curve" smooth="yes"/>
      <point x="97" y="747"/>
      <point x="70" y="720"/>
      <point x="70" y="687" type="curve" smooth="yes"/>
      <point x="70" y="678"/>
      <point x="72.061" y="669.03"/>
      <point x="76" y="661" type="curve" smooth="yes"/>
      <point x="384" y="34" type="line" smooth="yes"/>
      <point x="393.859" y="13.93"/>
      <point x="414" y="0"/>
      <point x="438" y="0" type="curve" smooth="yes"/>
      <point x="471" y="0"/>
      <point x="498" y="27"/>
      <point x="498" y="60" type="curve" smooth="yes"/>
      <point x="498" y="69"/>
      <point x="495.939" y="77.97"/>
    </contour>
  </outline>
</glyph>
<glyph name="O" format="2">
  <advance width="674"/>
  <unicode hex="004F"/>
  <anchor x="337" y="0" name="bottom"/>
  <anchor x="337" y="373.5" name="center"/>
  <anchor x="360.784" y="40" name="ogonek"/>
  <anchor x="337" y="747" name="top"/>
  <anchor x="66" y="747" name="topleft"/>
  <anchor x="608" y="747" name="topright"/>
  <outline>
    <contour>
      <point x="60" y="464" type="curve" smooth="yes"/>
      <point x="60" y="282" type="line" smooth="yes"/>
      <point x="60" y="104"/>
      <point x="160" y="-6"/>
      <point x="330" y="-6" type="curve" smooth="yes"/>
      <point x="344" y="-6" type="line" smooth="yes"/>
      <point x="514" y="-6"/>
      <point x="614" y="104"/>
      <point x="614" y="282" type="curve" smooth="yes"/>
      <point x="614" y="464" type="line" smooth="yes"/>
      <point x="614" y="643"/>
      <point x="514" y="752"/>
      <point x="344" y="752" type="curve" smooth="yes"/>
      <point x="330" y="752" type="line" smooth="yes"/>
      <point x="160" y="752"/>
      <point x="60" y="643"/>
    </contour>
    <contour>
      <point x="180" y="464" type="line" smooth="yes"/>
      <point x="180" y="587"/>
      <point x="221" y="632"/>
      <point x="330" y="632" type="curve" smooth="yes"/>
      <point x="344" y="632" type="line" smooth="yes"/>
      <point x="453" y="632"/>
      <point x="494" y="587"/>
      <point x="494" y="464" type="curve" smooth="yes"/>
      <point x="494" y="282" type="line" smooth="yes"/>
      <point x="494" y="159"/>
      <point x="453" y="114"/>
      <point x="344" y="114" type="curve" smooth="yes"/>
      <point x="330" y="114" type="line" smooth="yes"/>
      <point x="221" y="114"/>
      <point x="180" y="159"/>
      <point x="180" y="282" type="curve" smooth="yes"/>
    </contour>
    <contour>
      <point x="229" y="630" type="curve" smooth="yes"/>
      <point x="311" y="617"/>
      <point x="344" y="573"/>
      <point x="344" y="464" type="curve" smooth="yes"/>
      <point x="344" y="282" type="line" smooth="yes"/>
      <point x="344" y="173"/>
      <point x="312" y="130"/>
      <point x="231" y="117" type="curve" smooth="yes"/>
      <point x="202" y="113"/>
      <point x="180" y="88"/>
      <point x="180" y="58" type="curve" smooth="yes"/>
      <point x="180" y="34.259"/>
      <point x="255.915" y="-9.533"/>
      <point x="320.095" y="19.341" type="curve" smooth="yes"/>
      <point x="412.13" y="60.745"/>
      <point x="464" y="153.973"/>
      <point x="464" y="282" type="curve" smooth="yes"/>
      <point x="464" y="464" type="line" smooth="yes"/>
      <point x="464" y="581.615"/>
      <point x="419.664" y="670.047"/>
      <point x="340.242" y="716.263" type="curve" smooth="yes"/>
      <point x="272.944" y="755.424"/>
      <point x="179" y="719.024"/>
      <point x="179" y="689" type="curve" smooth="yes"/>
      <point x="179" y="659"/>
      <point x="201" y="634"/>
    </contour>
  </outline>
</glyph>
<glyph name="Q" format="2">
  <advance width="674"/>
  <unicode hex="0051"/>
  <anchor x="329" y="0" name="bottom"/>
  <anchor x="319.612" y="747" name="top"/>
  <anchor x="337.0" y="373.5" name="center"/>
  <anchor x="360.784" y="40.0" name="ogonek"/>
  <anchor x="66" y="747" name="topleft"/>
  <anchor x="608" y="747" name="topright"/>
  <outline>
    <contour>
      <point x="496.939" y="-24.287" type="curve" smooth="yes"/>
      <point x="336.939" y="232.713" type="line" smooth="yes"/>
      <point x="326.359" y="249.707"/>
      <point x="307.493" y="261"/>
      <point x="286" y="261" type="curve" smooth="yes"/>
      <point x="252.863" y="261"/>
      <point x="226" y="234.137"/>
      <point x="226" y="201" type="curve" smooth="yes"/>
      <point x="226" y="189.356"/>
      <point x="229.329" y="178.494"/>
      <point x="235.061" y="169.287" type="curve" smooth="yes"/>
      <point x="395.061" y="-87.713" type="line" smooth="yes"/>
      <point x="405.641" y="-104.707"/>
      <point x="424.507" y="-116"/>
      <point x="446" y="-116" type="curve" smooth="yes"/>
      <point x="479.137" y="-116"/>
      <point x="506" y="-89.137"/>
      <point x="506" y="-56" type="curve" smooth="yes"/>
      <point x="506" y="-44.356"/>
      <point x="502.671" y="-33.494"/>
    </contour>
    <component base="O"/>
  </outline>
</glyph>
<glyph name="R" format="2">
  <advance width="568"/>
  <unicode hex="0052"/>
  <anchor x="283" y="0" name="bottom"/>
  <anchor x="283" y="747" name="top"/>
  <outline>
    <contour>
      <point x="190" y="60" type="curve" smooth="yes"/>
      <point x="190" y="627" type="line"/>
      <point x="301" y="627" type="line" smooth="yes"/>
      <point x="378" y="627"/>
      <point x="409" y="597"/>
      <point x="409" y="542" type="curve" smooth="yes"/>
      <point x="409" y="533" type="line" smooth="yes"/>
      <point x="409" y="481"/>
      <point x="377" y="450"/>
      <point x="301" y="450" type="curve" smooth="yes"/>
      <point x="130" y="450" type="line" smooth="yes"/>
      <point x="97" y="450"/>
      <point x="70" y="423"/>
      <point x="70" y="390" type="curve" smooth="yes"/>
      <point x="70" y="357"/>
      <point x="97" y="330"/>
      <point x="130" y="330" type="curve" smooth="yes"/>
      <point x="301" y="330" type="line" smooth="yes"/>
      <point x="435" y="330"/>
      <point x="529" y="423"/>
      <point x="529" y="533" type="curve" smooth="yes"/>
      <point x="529" y="542" type="line" smooth="yes"/>
      <point x="529" y="656"/>
      <point x="435" y="747"/>
      <point x="301" y="747" type="curve" smooth="yes"/>
      <point x="130" y="747" type="line" smooth="yes"/>
      <point x="91" y="747"/>
      <point x="70" y="726"/>
      <point x="70" y="687" type="curve" smooth="yes"/>
      <point x="70" y="60" type="line" smooth="yes"/>
      <point x="70" y="27"/>
      <point x="97" y="0"/>
      <point x="130" y="0" type="curve" smooth="yes"/>
      <point x="163" y="0"/>
      <point x="190" y="27"/>
    </contour>
    <contour>
      <point x="236.181" y="349.562" type="curve" smooth="yes"/>
      <point x="426" y="29" type="line" smooth="yes"/>
      <point x="436.317" y="11.577"/>
      <point x="456" y="0"/>
      <point x="478" y="0" type="curve" smooth="yes"/>
      <point x="511" y="0"/>
      <point x="538" y="27"/>
      <point x="538" y="60" type="curve" smooth="yes"/>
      <point x="538" y="71"/>
      <point x="535.246" y="82.141"/>
      <point x="530" y="91" type="curve" smooth="yes"/>
      <point x="340.181" y="411.562" type="line" smooth="yes"/>
      <point x="329.864" y="428.985"/>
      <point x="310.181" y="440.562"/>
      <point x="288.181" y="440.562" type="curve" smooth="yes"/>
      <point x="255.181" y="440.562"/>
      <point x="228.181" y="413.562"/>
      <point x="228.181" y="380.562" type="curve" smooth="yes"/>
      <point x="228.181" y="369.562"/>
      <point x="230.935" y="358.421"/>
    </contour>
    <contour>
      <point x="338" y="281" type="curve" smooth="yes"/>
      <point x="131" y="281" type="line" smooth="yes"/>
      <point x="98" y="281"/>
      <point x="71" y="254"/>
      <point x="71" y="221" type="curve" smooth="yes"/>
      <point x="71" y="188"/>
      <point x="98" y="161"/>
      <point x="131" y="161" type="curve" smooth="yes"/>
      <point x="338" y="161" type="line" smooth="yes"/>
      <point x="371" y="161"/>
      <point x="398" y="188"/>
      <point x="398" y="221" type="curve" smooth="yes"/>
      <point x="398" y="254"/>
      <point x="371" y="281"/>
    </contour>
  </outline>
</glyph>
<glyph name="S" format="2">
  <advance width="569"/>
  <unicode hex="0053"/>
  <anchor x="285" y="0" name="bottom"/>
  <anchor x="285" y="747" name="top"/>
  <outline>
    <contour>
      <point x="49" y="117" type="curve" smooth="yes"/>
      <point x="89" y="42"/>
      <point x="176" y="-5"/>
      <point x="288" y="-5" type="curve" smooth="yes"/>
      <point x="422" y="-5"/>
      <point x="539" y="88"/>
      <point x="539" y="210" type="curve" smooth="yes"/>
      <point x="539" y="326"/>
      <point x="450" y="380"/>
      <point x="317" y="438" type="curve" smooth="yes"/>
      <point x="202" y="488"/>
      <point x="179" y="498"/>
      <point x="179" y="540" type="curve" smooth="yes"/>
      <point x="179" y="596"/>
      <point x="219" y="631"/>
      <point x="297" y="631" type="curve" smooth="yes"/>
      <point x="352" y="631"/>
      <point x="387" y="612"/>
      <point x="410" y="577" type="curve" smooth="yes"/>
      <point x="420" y="561"/>
      <point x="439" y="550"/>
      <point x="460" y="550" type="curve" smooth="yes"/>
      <point x="493" y="550"/>
      <point x="520" y="577"/>
      <point x="520" y="610" type="curve" smooth="yes"/>
      <point x="520" y="622"/>
      <point x="516" y="633"/>
      <point x="510" y="643" type="curve" smooth="yes"/>
      <point x="468" y="708"/>
      <point x="387" y="752"/>
      <point x="297" y="752" type="curve" smooth="yes"/>
      <point x="167" y="752"/>
      <point x="59" y="660"/>
      <point x="59" y="540" type="curve" smooth="yes"/>
      <point x="59" y="418"/>
      <point x="179" y="367"/>
      <point x="270" y="328" type="curve" smooth="yes"/>
      <point x="337" y="298"/>
      <point x="419" y="267"/>
      <point x="419" y="210" type="curve" smooth="yes"/>
      <point x="419" y="153"/>
      <point x="371" y="115"/>
      <point x="288" y="115" type="curve" smooth="yes"/>
      <point x="213" y="115"/>
      <point x="176" y="135"/>
      <point x="155" y="173" type="curve" smooth="yes"/>
      <point x="145" y="192"/>
      <point x="125" y="205"/>
      <point x="102" y="205" type="curve" smooth="yes"/>
      <point x="69" y="205"/>
      <point x="42" y="178"/>
      <point x="42" y="145" type="curve" smooth="yes"/>
      <point x="42" y="135"/>
      <point x="45" y="125"/>
    </contour>
    <contour>
      <point x="389" y="58" type="curve"/>
      <point x="480.788" y="155.599" type="line"/>
      <point x="441.548" y="215.21"/>
      <point x="366.431" y="251.288"/>
      <point x="288" y="285" type="curve" smooth="yes"/>
      <point x="200" y="323"/>
      <point x="150" y="345"/>
      <point x="150" y="388" type="curve" smooth="yes"/>
      <point x="150" y="444"/>
      <point x="190" y="479"/>
      <point x="267" y="479" type="curve" smooth="yes"/>
      <point x="323" y="479"/>
      <point x="357" y="461"/>
      <point x="379" y="426" type="curve" smooth="yes"/>
      <point x="389" y="408"/>
      <point x="408" y="397"/>
      <point x="430" y="397" type="curve" smooth="yes"/>
      <point x="463" y="397"/>
      <point x="490" y="424"/>
      <point x="490" y="457" type="curve" smooth="yes"/>
      <point x="490" y="468"/>
      <point x="487" y="479"/>
      <point x="481" y="488" type="curve" smooth="yes"/>
      <point x="440" y="556"/>
      <point x="358" y="600"/>
      <point x="267" y="600" type="curve" smooth="yes"/>
      <point x="137" y="600"/>
      <point x="30" y="506"/>
      <point x="30" y="388" type="curve" smooth="yes"/>
      <point x="30" y="274"/>
      <point x="129" y="224"/>
      <point x="240" y="175" type="curve" smooth="yes"/>
      <point x="332" y="135"/>
      <point x="389" y="110"/>
    </contour>
  </outline>
</glyph>
<glyph name="T" format="2">
  <advance width="570"/>
  <unicode hex="0054"/>
  <anchor x="285" y="0" name="bottom"/>
  <anchor x="285" y="373.5" name="center"/>
  <anchor x="285" y="747" name="top"/>
  <outline>
    <contour>
      <point x="225" y="687" type="curve" smooth="yes"/>
      <point x="225" y="60" type="line" smooth="yes"/>
      <point x="225" y="27"/>
      <point x="252" y="0"/>
      <point x="285" y="0" type="curve" smooth="yes"/>
      <point x="318" y="0"/>
      <point x="345" y="27"/>
      <point x="345" y="60" type="curve" smooth="yes"/>
      <point x="345" y="687" type="line" smooth="yes"/>
      <point x="345" y="720"/>
      <point x="318" y="747"/>
      <point x="285" y="747" type="curve" smooth="yes"/>
      <point x="252" y="747"/>
      <point x="225" y="720"/>
    </contour>
    <contour>
      <point x="495" y="747" type="curve" smooth="yes"/>
      <point x="75" y="747" type="line" smooth="yes"/>
      <point x="42" y="747"/>
      <point x="15" y="720"/>
      <point x="15" y="687" type="curve" smooth="yes"/>
      <point x="15" y="654"/>
      <point x="42" y="627"/>
      <point x="75" y="627" type="curve" smooth="yes"/>
      <point x="495" y="627" type="line" smooth="yes"/>
      <point x="528" y="627"/>
      <point x="555" y="654"/>
      <point x="555" y="687" type="curve" smooth="yes"/>
      <point x="555" y="720"/>
      <point x="528" y="747"/>
    </contour>
    <contour>
      <point x="495" y="580" type="curve" smooth="yes"/>
      <point x="75" y="580" type="line" smooth="yes"/>
      <point x="42" y="580"/>
      <point x="15" y="553"/>
      <point x="15" y="520" type="curve" smooth="yes"/>
      <point x="15" y="487"/>
      <point x="42" y="460"/>
      <point x="75" y="460" type="curve" smooth="yes"/>
      <point x="495" y="460" type="line" smooth="yes"/>
      <point x="528" y="460"/>
      <point x="555" y="487"/>
      <point x="555" y="520" type="curve" smooth="yes"/>
      <point x="555" y="553"/>
      <point x="528" y="580"/>
    </contour>
  </outline>
</glyph>
<glyph name="V" format="2">
  <advance width="565"/>
  <unicode hex="0056"/>
  <anchor x="283" y="0" name="bottom"/>
  <anchor x="283" y="747" name="top"/>
  <outline>
    <contour>
      <point x="340" y="77" type="curve" smooth="yes"/>
      <point x="137" y="705" type="line" smooth="yes"/>
      <point x="128.926" y="729.976"/>
      <point x="107" y="747"/>
      <point x="80" y="747" type="curve" smooth="yes"/>
      <point x="47" y="747"/>
      <point x="20" y="720"/>
      <point x="20" y="687" type="curve" smooth="yes"/>
      <point x="20" y="681"/>
      <point x="21.344" y="674.124"/>
      <point x="23" y="669" type="curve" smooth="yes"/>
      <point x="226" y="41" type="line" smooth="yes"/>
      <point x="234.074" y="16.024"/>
      <point x="256" y="0"/>
      <point x="283" y="0" type="curve" smooth="yes"/>
      <point x="316" y="0"/>
      <point x="343" y="26"/>
      <point x="343" y="59" type="curve" smooth="yes"/>
      <point x="343" y="65"/>
      <point x="341.656" y="71.876"/>
    </contour>
    <contour>
      <point x="421.707" y="348.335" type="line"/>
      <point x="308" y="705" type="line" smooth="yes"/>
      <point x="300.316" y="729.103"/>
      <point x="278" y="747"/>
      <point x="251" y="747" type="curve" smooth="yes"/>
      <point x="218" y="747"/>
      <point x="191" y="720"/>
      <point x="191" y="687" type="curve" smooth="yes"/>
      <point x="191" y="681"/>
      <point x="192.079" y="675.026"/>
      <point x="194" y="669" type="curve" smooth="yes"/>
      <point x="307.707" y="312.335" type="line"/>
    </contour>
    <contour>
      <point x="428" y="705" type="curve" smooth="yes"/>
      <point x="226" y="77" type="line" smooth="yes"/>
      <point x="224.351" y="71.874"/>
      <point x="223" y="65"/>
      <point x="223" y="59" type="curve" smooth="yes"/>
      <point x="223" y="26"/>
      <point x="250" y="0"/>
      <point x="283" y="0" type="curve" smooth="yes"/>
      <point x="310" y="0"/>
      <point x="331.962" y="16.012"/>
      <point x="340" y="41" type="curve" smooth="yes"/>
      <point x="542" y="669" type="line" smooth="yes"/>
      <point x="543.649" y="674.126"/>
      <point x="545" y="681"/>
      <point x="545" y="687" type="curve" smooth="yes"/>
      <point x="545" y="720"/>
      <point x="518" y="747"/>
      <point x="485" y="747" type="curve" smooth="yes"/>
      <point x="458" y="747"/>
      <point x="436.038" y="729.988"/>
    </contour>
  </outline>
</glyph>
<glyph name="X" format="2">
  <advance width="580"/>
  <unicode hex="0058"/>
  <anchor x="290" y="0" name="bottom"/>
  <anchor x="290" y="747" name="top"/>
  <outline>
    <contour>
      <point x="439" y="719" type="curve" smooth="yes"/>
      <point x="39" y="92" type="line" smooth="yes"/>
      <point x="33.182" y="82.881"/>
      <point x="30" y="72"/>
      <point x="30" y="60" type="curve" smooth="yes"/>
      <point x="30" y="27"/>
      <point x="57" y="0"/>
      <point x="90" y="0" type="curve" smooth="yes"/>
      <point x="111" y="0"/>
      <point x="130.11" y="10.929"/>
      <point x="141" y="28" type="curve" smooth="yes"/>
      <point x="541" y="655" type="line" smooth="yes"/>
      <point x="546.818" y="664.119"/>
      <point x="550" y="675"/>
      <point x="550" y="687" type="curve" smooth="yes"/>
      <point x="550" y="720"/>
      <point x="523" y="747"/>
      <point x="490" y="747" type="curve" smooth="yes"/>
      <point x="469" y="747"/>
      <point x="449.89" y="736.071"/>
    </contour>
    <contour>
      <point x="541" y="92" type="curve" smooth="yes"/>
      <point x="141" y="719" type="line" smooth="yes"/>
      <point x="130.11" y="736.071"/>
      <point x="111" y="747"/>
      <point x="90" y="747" type="curve" smooth="yes"/>
      <point x="57" y="747"/>
      <point x="30" y="720"/>
      <point x="30" y="687" type="curve" smooth="yes"/>
      <point x="30" y="675"/>
      <point x="33.182" y="664.119"/>
      <point x="39" y="655" type="curve" smooth="yes"/>
      <point x="439" y="28" type="line" smooth="yes"/>
      <point x="449.89" y="10.929"/>
      <point x="469" y="0"/>
      <point x="490" y="0" type="curve" smooth="yes"/>
      <point x="523" y="0"/>
      <point x="550" y="27"/>
      <point x="550" y="60" type="curve" smooth="yes"/>
      <point x="550" y="72"/>
      <point x="546.818" y="82.881"/>
    </contour>
    <contour>
      <point x="94" y="627" type="curve" smooth="yes"/>
      <point x="488" y="627" type="line" smooth="yes"/>
      <point x="521" y="627"/>
      <point x="548" y="654"/>
      <point x="548" y="687" type="curve" smooth="yes"/>
      <point x="548" y="720"/>
      <point x="523" y="747"/>
      <point x="490" y="747" type="curve" smooth="yes"/>
      <point x="90" y="747" type="line" smooth="yes"/>
      <point x="57" y="747"/>
      <point x="34" y="720"/>
      <point x="34" y="687" type="curve" smooth="yes"/>
      <point x="34" y="654"/>
      <point x="61" y="627"/>
    </contour>
  </outline>
</glyph>
<glyph name="Y" format="2">
  <advance width="580"/>
  <unicode hex="0059"/>
  <anchor x="272.57" y="0" name="bottom"/>
  <anchor x="272.57" y="747" name="top"/>
  <anchor x="60.57" y="747" name="topleft"/>
  <outline>
    <contour>
      <point x="228.57" y="366" type="curve" smooth="yes"/>
      <point x="228.57" y="60" type="line" smooth="yes"/>
      <point x="228.57" y="27"/>
      <point x="255.57" y="0"/>
      <point x="288.57" y="0" type="curve" smooth="yes"/>
      <point x="321.57" y="0"/>
      <point x="348.57" y="27"/>
      <point x="348.57" y="60" type="curve" smooth="yes"/>
      <point x="348.57" y="366" type="line" smooth="yes"/>
      <point x="348.57" y="399"/>
      <point x="321.57" y="426"/>
      <point x="288.57" y="426" type="curve" smooth="yes"/>
      <point x="255.57" y="426"/>
      <point x="228.57" y="399"/>
    </contour>
    <contour>
      <point x="439" y="719" type="curve" smooth="yes"/>
      <point x="290" y="485.442" type="line"/>
      <point x="141" y="719" type="line" smooth="yes"/>
      <point x="130.11" y="736.071"/>
      <point x="111" y="747"/>
      <point x="90" y="747" type="curve" smooth="yes"/>
      <point x="57" y="747"/>
      <point x="30" y="720"/>
      <point x="30" y="687" type="curve" smooth="yes"/>
      <point x="30" y="675"/>
      <point x="33.182" y="664.119"/>
      <point x="39" y="655" type="curve" smooth="yes"/>
      <point x="218.585" y="373.5" type="line"/>
      <point x="290" y="261.558" type="line"/>
      <point x="361.415" y="373.5" type="line"/>
      <point x="541" y="655" type="line" smooth="yes"/>
      <point x="546.818" y="664.119"/>
      <point x="550" y="675"/>
      <point x="550" y="687" type="curve" smooth="yes"/>
      <point x="550" y="720"/>
      <point x="523" y="747"/>
      <point x="490" y="747" type="curve" smooth="yes"/>
      <point x="469" y="747"/>
      <point x="449.89" y="736.071"/>
    </contour>
    <contour>
      <point x="94" y="627" type="curve" smooth="yes"/>
      <point x="488" y="627" type="line" smooth="yes"/>
      <point x="521" y="627"/>
      <point x="548" y="654"/>
      <point x="548" y="687" type="curve" smooth="yes"/>
      <point x="548" y="720"/>
      <point x="523" y="747"/>
      <point x="490" y="747" type="curve" smooth="yes"/>
      <point x="90" y="747" type="line" smooth="yes"/>
      <point x="57" y="747"/>
      <point x="34" y="720"/>
      <point x="34" y="687" type="curve" smooth="yes"/>
      <point x="34" y="654"/>
      <point x="61" y="627"/>
    </contour>
  </outline>
</glyph>
<glyph name="Z" format="2">
  <advance width="579.31"/>
  <unicode hex="005A"/>
  <anchor x="288" y="0" name="bottom"/>
  <anchor x="288" y="373.5" name="center"/>
  <anchor x="288" y="747" name="top"/>
  <outline>
    <contour>
      <point x="472" y="120" type="curve" smooth="yes"/>
      <point x="189" y="120" type="line"/>
      <point x="483.805" y="602.619" type="line" smooth="yes"/>
      <point x="534.229" y="685.166"/>
      <point x="499.543" y="747"/>
      <point x="402.813" y="747" type="curve" smooth="yes"/>
      <point x="100" y="747" type="line" smooth="yes"/>
      <point x="67" y="747"/>
      <point x="40" y="720"/>
      <point x="40" y="687" type="curve" smooth="yes"/>
      <point x="40" y="654"/>
      <point x="67" y="627"/>
      <point x="100" y="627" type="curve" smooth="yes"/>
      <point x="358" y="627" type="line"/>
      <point x="63.195" y="144.381" type="line" smooth="yes"/>
      <point x="12.771" y="61.834"/>
      <point x="47.457" y="0"/>
      <point x="144.187" y="0" type="curve" smooth="yes"/>
      <point x="472" y="0" type="line" smooth="yes"/>
      <point x="505" y="0"/>
      <point x="532" y="27"/>
      <point x="532" y="60" type="curve" smooth="yes"/>
      <point x="532" y="93"/>
      <point x="505" y="120"/>
    </contour>
    <contour>
      <point x="152.307" y="419" type="curve" smooth="yes"/>
      <point x="479.307" y="419" type="line" smooth="yes"/>
      <point x="512.307" y="419"/>
      <point x="539.307" y="446"/>
      <point x="539.307" y="479" type="curve" smooth="yes"/>
      <point x="539.307" y="512"/>
      <point x="512.307" y="539"/>
      <point x="479.307" y="539" type="curve" smooth="yes"/>
      <point x="152.307" y="539" type="line" smooth="yes"/>
      <point x="119.307" y="539"/>
      <point x="92.307" y="512"/>
      <point x="92.307" y="479" type="curve" smooth="yes"/>
      <point x="92.307" y="446"/>
      <point x="119.307" y="419"/>
    </contour>
    <contour>
      <point x="104" y="255" type="curve" smooth="yes"/>
      <point x="430" y="255" type="line" smooth="yes"/>
      <point x="463" y="255"/>
      <point x="490" y="282"/>
      <point x="490" y="315" type="curve" smooth="yes"/>
      <point x="490" y="348"/>
      <point x="463" y="375"/>
      <point x="430" y="375" type="curve" smooth="yes"/>
      <point x="104" y="375" type="line" smooth="yes"/>
      <point x="71" y="375"/>
      <point x="44" y="348"/>
      <point x="44" y="315" type="curve" smooth="yes"/>
      <point x="44" y="282"/>
      <point x="71" y="255"/>
    </contour>
  </outline>
</glyph>
<glyph name="bracketleft" format="2">
  <advance width="383"/>
  <unicode hex="005B"/>
  <outline>
    <contour>
      <point x="294" y="23" type="curve" smooth="yes"/>
      <point x="169" y="23" type="line"/>
      <point x="169" y="676" type="line"/>
      <point x="294" y="676" type="line" smooth="yes"/>
      <point x="327" y="676"/>
      <point x="354" y="703"/>
      <point x="354" y="736" type="curve" smooth="yes"/>
      <point x="354" y="769"/>
      <point x="327" y="796"/>
      <point x="294" y="796" type="curve" smooth="yes"/>
      <point x="109" y="796" type="line" smooth="yes"/>
      <point x="70" y="796"/>
      <point x="49" y="775"/>
      <point x="49" y="736" type="curve" smooth="yes"/>
      <point x="49" y="-37" type="line" smooth="yes"/>
      <point x="49" y="-76"/>
      <point x="70" y="-97"/>
      <point x="109" y="-97" type="curve" smooth="yes"/>
      <point x="294" y="-97" type="line" smooth="yes"/>
      <point x="327" y="-97"/>
      <point x="354" y="-70"/>
      <point x="354" y="-37" type="curve" smooth="yes"/>
      <point x="354" y="-4"/>
      <point x="327" y="23"/>
    </contour>
  </outline>
</glyph>
<glyph name="asciicircum" format="2">
  <advance width="612"/>
  <unicode hex="005E"/>
  <outline>
    <contour>
      <point x="257" y="679" type="curve" smooth="yes"/>
      <point x="96" y="431" type="line" smooth="yes"/>
      <point x="90" y="421"/>
      <point x="86" y="410"/>
      <point x="86" y="398" type="curve" smooth="yes"/>
      <point x="86" y="365"/>
      <point x="113" y="338"/>
      <point x="146" y="338" type="curve" smooth="yes"/>
      <point x="167" y="338"/>
      <point x="186" y="349"/>
      <point x="196" y="365" type="curve" smooth="yes"/>
      <point x="357" y="613" type="line" smooth="yes"/>
      <point x="363" y="623"/>
      <point x="367" y="634"/>
      <point x="367" y="646" type="curve" smooth="yes"/>
      <point x="367" y="679"/>
      <point x="340" y="706"/>
      <point x="307" y="706" type="curve" smooth="yes"/>
      <point x="286" y="706"/>
      <point x="267" y="695"/>
    </contour>
    <contour>
      <point x="257" y="613" type="curve" smooth="yes"/>
      <point x="417" y="365" type="line" smooth="yes"/>
      <point x="427" y="349"/>
      <point x="446" y="338"/>
      <point x="467" y="338" type="curve" smooth="yes"/>
      <point x="500" y="338"/>
      <point x="527" y="365"/>
      <point x="527" y="398" type="curve" smooth="yes"/>
      <point x="527" y="410"/>
      <point x="523" y="421"/>
      <point x="517" y="431" type="curve" smooth="yes"/>
      <point x="357" y="679" type="line" smooth="yes"/>
      <point x="347" y="695"/>
      <point x="328" y="706"/>
      <point x="307" y="706" type="curve" smooth="yes"/>
      <point x="274" y="706"/>
      <point x="247" y="679"/>
      <point x="247" y="646" type="curve" smooth="yes"/>
      <point x="247" y="634"/>
      <point x="251" y="623"/>
    </contour>
  </outline>
</glyph>
<glyph name="underscore" format="2">
  <advance width="574"/>
  <unicode hex="005F"/>
  <outline>
    <contour>
      <point x="509" y="92" type="curve" smooth="yes"/>
      <point x="65" y="92" type="line" smooth="yes"/>
      <point x="32" y="92"/>
      <point x="5" y="65"/>
      <point x="5" y="32" type="curve" smooth="yes"/>
      <point x="5" y="-1"/>
      <point x="32" y="-28"/>
      <point x="65" y="-28" type="curve" smooth="yes"/>
      <point x="509" y="-28" type="line" smooth="yes"/>
      <point x="542" y="-28"/>
      <point x="569" y="-1"/>
      <point x="569" y="32" type="curve" smooth="yes"/>
      <point x="569" y="65"/>
      <point x="542" y="92"/>
    </contour>
  </outline>
</glyph>
<glyph name="c" format="2">
  <advance width="568.11"/>
  <unicode hex="0063"/>
  <anchor x="285" y="0" name="bottom"/>
  <anchor x="285" y="570" name="top"/>
  <outline>
    <contour>
      <point x="523" y="479" type="curve" smooth="yes"/>
      <point x="487" y="558"/>
      <point x="409" y="597"/>
      <point x="311" y="597" type="curve" smooth="yes"/>
      <point x="307" y="597" type="line" smooth="yes"/>
      <point x="156" y="597"/>
      <point x="50" y="486"/>
      <point x="50" y="322" type="curve" smooth="yes"/>
      <point x="50" y="270" type="line" smooth="yes"/>
      <point x="50" y="107"/>
      <point x="156" y="-5"/>
      <point x="307" y="-5" type="curve" smooth="yes"/>
      <point x="311" y="-5" type="line" smooth="yes"/>
      <point x="396" y="-5"/>
      <point x="472" y="30"/>
      <point x="517" y="94" type="curve" smooth="yes"/>
      <point x="524" y="104"/>
      <point x="528" y="116"/>
      <point x="528" y="129" type="curve" smooth="yes"/>
      <point x="528" y="162"/>
      <point x="501" y="189"/>
      <point x="468" y="189" type="curve" smooth="yes"/>
      <point x="448" y="189"/>
      <point x="430" y="179"/>
      <point x="419" y="164" type="curve" smooth="yes"/>
      <point x="394" y="128"/>
      <point x="348" y="115"/>
      <point x="311" y="115" type="curve" smooth="yes"/>
      <point x="307" y="115" type="line" smooth="yes"/>
      <point x="217" y="115"/>
      <point x="170" y="162"/>
      <point x="170" y="270" type="curve" smooth="yes"/>
      <point x="170" y="322" type="line" smooth="yes"/>
      <point x="170" y="431"/>
      <point x="217" y="477"/>
      <point x="307" y="477" type="curve" smooth="yes"/>
      <point x="311" y="477" type="line" smooth="yes"/>
      <point x="357" y="477"/>
      <point x="397" y="466"/>
      <point x="415" y="429" type="curve" smooth="yes"/>
      <point x="424" y="408"/>
      <point x="445" y="394"/>
      <point x="469" y="394" type="curve" smooth="yes"/>
      <point x="502" y="394"/>
      <point x="529" y="421"/>
      <point x="529" y="454" type="curve" smooth="yes"/>
      <point x="529" y="463"/>
      <point x="527" y="472"/>
    </contour>
    <contour>
      <point x="170" y="437" type="curve"/>
      <point x="83.509" y="304.458" type="line"/>
      <point x="125.266" y="225.526"/>
      <point x="207.887" y="176"/>
      <point x="307" y="176" type="curve" smooth="yes"/>
      <point x="311" y="176" type="line" smooth="yes"/>
      <point x="395" y="176"/>
      <point x="471" y="210"/>
      <point x="517" y="274" type="curve" smooth="yes"/>
      <point x="524" y="284"/>
      <point x="528" y="296"/>
      <point x="528" y="309" type="curve" smooth="yes"/>
      <point x="528" y="342"/>
      <point x="501" y="369"/>
      <point x="468" y="369" type="curve" smooth="yes"/>
      <point x="448" y="369"/>
      <point x="430" y="359"/>
      <point x="419" y="344" type="curve" smooth="yes"/>
      <point x="394" y="308"/>
      <point x="348" y="296"/>
      <point x="311" y="296" type="curve" smooth="yes"/>
      <point x="307" y="296" type="line" smooth="yes"/>
      <point x="222" y="296"/>
      <point x="175" y="340"/>
    </contour>
  </outline>
</glyph>
<glyph name="d" format="2">
  <advance width="627"/>
  <unicode hex="0064"/>
  <anchor x="314" y="0" name="bottom"/>
  <anchor x="314" y="285" name="center"/>
  <anchor x="314" y="800" name="top"/>
  <anchor x="561" y="800" name="topright"/>
  <outline>
    <contour>
      <point x="50" y="269" type="line" smooth="yes"/>
      <point x="50" y="106"/>
      <point x="151" y="-5"/>
      <point x="302" y="-5" type="curve" smooth="yes"/>
      <point x="316" y="-5" type="line" smooth="yes"/>
      <point x="467" y="-5"/>
      <point x="568" y="106"/>
      <point x="568" y="269" type="curve" smooth="yes"/>
      <point x="568" y="321" type="line" smooth="yes"/>
      <point x="568" y="485"/>
      <point x="467" y="596"/>
      <point x="316" y="596" type="curve" smooth="yes"/>
      <point x="302" y="596" type="line" smooth="yes"/>
      <point x="151" y="596"/>
      <point x="50" y="485"/>
      <point x="50" y="321" type="curve" smooth="yes"/>
    </contour>
    <contour>
      <point x="170" y="269" type="curve" smooth="yes"/>
      <point x="170" y="321" type="line" smooth="yes"/>
      <point x="170" y="430"/>
      <point x="212" y="476"/>
      <point x="302" y="476" type="curve" smooth="yes"/>
      <point x="316" y="476" type="line" smooth="yes"/>
      <point x="406" y="476"/>
      <point x="448" y="430"/>
      <point x="448" y="321" type="curve" smooth="yes"/>
      <point x="448" y="269" type="line" smooth="yes"/>
      <point x="448" y="161"/>
      <point x="406" y="114"/>
      <point x="316" y="114" type="curve" smooth="yes"/>
      <point x="302" y="114" type="line" smooth="yes"/>
      <point x="212" y="114"/>
      <point x="170" y="161"/>
    </contour>
    <contour>
      <point x="568" y="60" type="curve" smooth="yes"/>
      <point x="568" y="687" type="line" smooth="yes"/>
      <point x="568" y="720"/>
      <point x="541" y="747"/>
      <point x="508" y="747" type="curve" smooth="yes"/>
      <point x="475" y="747"/>
      <point x="448" y="720"/>
      <point x="448" y="687" type="curve" smooth="yes"/>
      <point x="448" y="60" type="line" smooth="yes"/>
      <point x="448" y="27"/>
      <point x="475" y="0"/>
      <point x="508" y="0" type="curve" smooth="yes"/>
      <point x="541" y="0"/>
      <point x="568" y="27"/>
    </contour>
    <contour>
      <point x="395" y="67" type="curve" smooth="yes"/>
      <point x="395" y="529" type="line" smooth="yes"/>
      <point x="395" y="562"/>
      <point x="368" y="589"/>
      <point x="335" y="589" type="curve" smooth="yes"/>
      <point x="302" y="589"/>
      <point x="275" y="562"/>
      <point x="275" y="529" type="curve" smooth="yes"/>
      <point x="275" y="67" type="line" smooth="yes"/>
      <point x="275" y="34"/>
      <point x="302" y="7"/>
      <point x="335" y="7" type="curve" smooth="yes"/>
      <point x="368" y="7"/>
      <point x="395" y="34"/>
    </contour>
  </outline>
</glyph>
<glyph name="e" format="2">
  <advance width="591.66"/>
  <unicode hex="0065"/>
  <anchor x="296" y="0" name="bottom"/>
  <anchor x="324.116" y="40" name="ogonek"/>
  <anchor x="296" y="570" name="top"/>
  <outline>
    <contour>
      <point x="110" y="261" type="curve" smooth="yes"/>
      <point x="490.41" y="261" type="line" smooth="yes"/>
      <point x="528.778" y="261"/>
      <point x="551.776" y="281.581"/>
      <point x="551.661" y="320.784" type="curve" smooth="yes"/>
      <point x="551.139" y="498.852"/>
      <point x="468.214" y="596"/>
      <point x="311" y="596" type="curve" smooth="yes"/>
      <point x="307" y="596" type="line" smooth="yes"/>
      <point x="156" y="596"/>
      <point x="50" y="485"/>
      <point x="50" y="321" type="curve" smooth="yes"/>
      <point x="50" y="270" type="line" smooth="yes"/>
      <point x="50" y="107"/>
      <point x="156" y="-5"/>
      <point x="307" y="-5" type="curve" smooth="yes"/>
      <point x="311" y="-5" type="line" smooth="yes"/>
      <point x="396" y="-5"/>
      <point x="472" y="30"/>
      <point x="517" y="94" type="curve" smooth="yes"/>
      <point x="524" y="104"/>
      <point x="528" y="116"/>
      <point x="528" y="129" type="curve" smooth="yes"/>
      <point x="528" y="162"/>
      <point x="501" y="189"/>
      <point x="468" y="189" type="curve" smooth="yes"/>
      <point x="448" y="189"/>
      <point x="430" y="179"/>
      <point x="419" y="164" type="curve" smooth="yes"/>
      <point x="394" y="128"/>
      <point x="363" y="115"/>
      <point x="311" y="115" type="curve" smooth="yes"/>
      <point x="307" y="115" type="line" smooth="yes"/>
      <point x="217" y="115"/>
      <point x="170" y="162"/>
      <point x="170" y="270" type="curve" smooth="yes"/>
      <point x="170" y="321" type="line" smooth="yes"/>
      <point x="170" y="430"/>
      <point x="217" y="476"/>
      <point x="307" y="476" type="curve" smooth="yes"/>
      <point x="311" y="476" type="line" smooth="yes"/>
      <point x="372" y="476"/>
      <point x="421" y="442"/>
      <point x="429" y="381" type="curve"/>
      <point x="110" y="381" type="line" smooth="yes"/>
      <point x="77" y="381"/>
      <point x="50" y="354"/>
      <point x="50" y="321" type="curve" smooth="yes"/>
      <point x="50" y="288"/>
      <point x="77" y="261"/>
    </contour>
    <contour>
      <point x="387.95" y="370.857" type="curve"/>
      <point x="387.95" y="509.568" type="line"/>
      <point x="387.95" y="542.705"/>
      <point x="361.087" y="569.568"/>
      <point x="327.95" y="569.568" type="curve" smooth="yes"/>
      <point x="294.813" y="569.568"/>
      <point x="267.95" y="542.705"/>
      <point x="267.95" y="509.568" type="curve"/>
      <point x="267.95" y="370.857" type="line"/>
      <point x="267.95" y="337.72"/>
      <point x="294.813" y="310.857"/>
      <point x="327.95" y="310.857" type="curve" smooth="yes"/>
      <point x="361.087" y="310.857"/>
      <point x="387.95" y="337.72"/>
    </contour>
  </outline>
</glyph>
<glyph name="f" format="2">
  <advance width="452"/>
  <unicode hex="0066"/>
  <anchor x="224" y="0" name="bottom"/>
  <anchor x="224" y="800" name="top"/>
  <outline>
    <contour>
      <point x="247" y="60" type="curve" smooth="yes"/>
      <point x="247" y="525" type="line" smooth="yes"/>
      <point x="247" y="610"/>
      <point x="284" y="627"/>
      <point x="379" y="627" type="curve" smooth="yes"/>
      <point x="392" y="627" type="line" smooth="yes"/>
      <point x="405" y="627"/>
      <point x="416" y="626"/>
      <point x="430" y="623" type="curve" smooth="yes"/>
      <point x="464" y="617"/>
      <point x="501" y="642"/>
      <point x="501" y="682" type="curve" smooth="yes"/>
      <point x="501" y="711"/>
      <point x="480" y="736"/>
      <point x="452" y="741" type="curve" smooth="yes"/>
      <point x="434" y="744"/>
      <point x="413" y="747"/>
      <point x="392" y="747" type="curve" smooth="yes"/>
      <point x="379" y="747" type="line" smooth="yes"/>
      <point x="249" y="747"/>
      <point x="127" y="691"/>
      <point x="127" y="525" type="curve" smooth="yes"/>
      <point x="127" y="60" type="line" smooth="yes"/>
      <point x="127" y="27"/>
      <point x="154" y="0"/>
      <point x="187" y="0" type="curve" smooth="yes"/>
      <point x="220" y="0"/>
      <point x="247" y="27"/>
    </contour>
    <contour>
      <point x="80" y="472" type="curve" smooth="yes"/>
      <point x="377" y="472" type="line" smooth="yes"/>
      <point x="410" y="472"/>
      <point x="437" y="499"/>
      <point x="437" y="532" type="curve" smooth="yes"/>
      <point x="437" y="565"/>
      <point x="410" y="592"/>
      <point x="377" y="592" type="curve" smooth="yes"/>
      <point x="80" y="592" type="line" smooth="yes"/>
      <point x="47" y="592"/>
      <point x="20" y="565"/>
      <point x="20" y="532" type="curve" smooth="yes"/>
      <point x="20" y="499"/>
      <point x="47" y="472"/>
    </contour>
    <contour>
      <point x="80" y="311" type="curve" smooth="yes"/>
      <point x="377" y="311" type="line" smooth="yes"/>
      <point x="410" y="311"/>
      <point x="437" y="338"/>
      <point x="437" y="371" type="curve" smooth="yes"/>
      <point x="437" y="404"/>
      <point x="410" y="431"/>
      <point x="377" y="431" type="curve" smooth="yes"/>
      <point x="80" y="431" type="line" smooth="yes"/>
      <point x="47" y="431"/>
      <point x="20" y="404"/>
      <point x="20" y="371" type="curve" smooth="yes"/>
      <point x="20" y="338"/>
      <point x="47" y="311"/>
    </contour>
  </outline>
</glyph>
<glyph name="g" format="2">
  <advance width="628"/>
  <unicode hex="0067"/>
  <anchor x="314" y="-200" name="bottom"/>
  <anchor x="314" y="570" name="top"/>
  <outline>
    <contour>
      <point x="50" y="321" type="curve" smooth="yes"/>
      <point x="50" y="269" type="line" smooth="yes"/>
      <point x="50" y="106"/>
      <point x="151" y="-6"/>
      <point x="302" y="-6" type="curve" smooth="yes"/>
      <point x="316" y="-6" type="line" smooth="yes"/>
      <point x="467" y="-6"/>
      <point x="568" y="106"/>
      <point x="568" y="269" type="curve" smooth="yes"/>
      <point x="568" y="321" type="line" smooth="yes"/>
      <point x="568" y="485"/>
      <point x="467" y="596"/>
      <point x="316" y="596" type="curve" smooth="yes"/>
      <point x="302" y="596" type="line" smooth="yes"/>
      <point x="151" y="596"/>
      <point x="50" y="485"/>
    </contour>
    <contour>
      <point x="170" y="321" type="line" smooth="yes"/>
      <point x="170" y="430"/>
      <point x="212" y="476"/>
      <point x="302" y="476" type="curve" smooth="yes"/>
      <point x="316" y="476" type="line" smooth="yes"/>
      <point x="406" y="476"/>
      <point x="448" y="430"/>
      <point x="448" y="321" type="curve" smooth="yes"/>
      <point x="448" y="269" type="line" smooth="yes"/>
      <point x="448" y="161"/>
      <point x="406" y="114"/>
      <point x="316" y="114" type="curve" smooth="yes"/>
      <point x="302" y="114" type="line" smooth="yes"/>
      <point x="212" y="114"/>
      <point x="170" y="161"/>
      <point x="170" y="269" type="curve" smooth="yes"/>
    </contour>
    <contour>
      <point x="101" y="-94" type="curve" smooth="yes"/>
      <point x="146" y="-160"/>
      <point x="218" y="-194"/>
      <point x="302" y="-194" type="curve" smooth="yes"/>
      <point x="316" y="-194" type="line" smooth="yes"/>
      <point x="446" y="-194"/>
      <point x="568" y="-138"/>
      <point x="568" y="28" type="curve" smooth="yes"/>
      <point x="568" y="532" type="line" smooth="yes"/>
      <point x="568" y="565"/>
      <point x="541" y="592"/>
      <point x="508" y="592" type="curve" smooth="yes"/>
      <point x="475" y="592"/>
      <point x="448" y="565"/>
      <point x="448" y="532" type="curve" smooth="yes"/>
      <point x="448" y="28" type="line" smooth="yes"/>
      <point x="448" y="-57"/>
      <point x="411" y="-74"/>
      <point x="316" y="-74" type="curve" smooth="yes"/>
      <point x="302" y="-74" type="line" smooth="yes"/>
      <point x="250" y="-74"/>
      <point x="224" y="-62"/>
      <point x="199" y="-26" type="curve" smooth="yes"/>
      <point x="188" y="-10"/>
      <point x="170" y="0"/>
      <point x="150" y="0" type="curve" smooth="yes"/>
      <point x="117" y="0"/>
      <point x="90" y="-27"/>
      <point x="90" y="-60" type="curve" smooth="yes"/>
      <point x="90" y="-73"/>
      <point x="94" y="-85"/>
    </contour>
    <contour>
      <point x="395" y="-128" type="curve" smooth="yes"/>
      <point x="395" y="35" type="line" smooth="yes"/>
      <point x="395" y="68"/>
      <point x="368" y="95"/>
      <point x="335" y="95" type="curve" smooth="yes"/>
      <point x="302" y="95"/>
      <point x="275" y="68"/>
      <point x="275" y="35" type="curve" smooth="yes"/>
      <point x="275" y="-128" type="line" smooth="yes"/>
      <point x="275" y="-161"/>
      <point x="302" y="-188"/>
      <point x="335" y="-188" type="curve" smooth="yes"/>
      <point x="368" y="-188"/>
      <point x="395" y="-161"/>
    </contour>
  </outline>
</glyph>
<glyph name="m" format="2">
  <advance width="927"/>
  <unicode hex="006D"/>
  <anchor x="468" y="0" name="bottom"/>
  <anchor x="468" y="570" name="top"/>
  <outline>
    <contour>
      <point x="180" y="59" type="curve" smooth="yes"/>
      <point x="180" y="532" type="line" smooth="yes"/>
      <point x="180" y="565"/>
      <point x="153" y="592"/>
      <point x="120" y="592" type="curve" smooth="yes"/>
      <point x="87" y="592"/>
      <point x="60" y="565"/>
      <point x="60" y="532" type="curve" smooth="yes"/>
      <point x="60" y="59" type="line" smooth="yes"/>
      <point x="60" y="26"/>
      <point x="87" y="-1"/>
      <point x="120" y="-1" type="curve" smooth="yes"/>
      <point x="153" y="-1"/>
      <point x="180" y="26"/>
    </contour>
    <contour>
      <point x="467" y="387" type="curve" smooth="yes"/>
      <point x="125" y="387" type="line" smooth="yes"/>
      <point x="92" y="387"/>
      <point x="65" y="360"/>
      <point x="65" y="327" type="curve" smooth="yes"/>
      <point x="65" y="294"/>
      <point x="92" y="267"/>
      <point x="125" y="267" type="curve" smooth="yes"/>
      <point x="467" y="267" type="line" smooth="yes"/>
      <point x="500" y="267"/>
      <point x="527" y="294"/>
      <point x="527" y="327" type="curve" smooth="yes"/>
      <point x="527" y="360"/>
      <point x="500" y="387"/>
    </contour>
    <contour>
      <point x="528" y="59" type="curve" smooth="yes"/>
      <point x="528" y="321" type="line" smooth="yes"/>
      <point x="528" y="423"/>
      <point x="579" y="476"/>
      <point x="657" y="476" type="curve" smooth="yes"/>
      <point x="666" y="476" type="line" smooth="yes"/>
      <point x="703" y="476"/>
      <point x="755.824" y="460"/>
      <point x="756" y="400" type="curve" smooth="yes"/>
      <point x="757" y="59" type="line" smooth="yes"/>
      <point x="757.097" y="26"/>
      <point x="784" y="-1"/>
      <point x="817" y="-1" type="curve" smooth="yes"/>
      <point x="850" y="-1"/>
      <point x="877.097" y="26"/>
      <point x="877" y="59" type="curve" smooth="yes"/>
      <point x="876" y="400" type="line" smooth="yes"/>
      <point x="875.648" y="520"/>
      <point x="794" y="596"/>
      <point x="671" y="596" type="curve" smooth="yes"/>
      <point x="657" y="596" type="line" smooth="yes"/>
      <point x="519" y="596"/>
      <point x="408" y="479"/>
      <point x="408" y="321" type="curve" smooth="yes"/>
      <point x="408" y="59" type="line" smooth="yes"/>
      <point x="408" y="26"/>
      <point x="435" y="-1"/>
      <point x="468" y="-1" type="curve" smooth="yes"/>
      <point x="501" y="-1"/>
      <point x="528" y="26"/>
    </contour>
    <contour>
      <point x="816" y="387" type="curve" smooth="yes"/>
      <point x="473" y="387" type="line" smooth="yes"/>
      <point x="440" y="387"/>
      <point x="413" y="360"/>
      <point x="413" y="327" type="curve" smooth="yes"/>
      <point x="413" y="294"/>
      <point x="440" y="267"/>
      <point x="473" y="267" type="curve" smooth="yes"/>
      <point x="816" y="267" type="line" smooth="yes"/>
      <point x="849" y="267"/>
      <point x="876" y="294"/>
      <point x="876" y="327" type="curve" smooth="yes"/>
      <point x="876" y="360"/>
      <point x="849" y="387"/>
    </contour>
    <contour>
      <point x="180" y="321" type="curve" smooth="yes"/>
      <point x="180" y="423"/>
      <point x="231" y="476"/>
      <point x="309" y="476" type="curve" smooth="yes"/>
      <point x="317" y="476" type="line" smooth="yes"/>
      <point x="355" y="476"/>
      <point x="406.824" y="460"/>
      <point x="407" y="400" type="curve" smooth="yes"/>
      <point x="408" y="59" type="line" smooth="yes"/>
      <point x="408.097" y="26"/>
      <point x="435" y="-1"/>
      <point x="468" y="-1" type="curve" smooth="yes"/>
      <point x="501" y="-1"/>
      <point x="528.097" y="26"/>
      <point x="528" y="59" type="curve" smooth="yes"/>
      <point x="527" y="400" type="line" smooth="yes"/>
      <point x="526.648" y="520"/>
      <point x="446" y="596"/>
      <point x="322" y="596" type="curve" smooth="yes"/>
      <point x="309" y="596" type="line" smooth="yes"/>
      <point x="171" y="596"/>
      <point x="60" y="479"/>
      <point x="60" y="321" type="curve" smooth="yes"/>
      <point x="60" y="288"/>
      <point x="87" y="261"/>
      <point x="120" y="261" type="curve" smooth="yes"/>
      <point x="153" y="261"/>
      <point x="180" y="288"/>
    </contour>
  </outline>
</glyph>
<glyph name="n" format="2">
  <advance width="594"/>
  <unicode hex="006E"/>
  <anchor x="302" y="0" name="bottom"/>
  <anchor x="302" y="570" name="top"/>
  <outline>
    <contour>
      <point x="180" y="59" type="curve" smooth="yes"/>
      <point x="180" y="532" type="line" smooth="yes"/>
      <point x="180" y="565"/>
      <point x="153" y="592"/>
      <point x="120" y="592" type="curve" smooth="yes"/>
      <point x="87" y="592"/>
      <point x="60" y="565"/>
      <point x="60" y="532" type="curve" smooth="yes"/>
      <point x="60" y="59" type="line" smooth="yes"/>
      <point x="60" y="26"/>
      <point x="87" y="-1"/>
      <point x="120" y="-1" type="curve" smooth="yes"/>
      <point x="153" y="-1"/>
      <point x="180" y="26"/>
    </contour>
    <contour>
      <point x="180" y="321" type="curve" smooth="yes"/>
      <point x="180" y="423"/>
      <point x="231" y="476"/>
      <point x="324" y="476" type="curve" smooth="yes"/>
      <point x="333" y="476" type="line" smooth="yes"/>
      <point x="370" y="476"/>
      <point x="422.824" y="460"/>
      <point x="423" y="400" type="curve" smooth="yes"/>
      <point x="424" y="59" type="line" smooth="yes"/>
      <point x="424.097" y="26"/>
      <point x="451" y="-1"/>
      <point x="484" y="-1" type="curve" smooth="yes"/>
      <point x="517" y="-1"/>
      <point x="544.097" y="26"/>
      <point x="544" y="59" type="curve" smooth="yes"/>
      <point x="543" y="400" type="line" smooth="yes"/>
      <point x="542.648" y="520"/>
      <point x="461" y="596"/>
      <point x="338" y="596" type="curve" smooth="yes"/>
      <point x="324" y="596" type="line" smooth="yes"/>
      <point x="171" y="596"/>
      <point x="60" y="479"/>
      <point x="60" y="321" type="curve" smooth="yes"/>
      <point x="60" y="288"/>
      <point x="87" y="261"/>
      <point x="120" y="261" type="curve" smooth="yes"/>
      <point x="153" y="261"/>
      <point x="180" y="288"/>
    </contour>
    <contour>
      <point x="483" y="387" type="curve" smooth="yes"/>
      <point x="125" y="387" type="line" smooth="yes"/>
      <point x="92" y="387"/>
      <point x="65" y="360"/>
      <point x="65" y="327" type="curve" smooth="yes"/>
      <point x="65" y="294"/>
      <point x="92" y="267"/>
      <point x="125" y="267" type="curve" smooth="yes"/>
      <point x="483" y="267" type="line" smooth="yes"/>
      <point x="516" y="267"/>
      <point x="543" y="294"/>
      <point x="543" y="327" type="curve" smooth="yes"/>
      <point x="543" y="360"/>
      <point x="516" y="387"/>
    </contour>
  </outline>
</glyph>
<glyph name="o" format="2">
  <advance width="618"/>
  <unicode hex="006F"/>
  <anchor x="309" y="0" name="bottom"/>
  <anchor x="309" y="285" name="center"/>
  <anchor x="321.583" y="35.935" name="ogonek"/>
  <anchor x="309" y="570" name="top"/>
  <anchor x="551" y="570" name="topright"/>
  <outline>
    <contour>
      <point x="50" y="321" type="curve" smooth="yes"/>
      <point x="50" y="269" type="line" smooth="yes"/>
      <point x="50" y="113"/>
      <point x="144" y="-6"/>
      <point x="302" y="-6" type="curve" smooth="yes"/>
      <point x="316" y="-6" type="line" smooth="yes"/>
      <point x="474" y="-6"/>
      <point x="568" y="113"/>
      <point x="568" y="269" type="curve" smooth="yes"/>
      <point x="568" y="321" type="line" smooth="yes"/>
      <point x="568" y="477"/>
      <point x="475" y="596"/>
      <point x="316" y="596" type="curve" smooth="yes"/>
      <point x="302" y="596" type="line" smooth="yes"/>
      <point x="143" y="596"/>
      <point x="50" y="477"/>
    </contour>
    <contour>
      <point x="170" y="321" type="line" smooth="yes"/>
      <point x="170" y="426"/>
      <point x="208" y="476"/>
      <point x="302" y="476" type="curve" smooth="yes"/>
      <point x="316" y="476" type="line" smooth="yes"/>
      <point x="410" y="476"/>
      <point x="448" y="426"/>
      <point x="448" y="321" type="curve" smooth="yes"/>
      <point x="448" y="269" type="line" smooth="yes"/>
      <point x="448" y="164"/>
      <point x="409" y="114"/>
      <point x="316" y="114" type="curve" smooth="yes"/>
      <point x="302" y="114" type="line" smooth="yes"/>
      <point x="209" y="114"/>
      <point x="170" y="164"/>
      <point x="170" y="269" type="curve" smooth="yes"/>
    </contour>
    <contour>
      <point x="193" y="473" type="line"/>
      <point x="262" y="463"/>
      <point x="291" y="417"/>
      <point x="291" y="321" type="curve" smooth="yes"/>
      <point x="291" y="269" type="line" smooth="yes"/>
      <point x="291" y="174"/>
      <point x="262" y="127"/>
      <point x="194" y="117" type="curve"/>
      <point x="321.583" y="47.536" type="line"/>
      <point x="380.043" y="97.229"/>
      <point x="411" y="178.537"/>
      <point x="411" y="269" type="curve" smooth="yes"/>
      <point x="411" y="321" type="line" smooth="yes"/>
      <point x="411" y="417.431"/>
      <point x="376.332" y="502.631"/>
      <point x="310.749" y="551.01" type="curve"/>
    </contour>
  </outline>
</glyph>
<glyph name="r" format="2">
  <advance width="497"/>
  <unicode hex="0072"/>
  <anchor x="120" y="-1" name="bottom"/>
  <anchor x="243" y="570" name="top"/>
  <outline>
    <contour>
      <point x="180" y="59" type="curve" smooth="yes"/>
      <point x="180" y="532" type="line" smooth="yes"/>
      <point x="180" y="565"/>
      <point x="153" y="592"/>
      <point x="120" y="592" type="curve" smooth="yes"/>
      <point x="87" y="592"/>
      <point x="60" y="565"/>
      <point x="60" y="532" type="curve" smooth="yes"/>
      <point x="60" y="59" type="line" smooth="yes"/>
      <point x="60" y="26"/>
      <point x="87" y="-1"/>
      <point x="120" y="-1" type="curve" smooth="yes"/>
      <point x="153" y="-1"/>
      <point x="180" y="26"/>
    </contour>
    <contour>
      <point x="180" y="321" type="curve" smooth="yes"/>
      <point x="180" y="423"/>
      <point x="231" y="476"/>
      <point x="324" y="476" type="curve" smooth="yes"/>
      <point x="338" y="476" type="line" smooth="yes"/>
      <point x="375.4" y="476"/>
      <point x="389.8" y="464"/>
      <point x="407" y="464" type="curve" smooth="yes"/>
      <point x="440" y="464"/>
      <point x="467" y="491"/>
      <point x="467" y="524" type="curve" smooth="yes"/>
      <point x="467" y="549"/>
      <point x="451" y="571"/>
      <point x="429" y="580" type="curve" smooth="yes"/>
      <point x="402" y="590"/>
      <point x="370" y="596"/>
      <point x="338" y="596" type="curve" smooth="yes"/>
      <point x="324" y="596" type="line" smooth="yes"/>
      <point x="171" y="596"/>
      <point x="60" y="479"/>
      <point x="60" y="321" type="curve" smooth="yes"/>
      <point x="60" y="288"/>
      <point x="87" y="261"/>
      <point x="120" y="261" type="curve" smooth="yes"/>
      <point x="153" y="261"/>
      <point x="180" y="288"/>
    </contour>
    <contour>
      <point x="180" y="146" type="curve" smooth="yes"/>
      <point x="180" y="247"/>
      <point x="231" y="300"/>
      <point x="324" y="300" type="curve" smooth="yes"/>
      <point x="338" y="300" type="line" smooth="yes"/>
      <point x="375.4" y="300"/>
      <point x="389.8" y="288"/>
      <point x="407" y="288" type="curve" smooth="yes"/>
      <point x="440" y="288"/>
      <point x="467" y="315"/>
      <point x="467" y="348" type="curve" smooth="yes"/>
      <point x="467" y="373"/>
      <point x="451" y="395"/>
      <point x="429" y="404" type="curve" smooth="yes"/>
      <point x="402" y="414"/>
      <point x="370" y="420"/>
      <point x="338" y="420" type="curve" smooth="yes"/>
      <point x="324" y="420" type="line" smooth="yes"/>
      <point x="171" y="420"/>
      <point x="60" y="303"/>
      <point x="60" y="146" type="curve" smooth="yes"/>
      <point x="60" y="113"/>
      <point x="87" y="86"/>
      <point x="120" y="86" type="curve" smooth="yes"/>
      <point x="153" y="86"/>
      <point x="180" y="113"/>
    </contour>
  </outline>
</glyph>
<glyph name="s" format="2">
  <advance width="512"/>
  <unicode hex="0073"/>
  <anchor x="251" y="0" name="bottom"/>
  <anchor x="251" y="570" name="top"/>
  <outline>
    <contour>
      <point x="343" y="520" type="curve" smooth="yes"/>
      <point x="49" y="155" type="line" smooth="yes"/>
      <point x="41" y="144"/>
      <point x="36" y="131"/>
      <point x="36" y="117" type="curve" smooth="yes"/>
      <point x="36" y="84"/>
      <point x="63" y="57"/>
      <point x="96" y="57" type="curve" smooth="yes"/>
      <point x="115" y="57"/>
      <point x="132" y="66"/>
      <point x="143" y="79" type="curve" smooth="yes"/>
      <point x="437" y="444" type="line" smooth="yes"/>
      <point x="445" y="455"/>
      <point x="450" y="468"/>
      <point x="450" y="482" type="curve" smooth="yes"/>
      <point x="450" y="515"/>
      <point x="423" y="542"/>
      <point x="390" y="542" type="curve" smooth="yes"/>
      <point x="371" y="542"/>
      <point x="354" y="533"/>
    </contour>
    <contour>
      <point x="47" y="80" type="curve" smooth="yes"/>
      <point x="87" y="27"/>
      <point x="163" y="-6"/>
      <point x="245" y="-6" type="curve" smooth="yes"/>
      <point x="382" y="-6"/>
      <point x="477" y="64"/>
      <point x="477" y="171" type="curve" smooth="yes"/>
      <point x="477" y="281"/>
      <point x="381" y="322"/>
      <point x="274" y="358" type="curve" smooth="yes"/>
      <point x="197" y="383"/>
      <point x="163" y="395"/>
      <point x="163" y="419" type="curve" smooth="yes"/>
      <point x="163" y="457"/>
      <point x="192" y="472"/>
      <point x="253" y="472" type="curve" smooth="yes"/>
      <point x="298" y="472"/>
      <point x="326" y="461"/>
      <point x="348" y="440" type="curve" smooth="yes"/>
      <point x="358" y="429"/>
      <point x="373" y="422"/>
      <point x="390" y="422" type="curve" smooth="yes"/>
      <point x="423" y="422"/>
      <point x="450" y="449"/>
      <point x="450" y="482" type="curve" smooth="yes"/>
      <point x="450" y="499"/>
      <point x="443" y="514"/>
      <point x="432" y="524" type="curve" smooth="yes"/>
      <point x="391" y="566"/>
      <point x="324" y="592"/>
      <point x="253" y="592" type="curve" smooth="yes"/>
      <point x="139" y="592"/>
      <point x="43" y="526"/>
      <point x="43" y="419" type="curve" smooth="yes"/>
      <point x="43" y="317"/>
      <point x="133" y="278"/>
      <point x="237" y="244" type="curve" smooth="yes"/>
      <point x="317" y="217"/>
      <point x="357" y="204"/>
      <point x="357" y="171" type="curve" smooth="yes"/>
      <point x="357" y="130"/>
      <point x="325" y="114"/>
      <point x="245" y="114" type="curve" smooth="yes"/>
      <point x="193" y="114"/>
      <point x="161" y="128"/>
      <point x="143" y="152" type="curve" smooth="yes"/>
      <point x="132" y="167"/>
      <point x="115" y="176"/>
      <point x="95" y="176" type="curve" smooth="yes"/>
      <point x="62" y="176"/>
      <point x="35" y="149"/>
      <point x="35" y="116" type="curve" smooth="yes"/>
      <point x="35" y="102"/>
      <point x="40" y="90"/>
    </contour>
  </outline>
</glyph>
<glyph name="t" format="2">
  <advance width="475"/>
  <unicode hex="0074"/>
  <anchor x="277" y="0" name="bottom"/>
  <anchor x="197" y="644.041" name="top"/>
  <anchor x="406" y="800" name="topright"/>
  <outline>
    <contour>
      <point x="346" y="146" type="curve" smooth="yes"/>
      <point x="328" y="121"/>
      <point x="306.431" y="114"/>
      <point x="285" y="114" type="curve" smooth="yes"/>
      <point x="277" y="114" type="line" smooth="yes"/>
      <point x="254.996" y="114"/>
      <point x="246.92" y="132.721"/>
      <point x="247" y="173.721" type="curve" smooth="yes"/>
      <point x="248" y="687" type="line" smooth="yes"/>
      <point x="248.063" y="720"/>
      <point x="221" y="747"/>
      <point x="188" y="747" type="curve" smooth="yes"/>
      <point x="155" y="747"/>
      <point x="128.062" y="720"/>
      <point x="128" y="687" type="curve" smooth="yes"/>
      <point x="127" y="155" type="line" smooth="yes"/>
      <point x="126.797" y="47"/>
      <point x="196" y="-6"/>
      <point x="277" y="-6" type="curve" smooth="yes"/>
      <point x="285" y="-6" type="line" smooth="yes"/>
      <point x="354" y="-6"/>
      <point x="409" y="27"/>
      <point x="444" y="78" type="curve" smooth="yes"/>
      <point x="451" y="87"/>
      <point x="455" y="99"/>
      <point x="455" y="112" type="curve" smooth="yes"/>
      <point x="455" y="145"/>
      <point x="428" y="172"/>
      <point x="395" y="172" type="curve" smooth="yes"/>
      <point x="375" y="172"/>
      <point x="357" y="162"/>
    </contour>
    <contour>
      <point x="80" y="472" type="curve" smooth="yes"/>
      <point x="377" y="472" type="line" smooth="yes"/>
      <point x="410" y="472"/>
      <point x="437" y="499"/>
      <point x="437" y="532" type="curve" smooth="yes"/>
      <point x="437" y="565"/>
      <point x="410" y="592"/>
      <point x="377" y="592" type="curve" smooth="yes"/>
      <point x="80" y="592" type="line" smooth="yes"/>
      <point x="47" y="592"/>
      <point x="20" y="565"/>
      <point x="20" y="532" type="curve" smooth="yes"/>
      <point x="20" y="499"/>
      <point x="47" y="472"/>
    </contour>
    <contour>
      <point x="80" y="296" type="curve" smooth="yes"/>
      <point x="377" y="296" type="line" smooth="yes"/>
      <point x="410" y="296"/>
      <point x="437" y="323"/>
      <point x="437" y="356" type="curve" smooth="yes"/>
      <point x="437" y="389"/>
      <point x="410" y="416"/>
      <point x="377" y="416" type="curve" smooth="yes"/>
      <point x="80" y="416" type="line" smooth="yes"/>
      <point x="47" y="416"/>
      <point x="20" y="389"/>
      <point x="20" y="356" type="curve" smooth="yes"/>
      <point x="20" y="323"/>
      <point x="47" y="296"/>
    </contour>
  </outline>
</glyph>
<glyph name="u" format="2">
  <advance width="604"/>
  <unicode hex="0075"/>
  <anchor x="302" y="0" name="bottom"/>
  <anchor x="488.063" y="54.13" name="ogonek"/>
  <anchor x="302" y="570" name="top"/>
  <anchor x="537" y="570" name="topright"/>
  <outline>
    <contour>
      <point x="544" y="59" type="curve" smooth="yes"/>
      <point x="544" y="532" type="line" smooth="yes"/>
      <point x="544" y="565"/>
      <point x="517" y="592"/>
      <point x="484" y="592" type="curve" smooth="yes"/>
      <point x="451" y="592"/>
      <point x="424" y="565"/>
      <point x="424" y="532" type="curve" smooth="yes"/>
      <point x="424" y="59" type="line" smooth="yes"/>
      <point x="424" y="26"/>
      <point x="451" y="-1"/>
      <point x="484" y="-1" type="curve" smooth="yes"/>
      <point x="517" y="-1"/>
      <point x="544" y="26"/>
    </contour>
    <contour>
      <point x="424" y="269" type="curve" smooth="yes"/>
      <point x="424" y="168"/>
      <point x="373" y="114"/>
      <point x="279" y="114" type="curve" smooth="yes"/>
      <point x="265" y="114" type="line" smooth="yes"/>
      <point x="198" y="114"/>
      <point x="181.175" y="130"/>
      <point x="181" y="190" type="curve" smooth="yes"/>
      <point x="180" y="532" type="line" smooth="yes"/>
      <point x="179.904" y="565"/>
      <point x="153" y="592"/>
      <point x="120" y="592" type="curve" smooth="yes"/>
      <point x="87" y="592"/>
      <point x="59.904" y="565"/>
      <point x="60" y="532" type="curve" smooth="yes"/>
      <point x="61" y="190" type="line" smooth="yes"/>
      <point x="61.351" y="70"/>
      <point x="142" y="-6"/>
      <point x="265" y="-6" type="curve" smooth="yes"/>
      <point x="279" y="-6" type="line" smooth="yes"/>
      <point x="433" y="-6"/>
      <point x="544" y="112"/>
      <point x="544" y="269" type="curve" smooth="yes"/>
      <point x="544" y="302"/>
      <point x="517" y="329"/>
      <point x="484" y="329" type="curve" smooth="yes"/>
      <point x="451" y="329"/>
      <point x="424" y="302"/>
    </contour>
    <contour>
      <point x="121" y="158" type="curve" smooth="yes"/>
      <point x="479" y="158" type="line" smooth="yes"/>
      <point x="512" y="158"/>
      <point x="539" y="185"/>
      <point x="539" y="218" type="curve" smooth="yes"/>
      <point x="539" y="251"/>
      <point x="512" y="278"/>
      <point x="479" y="278" type="curve" smooth="yes"/>
      <point x="121" y="278" type="line" smooth="yes"/>
      <point x="88" y="278"/>
      <point x="61" y="251"/>
      <point x="61" y="218" type="curve" smooth="yes"/>
      <point x="61" y="185"/>
      <point x="88" y="158"/>
    </contour>
  </outline>
</glyph>
<glyph name="v" format="2">
  <advance width="565"/>
  <unicode hex="0076"/>
  <anchor x="282" y="0" name="bottom"/>
  <anchor x="282" y="570" name="top"/>
  <outline>
    <contour>
      <point x="430" y="556" type="curve" smooth="yes"/>
      <point x="282" y="211" type="line"/>
      <point x="135" y="556" type="line" smooth="yes"/>
      <point x="126.044" y="577.019"/>
      <point x="105" y="592"/>
      <point x="80" y="592" type="curve" smooth="yes"/>
      <point x="47" y="592"/>
      <point x="20" y="565"/>
      <point x="20" y="532" type="curve" smooth="yes"/>
      <point x="20" y="524"/>
      <point x="21.641" y="515.856"/>
      <point x="25" y="508" type="curve" smooth="yes"/>
      <point x="215.852" y="61.688" type="line" smooth="yes"/>
      <point x="250.386" y="-19.071"/>
      <point x="313.718" y="-19.115"/>
      <point x="348.365" y="61.595" type="curve" smooth="yes"/>
      <point x="540" y="508" type="line" smooth="yes"/>
      <point x="543.37" y="515.851"/>
      <point x="545" y="524"/>
      <point x="545" y="532" type="curve" smooth="yes"/>
      <point x="545" y="565"/>
      <point x="518" y="592"/>
      <point x="485" y="592" type="curve" smooth="yes"/>
      <point x="460" y="592"/>
      <point x="439" y="577"/>
    </contour>
    <contour>
      <point x="244" y="258.143" type="curve" smooth="yes"/>
      <point x="354" y="508" type="line" smooth="yes"/>
      <point x="357.069" y="514.97"/>
      <point x="359" y="523"/>
      <point x="359" y="532" type="curve" smooth="yes"/>
      <point x="359" y="565"/>
      <point x="332" y="592"/>
      <point x="299" y="592" type="curve" smooth="yes"/>
      <point x="274" y="592"/>
      <point x="253.206" y="576.911"/>
      <point x="244" y="556" type="curve" smooth="yes"/>
      <point x="134" y="306.143" type="line" smooth="yes"/>
      <point x="130.931" y="299.173"/>
      <point x="129" y="291.143"/>
      <point x="129" y="282.143" type="curve" smooth="yes"/>
      <point x="129" y="249.143"/>
      <point x="156" y="222.143"/>
      <point x="189" y="222.143" type="curve" smooth="yes"/>
      <point x="214" y="222.143"/>
      <point x="234.794" y="237.232"/>
    </contour>
  </outline>
</glyph>
<glyph name="w" format="2">
  <advance width="775.68"/>
  <unicode hex="0077"/>
  <anchor x="387.844" y="0" name="bottom"/>
  <anchor x="396.307" y="570" name="top"/>
  <outline>
    <contour>
      <point x="640.561" y="555.395" type="curve" smooth="yes"/>
      <point x="494.964" y="216.945" type="line"/>
      <point x="349.367" y="555.395" type="line" smooth="yes"/>
      <point x="340.18" y="576.739"/>
      <point x="318.957" y="591.68"/>
      <point x="294.244" y="591.68" type="curve" smooth="yes"/>
      <point x="261.106" y="591.68"/>
      <point x="234.244" y="564.817"/>
      <point x="234.244" y="531.68" type="curve" smooth="yes"/>
      <point x="234.244" y="523.256"/>
      <point x="235.99" y="515.242"/>
      <point x="239.121" y="507.965" type="curve" smooth="yes"/>
      <point x="440.251" y="40.472" type="line" smooth="yes"/>
      <point x="463.015" y="-12.439"/>
      <point x="526.915" y="-12.439"/>
      <point x="549.679" y="40.472" type="curve" smooth="yes"/>
      <point x="750.807" y="507.965" type="line" smooth="yes"/>
      <point x="753.937" y="515.242"/>
      <point x="755.684" y="523.256"/>
      <point x="755.684" y="531.68" type="curve" smooth="yes"/>
      <point x="755.684" y="564.817"/>
      <point x="728.821" y="591.68"/>
      <point x="695.684" y="591.68" type="curve" smooth="yes"/>
      <point x="670.971" y="591.68"/>
      <point x="649.747" y="576.739"/>
    </contour>
    <contour>
      <point x="332.72" y="337.842" type="curve" smooth="yes"/>
      <point x="280.722" y="216.949" type="line"/>
      <point x="135.127" y="555.395" type="line" smooth="yes"/>
      <point x="125.94" y="576.739"/>
      <point x="104.717" y="591.68"/>
      <point x="80.004" y="591.68" type="curve" smooth="yes"/>
      <point x="46.866" y="591.68"/>
      <point x="20.004" y="564.817"/>
      <point x="20.004" y="531.68" type="curve" smooth="yes"/>
      <point x="20.004" y="523.256"/>
      <point x="21.75" y="515.242"/>
      <point x="24.881" y="507.965" type="curve" smooth="yes"/>
      <point x="226.011" y="40.472" type="line" smooth="yes"/>
      <point x="248.775" y="-12.44"/>
      <point x="312.677" y="-12.439"/>
      <point x="335.44" y="40.473" type="curve" smooth="yes"/>
      <point x="442.967" y="290.415" type="line" smooth="yes"/>
      <point x="446.098" y="297.691"/>
      <point x="447.844" y="305.705"/>
      <point x="447.844" y="314.128" type="curve" smooth="yes"/>
      <point x="447.844" y="347.266"/>
      <point x="420.981" y="374.128"/>
      <point x="387.844" y="374.128" type="curve" smooth="yes"/>
      <point x="363.13" y="374.128"/>
      <point x="341.907" y="359.187"/>
    </contour>
    <contour>
      <point x="80.004" y="471.68" type="curve" smooth="yes"/>
      <point x="695.684" y="471.68" type="line" smooth="yes"/>
      <point x="728.821" y="471.68"/>
      <point x="755.684" y="498.543"/>
      <point x="755.684" y="531.68" type="curve" smooth="yes"/>
      <point x="755.684" y="564.817"/>
      <point x="728.821" y="591.68"/>
      <point x="695.684" y="591.68" type="curve" smooth="yes"/>
      <point x="80.004" y="591.68" type="line" smooth="yes"/>
      <point x="46.866" y="591.68"/>
      <point x="20.004" y="564.817"/>
      <point x="20.004" y="531.68" type="curve" smooth="yes"/>
      <point x="20.004" y="498.543"/>
      <point x="46.866" y="471.68"/>
    </contour>
  </outline>
</glyph>
<glyph name="y" format="2">
  <advance width="604"/>
  <unicode hex="0079"/>
  <anchor x="302" y="0" name="bottom"/>
  <anchor x="302" y="570" name="top"/>
  <outline>
    <contour>
      <point x="76" y="-94" type="curve" smooth="yes"/>
      <point x="121" y="-160"/>
      <point x="194" y="-194"/>
      <point x="278" y="-194" type="curve" smooth="yes"/>
      <point x="292" y="-194" type="line" smooth="yes"/>
      <point x="422" y="-194"/>
      <point x="544" y="-138"/>
      <point x="544" y="28" type="curve" smooth="yes"/>
      <point x="544" y="532" type="line" smooth="yes"/>
      <point x="544" y="565"/>
      <point x="517" y="592"/>
      <point x="484" y="592" type="curve" smooth="yes"/>
      <point x="451" y="592"/>
      <point x="424" y="565"/>
      <point x="424" y="532" type="curve" smooth="yes"/>
      <point x="424" y="28" type="line" smooth="yes"/>
      <point x="424" y="-57"/>
      <point x="387" y="-74"/>
      <point x="292" y="-74" type="curve" smooth="yes"/>
      <point x="278" y="-74" type="line" smooth="yes"/>
      <point x="225" y="-74"/>
      <point x="200" y="-62"/>
      <point x="176" y="-26" type="curve" smooth="yes"/>
      <point x="165" y="-11"/>
      <point x="147" y="0"/>
      <point x="126" y="0" type="curve" smooth="yes"/>
      <point x="93" y="0"/>
      <point x="66" y="-27"/>
      <point x="66" y="-60" type="curve" smooth="yes"/>
      <point x="66" y="-72"/>
      <point x="70" y="-84"/>
    </contour>
    <contour>
      <point x="424" y="269" type="curve" smooth="yes"/>
      <point x="424" y="168"/>
      <point x="373" y="114"/>
      <point x="279" y="114" type="curve" smooth="yes"/>
      <point x="265" y="114" type="line" smooth="yes"/>
      <point x="198" y="114"/>
      <point x="181.175" y="130"/>
      <point x="181" y="190" type="curve" smooth="yes"/>
      <point x="180" y="532" type="line" smooth="yes"/>
      <point x="179.904" y="565"/>
      <point x="153" y="592"/>
      <point x="120" y="592" type="curve" smooth="yes"/>
      <point x="87" y="592"/>
      <point x="59.904" y="565"/>
      <point x="60" y="532" type="curve" smooth="yes"/>
      <point x="61" y="190" type="line" smooth="yes"/>
      <point x="61.351" y="70"/>
      <point x="142" y="-6"/>
      <point x="265" y="-6" type="curve" smooth="yes"/>
      <point x="279" y="-6" type="line" smooth="yes"/>
      <point x="433" y="-6"/>
      <point x="544" y="112"/>
      <point x="544" y="269" type="curve" smooth="yes"/>
      <point x="544" y="302"/>
      <point x="517" y="329"/>
      <point x="484" y="329" type="curve" smooth="yes"/>
      <point x="451" y="329"/>
      <point x="424" y="302"/>
    </contour>
    <contour>
      <point x="386" y="-118" type="curve" smooth="yes"/>
      <point x="386" y="48" type="line" smooth="yes"/>
      <point x="386" y="81"/>
      <point x="359" y="108"/>
      <point x="326" y="108" type="curve" smooth="yes"/>
      <point x="293" y="108"/>
      <point x="266" y="81"/>
      <point x="266" y="48" type="curve" smooth="yes"/>
      <point x="266" y="-118" type="line" smooth="yes"/>
      <point x="266" y="-151"/>
      <point x="293" y="-178"/>
      <point x="326" y="-178" type="curve" smooth="yes"/>
      <point x="359" y="-178"/>
      <point x="386" y="-151"/>
    </contour>
  </outline>
</glyph>
<glyph name="z" format="2">
  <advance width="570"/>
  <unicode hex="007A"/>
  <anchor x="285" y="0" name="bottom"/>
  <anchor x="285" y="285" name="center"/>
  <anchor x="285" y="570" name="top"/>
  <outline>
    <contour>
      <point x="473" y="592" type="curve" smooth="yes"/>
      <point x="108" y="592" type="line" smooth="yes"/>
      <point x="75" y="592"/>
      <point x="48" y="565"/>
      <point x="48" y="532" type="curve" smooth="yes"/>
      <point x="48" y="499"/>
      <point x="75" y="472"/>
      <point x="108" y="472" type="curve" smooth="yes"/>
      <point x="473" y="472" type="line" smooth="yes"/>
      <point x="506" y="472"/>
      <point x="533" y="499"/>
      <point x="533" y="532" type="curve" smooth="yes"/>
      <point x="533" y="565"/>
      <point x="506" y="592"/>
    </contour>
    <contour>
      <point x="127" y="242" type="curve" smooth="yes"/>
      <point x="453" y="242" type="line" smooth="yes"/>
      <point x="486" y="242"/>
      <point x="513" y="269"/>
      <point x="513" y="302" type="curve" smooth="yes"/>
      <point x="513" y="335"/>
      <point x="486" y="362"/>
      <point x="453" y="362" type="curve" smooth="yes"/>
      <point x="127" y="362" type="line" smooth="yes"/>
      <point x="94" y="362"/>
      <point x="67" y="335"/>
      <point x="67" y="302" type="curve" smooth="yes"/>
      <point x="67" y="269"/>
      <point x="94" y="242"/>
    </contour>
    <contour>
      <point x="137" y="21" type="curve" smooth="yes"/>
      <point x="520" y="494" type="line" smooth="yes"/>
      <point x="528" y="505"/>
      <point x="533" y="518"/>
      <point x="533" y="532" type="curve" smooth="yes"/>
      <point x="533" y="565"/>
      <point x="506" y="592"/>
      <point x="473" y="592" type="curve" smooth="yes"/>
      <point x="454" y="592"/>
      <point x="437" y="583"/>
      <point x="426" y="570" type="curve" smooth="yes"/>
      <point x="43" y="97" type="line" smooth="yes"/>
      <point x="35" y="86"/>
      <point x="30" y="73"/>
      <point x="30" y="59" type="curve" smooth="yes"/>
      <point x="30" y="26"/>
      <point x="57" y="-1"/>
      <point x="90" y="-1" type="curve" smooth="yes"/>
      <point x="109" y="-1"/>
      <point x="126" y="8"/>
    </contour>
    <contour>
      <point x="480" y="119" type="curve" smooth="yes"/>
      <point x="90" y="119" type="line" smooth="yes"/>
      <point x="57" y="119"/>
      <point x="30" y="92"/>
      <point x="30" y="59" type="curve" smooth="yes"/>
      <point x="30" y="26"/>
      <point x="57" y="-1"/>
      <point x="90" y="-1" type="curve" smooth="yes"/>
      <point x="480" y="-1" type="line" smooth="yes"/>
      <point x="513" y="-1"/>
      <point x="540" y="26"/>
      <point x="540" y="59" type="curve" smooth="yes"/>
      <point x="540" y="92"/>
      <point x="513" y="119"/>
    </contour>
  </outline>
</glyph>
<glyph name="braceleft" format="2">
  <advance width="386"/>
  <unicode hex="007B"/>
  <outline>
    <contour>
      <point x="109" y="290" type="curve" smooth="yes"/>
      <point x="117" y="290" type="line" smooth="yes"/>
      <point x="208" y="290"/>
      <point x="280" y="342"/>
      <point x="280" y="423" type="curve" smooth="yes"/>
      <point x="280" y="468"/>
      <point x="261" y="504"/>
      <point x="237" y="545" type="curve" smooth="yes"/>
      <point x="218" y="577"/>
      <point x="207" y="596"/>
      <point x="207" y="620" type="curve" smooth="yes"/>
      <point x="207" y="668"/>
      <point x="229" y="676"/>
      <point x="257" y="676" type="curve" smooth="yes"/>
      <point x="270.8" y="676"/>
      <point x="277.8" y="667"/>
      <point x="297" y="667" type="curve" smooth="yes"/>
      <point x="330" y="667"/>
      <point x="357" y="694"/>
      <point x="357" y="727" type="curve" smooth="yes"/>
      <point x="357" y="750"/>
      <point x="344" y="771"/>
      <point x="324" y="781" type="curve" smooth="yes"/>
      <point x="308" y="789"/>
      <point x="282" y="796"/>
      <point x="257" y="796" type="curve" smooth="yes"/>
      <point x="150" y="796"/>
      <point x="87" y="721"/>
      <point x="87" y="620" type="curve" smooth="yes"/>
      <point x="87" y="563"/>
      <point x="115" y="517"/>
      <point x="134" y="484" type="curve" smooth="yes"/>
      <point x="151" y="454"/>
      <point x="160" y="439"/>
      <point x="160" y="423" type="curve" smooth="yes"/>
      <point x="160" y="412"/>
      <point x="155" y="410"/>
      <point x="117" y="410" type="curve" smooth="yes"/>
      <point x="109" y="410" type="line" smooth="yes"/>
      <point x="76" y="410"/>
      <point x="49" y="383"/>
      <point x="49" y="350" type="curve" smooth="yes"/>
      <point x="49" y="317"/>
      <point x="76" y="290"/>
    </contour>
    <contour>
      <point x="277.8" y="32"/>
      <point x="270.8" y="23"/>
      <point x="257" y="23" type="curve" smooth="yes"/>
      <point x="229" y="23"/>
      <point x="207" y="31"/>
      <point x="207" y="79" type="curve" smooth="yes"/>
      <point x="207" y="103"/>
      <point x="218" y="122"/>
      <point x="237" y="154" type="curve" smooth="yes"/>
      <point x="261" y="195"/>
      <point x="280" y="231"/>
      <point x="280" y="276" type="curve" smooth="yes"/>
      <point x="280" y="360"/>
      <point x="204" y="410"/>
      <point x="117" y="410" type="curve" smooth="yes"/>
      <point x="109" y="410" type="line" smooth="yes"/>
      <point x="76" y="410"/>
      <point x="49" y="383"/>
      <point x="49" y="350" type="curve" smooth="yes"/>
      <point x="49" y="317"/>
      <point x="76" y="290"/>
      <point x="109" y="290" type="curve" smooth="yes"/>
      <point x="117" y="290" type="line" smooth="yes"/>
      <point x="155" y="290"/>
      <point x="160" y="288"/>
      <point x="160" y="276" type="curve" smooth="yes"/>
      <point x="160" y="260"/>
      <point x="151" y="245"/>
      <point x="134" y="215" type="curve" smooth="yes"/>
      <point x="115" y="182"/>
      <point x="87" y="136"/>
      <point x="87" y="79" type="curve" smooth="yes"/>
      <point x="87" y="-22"/>
      <point x="150" y="-97"/>
      <point x="257" y="-97" type="curve" smooth="yes"/>
      <point x="282" y="-97"/>
      <point x="308" y="-90"/>
      <point x="324" y="-82" type="curve" smooth="yes"/>
      <point x="344" y="-72"/>
      <point x="357" y="-51"/>
      <point x="357" y="-28" type="curve" smooth="yes"/>
      <point x="357" y="5"/>
      <point x="330" y="32"/>
      <point x="297" y="32" type="curve" smooth="yes"/>
    </contour>
  </outline>
</glyph>
<glyph name="bar" format="2">
  <advance width="297"/>
  <unicode hex="007C"/>
  <outline>
    <contour>
      <point x="209" y="32" type="curve" smooth="yes"/>
      <point x="209" y="733" type="line" smooth="yes"/>
      <point x="209" y="766"/>
      <point x="182" y="793"/>
      <point x="149" y="793" type="curve" smooth="yes"/>
      <point x="116" y="793"/>
      <point x="89" y="766"/>
      <point x="89" y="733" type="curve" smooth="yes"/>
      <point x="89" y="32" type="line" smooth="yes"/>
      <point x="89" y="-1"/>
      <point x="116" y="-28"/>
      <point x="149" y="-28" type="curve" smooth="yes"/>
      <point x="182" y="-28"/>
      <point x="209" y="-1"/>
    </contour>
  </outline>
</glyph>
<glyph name="asciitilde" format="2">
  <advance width="618.73"/>
  <unicode hex="007E"/>
  <outline>
    <contour>
      <point x="461.57" y="328" type="curve" smooth="yes"/>
      <point x="463.8" y="300.764"/>
      <point x="451.69" y="290"/>
      <point x="423.57" y="290" type="curve" smooth="yes"/>
      <point x="387.57" y="290"/>
      <point x="373.57" y="302"/>
      <point x="341.57" y="330" type="curve" smooth="yes"/>
      <point x="309.57" y="358"/>
      <point x="261.57" y="400"/>
      <point x="177.57" y="400" type="curve" smooth="yes"/>
      <point x="94.913" y="400"/>
      <point x="42.754" y="347.875"/>
      <point x="36.785" y="281.202" type="curve" smooth="yes"/>
      <point x="34.738" y="258.34"/>
      <point x="38.122" y="233.768"/>
      <point x="47.57" y="209" type="curve" smooth="yes"/>
      <point x="55.57" y="186"/>
      <point x="77.57" y="170"/>
      <point x="103.57" y="170" type="curve" smooth="yes"/>
      <point x="136.57" y="170"/>
      <point x="163.57" y="197"/>
      <point x="163.57" y="230" type="curve" smooth="yes"/>
      <point x="163.57" y="237"/>
      <point x="162.66" y="245.046"/>
      <point x="159.57" y="251" type="curve" smooth="yes"/>
      <point x="150.105" y="269.234"/>
      <point x="159.57" y="280"/>
      <point x="177.57" y="280" type="curve" smooth="yes"/>
      <point x="215.57" y="280"/>
      <point x="231.57" y="267"/>
      <point x="262.57" y="239" type="curve" smooth="yes"/>
      <point x="295.57" y="211"/>
      <point x="341.57" y="170"/>
      <point x="423.57" y="170" type="curve" smooth="yes"/>
      <point x="526.206" y="170"/>
      <point x="583.495" y="227.105"/>
      <point x="583.121" y="316.689" type="curve" smooth="yes"/>
      <point x="583.087" y="324.862"/>
      <point x="582.573" y="333.305"/>
      <point x="581.57" y="342" type="curve" smooth="yes"/>
      <point x="577.57" y="372"/>
      <point x="552.57" y="395"/>
      <point x="521.57" y="395" type="curve" smooth="yes"/>
      <point x="494.724" y="395"/>
      <point x="472.953" y="377.266"/>
      <point x="464.809" y="353.688" type="curve" smooth="yes"/>
      <point x="462.032" y="345.648"/>
      <point x="460.839" y="336.928"/>
    </contour>
  </outline>
</glyph>
<glyph name="cent" format="2">
  <advance width="567.11"/>
  <unicode hex="00A2"/>
  <outline>
    <contour>
      <point x="522" y="478" type="curve" smooth="yes"/>
      <point x="486" y="557"/>
      <point x="413" y="596"/>
      <point x="315" y="596" type="curve" smooth="yes"/>
      <point x="301" y="596" type="line" smooth="yes"/>
      <point x="150" y="596"/>
      <point x="49" y="485"/>
      <point x="49" y="321" type="curve" smooth="yes"/>
      <point x="49" y="269" type="line" smooth="yes"/>
      <point x="49" y="106"/>
      <point x="150" y="-6"/>
      <point x="301" y="-6" type="curve" smooth="yes"/>
      <point x="315" y="-6" type="line" smooth="yes"/>
      <point x="400" y="-6"/>
      <point x="471" y="29"/>
      <point x="516" y="93" type="curve" smooth="yes"/>
      <point x="523" y="103"/>
      <point x="527" y="115"/>
      <point x="527" y="128" type="curve" smooth="yes"/>
      <point x="527" y="161"/>
      <point x="500" y="188"/>
      <point x="467" y="188" type="curve" smooth="yes"/>
      <point x="447" y="188"/>
      <point x="429" y="178"/>
      <point x="418" y="163" type="curve" smooth="yes"/>
      <point x="393" y="127"/>
      <point x="367" y="114"/>
      <point x="315" y="114" type="curve" smooth="yes"/>
      <point x="301" y="114" type="line" smooth="yes"/>
      <point x="211" y="114"/>
      <point x="169" y="161"/>
      <point x="169" y="269" type="curve" smooth="yes"/>
      <point x="169" y="321" type="line" smooth="yes"/>
      <point x="169" y="430"/>
      <point x="211" y="476"/>
      <point x="301" y="476" type="curve" smooth="yes"/>
      <point x="315" y="476" type="line" smooth="yes"/>
      <point x="376" y="476"/>
      <point x="396" y="465"/>
      <point x="414" y="428" type="curve" smooth="yes"/>
      <point x="423" y="407"/>
      <point x="444" y="393"/>
      <point x="468" y="393" type="curve" smooth="yes"/>
      <point x="501" y="393"/>
      <point x="528" y="420"/>
      <point x="528" y="453" type="curve" smooth="yes"/>
      <point x="528" y="462"/>
      <point x="526" y="471"/>
    </contour>
    <contour>
      <point x="247" y="637" type="curve" smooth="yes"/>
      <point x="247" y="536" type="line" smooth="yes"/>
      <point x="247" y="503"/>
      <point x="274" y="476"/>
      <point x="307" y="476" type="curve" smooth="yes"/>
      <point x="340" y="476"/>
      <point x="367" y="503"/>
      <point x="367" y="536" type="curve" smooth="yes"/>
      <point x="367" y="637" type="line" smooth="yes"/>
      <point x="367" y="670"/>
      <point x="340" y="697"/>
      <point x="307" y="697" type="curve" smooth="yes"/>
      <point x="274" y="697"/>
      <point x="247" y="670"/>
    </contour>
    <contour>
      <point x="247" y="54" type="curve" smooth="yes"/>
      <point x="247" y="-46" type="line" smooth="yes"/>
      <point x="247" y="-79"/>
      <point x="274" y="-106"/>
      <point x="307" y="-106" type="curve" smooth="yes"/>
      <point x="340" y="-106"/>
      <point x="367" y="-79"/>
      <point x="367" y="-46" type="curve" smooth="yes"/>
      <point x="367" y="54" type="line" smooth="yes"/>
      <point x="367" y="87"/>
      <point x="340" y="114"/>
      <point x="307" y="114" type="curve" smooth="yes"/>
      <point x="274" y="114"/>
      <point x="247" y="87"/>
    </contour>
  </outline>
</glyph>
<glyph name="sterling" format="2">
  <advance width="587"/>
  <unicode hex="00A3"/>
  <outline>
    <contour>
      <point x="497" y="119" type="curve" smooth="yes"/>
      <point x="66" y="119" type="line"/>
      <point x="89" y="4" type="line"/>
      <point x="245" y="69"/>
      <point x="288" y="144"/>
      <point x="288" y="223" type="curve" smooth="yes"/>
      <point x="288" y="282"/>
      <point x="261" y="339"/>
      <point x="238" y="389" type="curve" smooth="yes"/>
      <point x="212" y="443"/>
      <point x="190" y="489"/>
      <point x="190" y="540" type="curve"/>
      <point x="190" y="540"/>
      <point x="190" y="541"/>
      <point x="190" y="541" type="curve"/>
      <point x="191" y="598"/>
      <point x="229" y="631"/>
      <point x="306" y="631" type="curve" smooth="yes"/>
      <point x="308" y="631" type="line" smooth="yes"/>
      <point x="363" y="631"/>
      <point x="397" y="613"/>
      <point x="420" y="577" type="curve" smooth="yes"/>
      <point x="430" y="561"/>
      <point x="449" y="550"/>
      <point x="470" y="550" type="curve" smooth="yes"/>
      <point x="503" y="550"/>
      <point x="530" y="577"/>
      <point x="530" y="610" type="curve" smooth="yes"/>
      <point x="530" y="622"/>
      <point x="526" y="633"/>
      <point x="520" y="643" type="curve" smooth="yes"/>
      <point x="478" y="708"/>
      <point x="398" y="751"/>
      <point x="308" y="751" type="curve" smooth="yes"/>
      <point x="306" y="751" type="line" smooth="yes"/>
      <point x="175" y="751"/>
      <point x="71" y="661"/>
      <point x="70" y="541" type="curve"/>
      <point x="70" y="541"/>
      <point x="70" y="540"/>
      <point x="70" y="540" type="curve"/>
      <point x="70" y="462"/>
      <point x="103" y="393"/>
      <point x="129" y="338" type="curve" smooth="yes"/>
      <point x="152" y="289"/>
      <point x="168" y="255"/>
      <point x="168" y="223" type="curve" smooth="yes"/>
      <point x="168" y="183"/>
      <point x="155" y="162"/>
      <point x="43" y="114" type="curve"/>
      <point x="66" y="-1" type="line"/>
      <point x="497" y="-1" type="line" smooth="yes"/>
      <point x="530" y="-1"/>
      <point x="557" y="26"/>
      <point x="557" y="59" type="curve" smooth="yes"/>
      <point x="557" y="92"/>
      <point x="530" y="119"/>
    </contour>
    <contour>
      <point x="432" y="432" type="curve" smooth="yes"/>
      <point x="85" y="432" type="line" smooth="yes"/>
      <point x="52" y="432"/>
      <point x="25" y="405"/>
      <point x="25" y="372" type="curve" smooth="yes"/>
      <point x="25" y="339"/>
      <point x="52" y="312"/>
      <point x="85" y="312" type="curve" smooth="yes"/>
      <point x="432" y="312" type="line" smooth="yes"/>
      <point x="465" y="312"/>
      <point x="492" y="339"/>
      <point x="492" y="372" type="curve" smooth="yes"/>
      <point x="492" y="405"/>
      <point x="465" y="432"/>
    </contour>
  </outline>
</glyph>
<glyph name="currency" format="2">
  <advance width="586"/>
  <unicode hex="00A4"/>
  <outline>
    <contour>
      <point x="293" y="102" type="curve" smooth="yes"/>
      <point x="422" y="102"/>
      <point x="533" y="194"/>
      <point x="533" y="313" type="curve" smooth="yes"/>
      <point x="533" y="432"/>
      <point x="422" y="523"/>
      <point x="293" y="523" type="curve" smooth="yes"/>
      <point x="163" y="523"/>
      <point x="52" y="432"/>
      <point x="52" y="313" type="curve" smooth="yes"/>
      <point x="52" y="194"/>
      <point x="163" y="102"/>
    </contour>
    <contour>
      <point x="293" y="222" type="curve" smooth="yes"/>
      <point x="215" y="222"/>
      <point x="172" y="258"/>
      <point x="172" y="313" type="curve" smooth="yes"/>
      <point x="172" y="368"/>
      <point x="215" y="403"/>
      <point x="293" y="403" type="curve" smooth="yes"/>
      <point x="370" y="403"/>
      <point x="413" y="368"/>
      <point x="413" y="313" type="curve" smooth="yes"/>
      <point x="413" y="258"/>
      <point x="370" y="222"/>
    </contour>
    <contour>
      <point x="468" y="537" type="curve" smooth="yes"/>
      <point x="383" y="466" type="line" smooth="yes"/>
      <point x="369" y="455"/>
      <point x="361" y="438"/>
      <point x="361" y="420" type="curve" smooth="yes"/>
      <point x="361" y="387"/>
      <point x="388" y="360"/>
      <point x="421" y="360" type="curve" smooth="yes"/>
      <point x="436" y="360"/>
      <point x="449" y="365"/>
      <point x="459" y="374" type="curve" smooth="yes"/>
      <point x="544" y="445" type="line" smooth="yes"/>
      <point x="558" y="456"/>
      <point x="566" y="473"/>
      <point x="566" y="491" type="curve" smooth="yes"/>
      <point x="566" y="524"/>
      <point x="539" y="551"/>
      <point x="506" y="551" type="curve" smooth="yes"/>
      <point x="491" y="551"/>
      <point x="478" y="546"/>
    </contour>
    <contour>
      <point x="545" y="181" type="curve" smooth="yes"/>
      <point x="459" y="253" type="line" smooth="yes"/>
      <point x="448" y="262"/>
      <point x="435" y="267"/>
      <point x="420" y="267" type="curve" smooth="yes"/>
      <point x="387" y="267"/>
      <point x="360" y="240"/>
      <point x="360" y="207" type="curve" smooth="yes"/>
      <point x="360" y="189"/>
      <point x="368" y="172"/>
      <point x="381" y="161" type="curve" smooth="yes"/>
      <point x="467" y="89" type="line" smooth="yes"/>
      <point x="478" y="80"/>
      <point x="491" y="75"/>
      <point x="506" y="75" type="curve" smooth="yes"/>
      <point x="539" y="75"/>
      <point x="566" y="102"/>
      <point x="566" y="135" type="curve" smooth="yes"/>
      <point x="566" y="153"/>
      <point x="558" y="170"/>
    </contour>
    <contour>
      <point x="127" y="252" type="curve" smooth="yes"/>
      <point x="42" y="181" type="line" smooth="yes"/>
      <point x="28" y="170"/>
      <point x="20" y="153"/>
      <point x="20" y="135" type="curve" smooth="yes"/>
      <point x="20" y="102"/>
      <point x="47" y="75"/>
      <point x="80" y="75" type="curve" smooth="yes"/>
      <point x="95" y="75"/>
      <point x="108" y="80"/>
      <point x="118" y="89" type="curve" smooth="yes"/>
      <point x="203" y="160" type="line" smooth="yes"/>
      <point x="217" y="171"/>
      <point x="225" y="188"/>
      <point x="225" y="206" type="curve" smooth="yes"/>
      <point x="225" y="239"/>
      <point x="198" y="266"/>
      <point x="165" y="266" type="curve" smooth="yes"/>
      <point x="150" y="266"/>
      <point x="137" y="261"/>
    </contour>
    <contour>
      <point x="42" y="445" type="curve" smooth="yes"/>
      <point x="127" y="374" type="line" smooth="yes"/>
      <point x="137" y="365"/>
      <point x="150" y="360"/>
      <point x="165" y="360" type="curve" smooth="yes"/>
      <point x="198" y="360"/>
      <point x="225" y="387"/>
      <point x="225" y="420" type="curve" smooth="yes"/>
      <point x="225" y="438"/>
      <point x="217" y="455"/>
      <point x="203" y="466" type="curve" smooth="yes"/>
      <point x="118" y="537" type="line" smooth="yes"/>
      <point x="108" y="546"/>
      <point x="95" y="551"/>
      <point x="80" y="551" type="curve" smooth="yes"/>
      <point x="47" y="551"/>
      <point x="20" y="524"/>
      <point x="20" y="491" type="curve" smooth="yes"/>
      <point x="20" y="473"/>
      <point x="28" y="456"/>
    </contour>
  </outline>
</glyph>
<glyph name="yen" format="2">
  <advance width="559"/>
  <unicode hex="00A5"/>
  <outline>
    <contour>
      <point x="29" y="655" type="curve" smooth="yes"/>
      <point x="280" y="253" type="line"/>
      <point x="531" y="655" type="line" smooth="yes"/>
      <point x="536.729" y="664.175"/>
      <point x="540" y="675"/>
      <point x="540" y="687" type="curve" smooth="yes"/>
      <point x="540" y="720"/>
      <point x="513" y="747"/>
      <point x="480" y="747" type="curve" smooth="yes"/>
      <point x="459" y="747"/>
      <point x="439.68" y="736.203"/>
      <point x="429" y="719" type="curve" smooth="yes"/>
      <point x="280" y="479" type="line"/>
      <point x="131" y="719" type="line" smooth="yes"/>
      <point x="120.32" y="736.203"/>
      <point x="101" y="747"/>
      <point x="80" y="747" type="curve" smooth="yes"/>
      <point x="47" y="747"/>
      <point x="20" y="720"/>
      <point x="20" y="687" type="curve" smooth="yes"/>
      <point x="20" y="675"/>
      <point x="23.271" y="664.175"/>
    </contour>
    <contour>
      <point x="220" y="366" type="curve" smooth="yes"/>
      <point x="220" y="59" type="line" smooth="yes"/>
      <point x="220" y="26"/>
      <point x="247" y="-1"/>
      <point x="280" y="-1" type="curve" smooth="yes"/>
      <point x="313" y="-1"/>
      <point x="340" y="26"/>
      <point x="340" y="59" type="curve" smooth="yes"/>
      <point x="340" y="366" type="line" smooth="yes"/>
      <point x="340" y="399"/>
      <point x="313" y="426"/>
      <point x="280" y="426" type="curve" smooth="yes"/>
      <point x="247" y="426"/>
      <point x="220" y="399"/>
    </contour>
    <contour>
      <point x="453" y="406" type="curve" smooth="yes"/>
      <point x="107" y="406" type="line" smooth="yes"/>
      <point x="74" y="406"/>
      <point x="47" y="379"/>
      <point x="47" y="346" type="curve" smooth="yes"/>
      <point x="47" y="313"/>
      <point x="74" y="286"/>
      <point x="107" y="286" type="curve" smooth="yes"/>
      <point x="453" y="286" type="line" smooth="yes"/>
      <point x="486" y="286"/>
      <point x="513" y="313"/>
      <point x="513" y="346" type="curve" smooth="yes"/>
      <point x="513" y="379"/>
      <point x="486" y="406"/>
    </contour>
    <contour>
      <point x="453" y="260" type="curve" smooth="yes"/>
      <point x="107" y="260" type="line" smooth="yes"/>
      <point x="74" y="260"/>
      <point x="47" y="233"/>
      <point x="47" y="200" type="curve" smooth="yes"/>
      <point x="47" y="167"/>
      <point x="74" y="140"/>
      <point x="107" y="140" type="curve" smooth="yes"/>
      <point x="453" y="140" type="line" smooth="yes"/>
      <point x="486" y="140"/>
      <point x="513" y="167"/>
      <point x="513" y="200" type="curve" smooth="yes"/>
      <point x="513" y="233"/>
      <point x="486" y="260"/>
    </contour>
  </outline>
</glyph>
<glyph name="brokenbar" format="2">
  <advance width="341"/>
  <unicode hex="00A6"/>
  <outline>
    <contour>
      <point x="209" y="459" type="curve" smooth="yes"/>
      <point x="209" y="733" type="line" smooth="yes"/>
      <point x="209" y="766"/>
      <point x="182" y="793"/>
      <point x="149" y="793" type="curve" smooth="yes"/>
      <point x="116" y="793"/>
      <point x="89" y="766"/>
      <point x="89" y="733" type="curve" smooth="yes"/>
      <point x="89" y="459" type="line" smooth="yes"/>
      <point x="89" y="426"/>
      <point x="116" y="399"/>
      <point x="149" y="399" type="curve" smooth="yes"/>
      <point x="182" y="399"/>
      <point x="209" y="426"/>
    </contour>
    <contour>
      <point x="89" y="307" type="curve" smooth="yes"/>
      <point x="89" y="32" type="line" smooth="yes"/>
      <point x="89" y="-1"/>
      <point x="116" y="-28"/>
      <point x="149" y="-28" type="curve" smooth="yes"/>
      <point x="182" y="-28"/>
      <point x="209" y="-1"/>
      <point x="209" y="32" type="curve" smooth="yes"/>
      <point x="209" y="307" type="line" smooth="yes"/>
      <point x="209" y="340"/>
      <point x="182" y="367"/>
      <point x="149" y="367" type="curve" smooth="yes"/>
      <point x="116" y="367"/>
      <point x="89" y="340"/>
    </contour>
  </outline>
</glyph>
<glyph name="section" format="2">
  <advance width="568"/>
  <unicode hex="00A7"/>
  <outline>
    <contour>
      <point x="49" y="38" type="curve" smooth="yes"/>
      <point x="89" y="-37"/>
      <point x="176" y="-85"/>
      <point x="288" y="-85" type="curve" smooth="yes"/>
      <point x="422" y="-85"/>
      <point x="539" y="10"/>
      <point x="539" y="131" type="curve" smooth="yes"/>
      <point x="539" y="255"/>
      <point x="432" y="309"/>
      <point x="318" y="359" type="curve" smooth="yes"/>
      <point x="230" y="397"/>
      <point x="179" y="419"/>
      <point x="179" y="462" type="curve" smooth="yes"/>
      <point x="179" y="517"/>
      <point x="219" y="552"/>
      <point x="297" y="552" type="curve" smooth="yes"/>
      <point x="352" y="552"/>
      <point x="387" y="533"/>
      <point x="410" y="498" type="curve" smooth="yes"/>
      <point x="420" y="482"/>
      <point x="439" y="471"/>
      <point x="460" y="471" type="curve" smooth="yes"/>
      <point x="493" y="471"/>
      <point x="520" y="498"/>
      <point x="520" y="531" type="curve" smooth="yes"/>
      <point x="520" y="543"/>
      <point x="516" y="554"/>
      <point x="510" y="564" type="curve" smooth="yes"/>
      <point x="468" y="629"/>
      <point x="387" y="672"/>
      <point x="297" y="672" type="curve" smooth="yes"/>
      <point x="167" y="672"/>
      <point x="59" y="581"/>
      <point x="59" y="462" type="curve" smooth="yes"/>
      <point x="59" y="347"/>
      <point x="158" y="297"/>
      <point x="270" y="249" type="curve" smooth="yes"/>
      <point x="362" y="209"/>
      <point x="419" y="184"/>
      <point x="419" y="131" type="curve" smooth="yes"/>
      <point x="419" y="74"/>
      <point x="371" y="35"/>
      <point x="288" y="35" type="curve" smooth="yes"/>
      <point x="213" y="35"/>
      <point x="176" y="56"/>
      <point x="155" y="94" type="curve" smooth="yes"/>
      <point x="145" y="113"/>
      <point x="125" y="126"/>
      <point x="102" y="126" type="curve" smooth="yes"/>
      <point x="69" y="126"/>
      <point x="42" y="99"/>
      <point x="42" y="66" type="curve" smooth="yes"/>
      <point x="42" y="56"/>
      <point x="45" y="46"/>
    </contour>
    <contour>
      <point x="389" y="-11" type="curve"/>
      <point x="483.539" y="82.311" type="line"/>
      <point x="445.136" y="144.572"/>
      <point x="368.305" y="181.779"/>
      <point x="288" y="217" type="curve" smooth="yes"/>
      <point x="202" y="254"/>
      <point x="150" y="277"/>
      <point x="150" y="319" type="curve" smooth="yes"/>
      <point x="150" y="340"/>
      <point x="154" y="350"/>
      <point x="166" y="366" type="curve" smooth="yes"/>
      <point x="174" y="376"/>
      <point x="179" y="389"/>
      <point x="179" y="403" type="curve" smooth="yes"/>
      <point x="179" y="436"/>
      <point x="152" y="463"/>
      <point x="119" y="463" type="curve" smooth="yes"/>
      <point x="100" y="463"/>
      <point x="83" y="454"/>
      <point x="72" y="440" type="curve" smooth="yes"/>
      <point x="46" y="407"/>
      <point x="30" y="365"/>
      <point x="30" y="319" type="curve" smooth="yes"/>
      <point x="30" y="205"/>
      <point x="128.21" y="155.487"/>
      <point x="240" y="107" type="curve" smooth="yes"/>
      <point x="268.793" y="94.511"/>
      <point x="389" y="46"/>
    </contour>
  </outline>
</glyph>
<glyph name="copyright" format="2">
  <advance width="737"/>
  <unicode hex="00A9"/>
  <outline>
    <contour>
      <point x="540.784" y="466.172" type="curve" smooth="yes"/>
      <point x="512.803" y="527.195"/>
      <point x="456.859" y="557.71"/>
      <point x="381.419" y="557.71" type="curve" smooth="yes"/>
      <point x="372.095" y="557.71" type="line" smooth="yes"/>
      <point x="255.121" y="557.71"/>
      <point x="177.139" y="472.098"/>
      <point x="177.139" y="346.648" type="curve" smooth="yes"/>
      <point x="177.139" y="308.504" type="line" smooth="yes"/>
      <point x="177.139" y="183.054"/>
      <point x="255.121" y="98.29"/>
      <point x="372.095" y="98.29" type="curve" smooth="yes"/>
      <point x="381.419" y="98.29" type="line" smooth="yes"/>
      <point x="445.84" y="98.29"/>
      <point x="501.784" y="122.872"/>
      <point x="536.546" y="174.57" type="curve" smooth="yes"/>
      <point x="541.632" y="183.047"/>
      <point x="545.014" y="193.226"/>
      <point x="545.014" y="203.397" type="curve" smooth="yes"/>
      <point x="545.014" y="231.369"/>
      <point x="522.135" y="254.252"/>
      <point x="494.162" y="254.252" type="curve" smooth="yes"/>
      <point x="476.361" y="254.252"/>
      <point x="461.805" y="245.265"/>
      <point x="451.778" y="232.212" type="curve" smooth="yes"/>
      <point x="432.894" y="207.629"/>
      <point x="405.676" y="200"/>
      <point x="381.42" y="200" type="curve" smooth="yes"/>
      <point x="372.096" y="200" type="line" smooth="yes"/>
      <point x="305.977" y="200"/>
      <point x="278.851" y="229.669"/>
      <point x="278.851" y="308.503" type="curve" smooth="yes"/>
      <point x="278.851" y="346.649" type="line" smooth="yes"/>
      <point x="278.851" y="425.483"/>
      <point x="306.825" y="456"/>
      <point x="372.096" y="456" type="curve" smooth="yes"/>
      <point x="381.42" y="456" type="line" smooth="yes"/>
      <point x="411.61" y="456"/>
      <point x="433.742" y="450.066"/>
      <point x="449.235" y="423.788" type="curve" smooth="yes"/>
      <point x="459.071" y="407.104"/>
      <point x="474.665" y="394.119"/>
      <point x="495.01" y="394.119" type="curve" smooth="yes"/>
      <point x="522.983" y="394.119"/>
      <point x="545.861" y="417.002"/>
      <point x="545.861" y="444.974" type="curve" smooth="yes"/>
      <point x="545.861" y="452.603"/>
      <point x="544.166" y="460.231"/>
    </contour>
    <contour>
      <point x="30" y="384" type="curve" smooth="yes"/>
      <point x="30" y="272" type="line" smooth="yes"/>
      <point x="30" y="43"/>
      <point x="156" y="-68"/>
      <point x="359" y="-68" type="curve" smooth="yes"/>
      <point x="378" y="-68" type="line" smooth="yes"/>
      <point x="581" y="-68"/>
      <point x="707" y="43"/>
      <point x="707" y="272" type="curve" smooth="yes"/>
      <point x="707" y="384" type="line" smooth="yes"/>
      <point x="707" y="612"/>
      <point x="581" y="723"/>
      <point x="378" y="723" type="curve" smooth="yes"/>
      <point x="359" y="723" type="line" smooth="yes"/>
      <point x="156" y="723"/>
      <point x="30" y="612"/>
    </contour>
    <contour>
      <point x="150" y="384" type="line" smooth="yes"/>
      <point x="150" y="550"/>
      <point x="210" y="603"/>
      <point x="359" y="603" type="curve" smooth="yes"/>
      <point x="378" y="603" type="line" smooth="yes"/>
      <point x="527" y="603"/>
      <point x="587" y="550"/>
      <point x="587" y="384" type="curve" smooth="yes"/>
      <point x="587" y="272" type="line" smooth="yes"/>
      <point x="587" y="105"/>
      <point x="527" y="52"/>
      <point x="378" y="52" type="curve" smooth="yes"/>
      <point x="359" y="52" type="line" smooth="yes"/>
      <point x="210" y="52"/>
      <point x="150" y="105"/>
      <point x="150" y="272" type="curve" smooth="yes"/>
    </contour>
  </outline>
</glyph>
<glyph name="registered" format="2">
  <advance width="624"/>
  <unicode hex="00AE"/>
  <outline>
    <contour>
      <point x="53" y="522" type="curve" smooth="yes"/>
      <point x="53" y="454" type="line" smooth="yes"/>
      <point x="53" y="297"/>
      <point x="159" y="223"/>
      <point x="317" y="223" type="curve" smooth="yes"/>
      <point x="330" y="223" type="line" smooth="yes"/>
      <point x="489" y="223"/>
      <point x="593" y="298"/>
      <point x="593" y="454" type="curve" smooth="yes"/>
      <point x="593" y="522" type="line" smooth="yes"/>
      <point x="593" y="677"/>
      <point x="489" y="752"/>
      <point x="330" y="752" type="curve" smooth="yes"/>
      <point x="317" y="752" type="line" smooth="yes"/>
      <point x="159" y="752"/>
      <point x="53" y="678"/>
    </contour>
    <contour>
      <point x="173" y="522" type="line" smooth="yes"/>
      <point x="173" y="608"/>
      <point x="205" y="632"/>
      <point x="317" y="632" type="curve" smooth="yes"/>
      <point x="330" y="632" type="line" smooth="yes"/>
      <point x="441" y="632"/>
      <point x="473" y="609"/>
      <point x="473" y="522" type="curve" smooth="yes"/>
      <point x="473" y="454" type="line" smooth="yes"/>
      <point x="473" y="366"/>
      <point x="441" y="343"/>
      <point x="330" y="343" type="curve" smooth="yes"/>
      <point x="317" y="343" type="line" smooth="yes"/>
      <point x="205" y="343"/>
      <point x="173" y="367"/>
      <point x="173" y="454" type="curve" smooth="yes"/>
    </contour>
    <contour>
      <point x="295.13" y="390.062" type="curve" smooth="yes"/>
      <point x="295.13" y="553.538" type="line"/>
      <point x="337.118" y="553.538" type="line" smooth="yes"/>
      <point x="356.608" y="553.538"/>
      <point x="357.978" y="552.967"/>
      <point x="357.978" y="537.961" type="curve" smooth="yes"/>
      <point x="357.978" y="535.32" type="line" smooth="yes"/>
      <point x="357.978" y="519.843"/>
      <point x="356.266" y="519.082"/>
      <point x="337.118" y="519.082" type="curve" smooth="yes"/>
      <point x="267.13" y="519.082" type="line" smooth="yes"/>
      <point x="251.666" y="519.082"/>
      <point x="239.13" y="506.546"/>
      <point x="239.13" y="491.082" type="curve" smooth="yes"/>
      <point x="239.13" y="475.618"/>
      <point x="251.666" y="463.082"/>
      <point x="267.13" y="463.082" type="curve" smooth="yes"/>
      <point x="337.118" y="463.082" type="line" smooth="yes"/>
      <point x="380.95" y="463.082"/>
      <point x="413.978" y="488.846"/>
      <point x="413.978" y="535.32" type="curve" smooth="yes"/>
      <point x="413.978" y="537.961" type="line" smooth="yes"/>
      <point x="413.978" y="584.834"/>
      <point x="381.008" y="609.538"/>
      <point x="337.118" y="609.538" type="curve" smooth="yes"/>
      <point x="299.13" y="609.538" type="line" smooth="yes"/>
      <point x="260.13" y="609.538"/>
      <point x="239.13" y="588.538"/>
      <point x="239.13" y="549.538" type="curve" smooth="yes"/>
      <point x="239.13" y="390.062" type="line" smooth="yes"/>
      <point x="239.13" y="374.597"/>
      <point x="251.666" y="362.062"/>
      <point x="267.13" y="362.062" type="curve" smooth="yes"/>
      <point x="282.595" y="362.062"/>
      <point x="295.13" y="374.597"/>
    </contour>
    <contour>
      <point x="312.17" y="478.363" type="curve" smooth="yes"/>
      <point x="363.671" y="377.343" type="line" smooth="yes"/>
      <point x="368.301" y="368.272"/>
      <point x="377.735" y="362.062"/>
      <point x="388.619" y="362.062" type="curve" smooth="yes"/>
      <point x="404.083" y="362.062"/>
      <point x="416.619" y="374.597"/>
      <point x="416.619" y="390.062" type="curve" smooth="yes"/>
      <point x="416.619" y="394.642"/>
      <point x="415.519" y="398.965"/>
      <point x="413.567" y="402.78" type="curve" smooth="yes"/>
      <point x="362.066" y="503.801" type="line" smooth="yes"/>
      <point x="357.436" y="512.872"/>
      <point x="348.002" y="519.082"/>
      <point x="337.118" y="519.082" type="curve" smooth="yes"/>
      <point x="321.654" y="519.082"/>
      <point x="309.118" y="506.546"/>
      <point x="309.118" y="491.082" type="curve" smooth="yes"/>
      <point x="309.118" y="486.502"/>
      <point x="310.218" y="482.179"/>
    </contour>
  </outline>
</glyph>
<glyph name="degree" format="2">
  <advance width="426"/>
  <unicode hex="00B0"/>
  <outline>
    <contour>
      <point x="25" y="583" type="curve" smooth="yes"/>
      <point x="25" y="581" type="line" smooth="yes"/>
      <point x="25" y="477"/>
      <point x="107" y="416"/>
      <point x="209" y="416" type="curve" smooth="yes"/>
      <point x="217" y="416" type="line" smooth="yes"/>
      <point x="319" y="416"/>
      <point x="401" y="477"/>
      <point x="401" y="581" type="curve" smooth="yes"/>
      <point x="401" y="583" type="line" smooth="yes"/>
      <point x="401" y="684"/>
      <point x="319" y="747"/>
      <point x="217" y="747" type="curve" smooth="yes"/>
      <point x="209" y="747" type="line" smooth="yes"/>
      <point x="107" y="747"/>
      <point x="25" y="684"/>
    </contour>
    <contour>
      <point x="145" y="583" type="line" smooth="yes"/>
      <point x="145" y="619"/>
      <point x="160" y="627"/>
      <point x="209" y="627" type="curve" smooth="yes"/>
      <point x="217" y="627" type="line" smooth="yes"/>
      <point x="266" y="627"/>
      <point x="281" y="619"/>
      <point x="281" y="583" type="curve" smooth="yes"/>
      <point x="281" y="581" type="line" smooth="yes"/>
      <point x="281" y="544"/>
      <point x="266" y="536"/>
      <point x="217" y="536" type="curve" smooth="yes"/>
      <point x="209" y="536" type="line" smooth="yes"/>
      <point x="160" y="536"/>
      <point x="145" y="544"/>
      <point x="145" y="581" type="curve" smooth="yes"/>
    </contour>
  </outline>
</glyph>
<glyph name="plusminus" format="2">
  <advance width="627"/>
  <unicode hex="00B1"/>
  <outline>
    <contour>
      <point x="520" y="120" type="curve" smooth="yes"/>
      <point x="106" y="120" type="line" smooth="yes"/>
      <point x="72.863" y="120"/>
      <point x="46" y="93.137"/>
      <point x="46" y="60" type="curve" smooth="yes"/>
      <point x="46" y="26.863"/>
      <point x="72.863" y="0"/>
      <point x="106" y="0" type="curve" smooth="yes"/>
      <point x="520" y="0" type="line" smooth="yes"/>
      <point x="553.137" y="0"/>
      <point x="580" y="26.863"/>
      <point x="580" y="60" type="curve" smooth="yes"/>
      <point x="580" y="93.137"/>
      <point x="553.137" y="120"/>
    </contour>
    <contour>
      <point x="253" y="588.895" type="curve" smooth="yes"/>
      <point x="253" y="220.688" type="line" smooth="yes"/>
      <point x="253" y="187.551"/>
      <point x="279.863" y="160.688"/>
      <point x="313" y="160.688" type="curve" smooth="yes"/>
      <point x="346.137" y="160.688"/>
      <point x="373" y="187.551"/>
      <point x="373" y="220.688" type="curve" smooth="yes"/>
      <point x="373" y="588.895" type="line" smooth="yes"/>
      <point x="373" y="622.032"/>
      <point x="346.137" y="648.895"/>
      <point x="313" y="648.895" type="curve" smooth="yes"/>
      <point x="279.863" y="648.895"/>
      <point x="253" y="622.032"/>
    </contour>
    <contour>
      <point x="520" y="464.792" type="curve" smooth="yes"/>
      <point x="106" y="464.792" type="line" smooth="yes"/>
      <point x="72.863" y="464.792"/>
      <point x="46" y="437.929"/>
      <point x="46" y="404.792" type="curve" smooth="yes"/>
      <point x="46" y="371.655"/>
      <point x="72.863" y="344.792"/>
      <point x="106" y="344.792" type="curve" smooth="yes"/>
      <point x="520" y="344.792" type="line" smooth="yes"/>
      <point x="553.137" y="344.792"/>
      <point x="580" y="371.655"/>
      <point x="580" y="404.792" type="curve" smooth="yes"/>
      <point x="580" y="437.929"/>
      <point x="553.137" y="464.792"/>
    </contour>
  </outline>
</glyph>
<glyph name="micro" format="2">
  <advance width="615"/>
  <unicode hex="00B5"/>
  <outline>
    <contour>
      <point x="543" y="59" type="curve" smooth="yes"/>
      <point x="543" y="532" type="line" smooth="yes"/>
      <point x="543" y="565"/>
      <point x="516" y="592"/>
      <point x="483" y="592" type="curve" smooth="yes"/>
      <point x="450" y="592"/>
      <point x="423" y="565"/>
      <point x="423" y="532" type="curve" smooth="yes"/>
      <point x="423" y="59" type="line" smooth="yes"/>
      <point x="423" y="26"/>
      <point x="450" y="-1"/>
      <point x="483" y="-1" type="curve" smooth="yes"/>
      <point x="516" y="-1"/>
      <point x="543" y="26"/>
    </contour>
    <contour>
      <point x="423" y="269" type="curve" smooth="yes"/>
      <point x="423" y="168"/>
      <point x="372" y="114"/>
      <point x="278" y="114" type="curve" smooth="yes"/>
      <point x="264" y="114" type="line" smooth="yes"/>
      <point x="197" y="114"/>
      <point x="180" y="130"/>
      <point x="180" y="190" type="curve" smooth="yes"/>
      <point x="179" y="532" type="line" smooth="yes"/>
      <point x="179" y="565"/>
      <point x="152" y="592"/>
      <point x="119" y="592" type="curve" smooth="yes"/>
      <point x="86" y="592"/>
      <point x="59" y="565"/>
      <point x="59" y="532" type="curve" smooth="yes"/>
      <point x="60" y="190" type="line" smooth="yes"/>
      <point x="60" y="70"/>
      <point x="141" y="-6"/>
      <point x="264" y="-6" type="curve" smooth="yes"/>
      <point x="278" y="-6" type="line" smooth="yes"/>
      <point x="432" y="-6"/>
      <point x="543" y="112"/>
      <point x="543" y="269" type="curve" smooth="yes"/>
      <point x="543" y="302"/>
      <point x="516" y="329"/>
      <point x="483" y="329" type="curve" smooth="yes"/>
      <point x="450" y="329"/>
      <point x="423" y="302"/>
    </contour>
    <contour>
      <point x="180" y="-117" type="curve" smooth="yes"/>
      <point x="180" y="190" type="line" smooth="yes"/>
      <point x="180" y="223"/>
      <point x="153" y="250"/>
      <point x="120" y="250" type="curve" smooth="yes"/>
      <point x="87" y="250"/>
      <point x="60" y="223"/>
      <point x="60" y="190" type="curve" smooth="yes"/>
      <point x="60" y="-117" type="line" smooth="yes"/>
      <point x="60" y="-150"/>
      <point x="87" y="-177"/>
      <point x="120" y="-177" type="curve" smooth="yes"/>
      <point x="153" y="-177"/>
      <point x="180" y="-150"/>
    </contour>
  </outline>
</glyph>
<glyph name="paragraph" format="2">
  <advance width="727"/>
  <unicode hex="00B6"/>
  <outline>
    <contour>
      <point x="393" y="465" type="curve" smooth="yes"/>
      <point x="393" y="-20" type="line" smooth="yes"/>
      <point x="393" y="-53"/>
      <point x="420" y="-80"/>
      <point x="453" y="-80" type="curve" smooth="yes"/>
      <point x="486" y="-80"/>
      <point x="513" y="-53"/>
      <point x="513" y="-20" type="curve" smooth="yes"/>
      <point x="513" y="465" type="line" smooth="yes"/>
      <point x="513" y="498"/>
      <point x="486" y="525"/>
      <point x="453" y="525" type="curve" smooth="yes"/>
      <point x="420" y="525"/>
      <point x="393" y="498"/>
    </contour>
    <contour>
      <point x="305" y="346" type="curve" smooth="yes"/>
      <point x="267" y="346" type="line" smooth="yes"/>
      <point x="192" y="346"/>
      <point x="159" y="381"/>
      <point x="159" y="442" type="curve" smooth="yes"/>
      <point x="159" y="451" type="line" smooth="yes"/>
      <point x="159" y="514"/>
      <point x="192" y="548"/>
      <point x="267" y="548" type="curve" smooth="yes"/>
      <point x="278" y="548" type="line"/>
      <point x="627" y="548" type="line" smooth="yes"/>
      <point x="660" y="548"/>
      <point x="687" y="575"/>
      <point x="687" y="608" type="curve" smooth="yes"/>
      <point x="687" y="641"/>
      <point x="660" y="668"/>
      <point x="627" y="668" type="curve" smooth="yes"/>
      <point x="278" y="668" type="line"/>
      <point x="267" y="668" type="line" smooth="yes"/>
      <point x="132" y="668"/>
      <point x="39" y="570"/>
      <point x="39" y="451" type="curve" smooth="yes"/>
      <point x="39" y="442" type="line" smooth="yes"/>
      <point x="39" y="325"/>
      <point x="132" y="226"/>
      <point x="267" y="226" type="curve" smooth="yes"/>
      <point x="305" y="226" type="line" smooth="yes"/>
      <point x="338" y="226"/>
      <point x="365" y="253"/>
      <point x="365" y="286" type="curve" smooth="yes"/>
      <point x="365" y="319"/>
      <point x="338" y="346"/>
    </contour>
    <contour>
      <point x="536" y="465" type="curve" smooth="yes"/>
      <point x="536" y="-20" type="line" smooth="yes"/>
      <point x="536" y="-53"/>
      <point x="563" y="-80"/>
      <point x="596" y="-80" type="curve" smooth="yes"/>
      <point x="629" y="-80"/>
      <point x="656" y="-53"/>
      <point x="656" y="-20" type="curve" smooth="yes"/>
      <point x="656" y="465" type="line" smooth="yes"/>
      <point x="656" y="498"/>
      <point x="629" y="525"/>
      <point x="596" y="525" type="curve" smooth="yes"/>
      <point x="563" y="525"/>
      <point x="536" y="498"/>
    </contour>
  </outline>
</glyph>
<glyph name="AE" format="2">
  <advance width="914.95"/>
  <unicode hex="00C6"/>
  <anchor x="531.95" y="747" name="top"/>
  <anchor x="641.95" y="0" name="bottom"/>
  <anchor x="766.95" y="40" name="ogonek"/>
  <anchor x="430.95" y="747" name="topleft"/>
  <outline>
    <contour>
      <point x="367.288" y="715.862" type="curve" smooth="yes"/>
      <point x="37.381" y="88.702" type="line" smooth="yes"/>
      <point x="32.832" y="80.054"/>
      <point x="29.996" y="70.302"/>
      <point x="29.996" y="59.84" type="curve" smooth="yes"/>
      <point x="29.996" y="26.703"/>
      <point x="56.859" y="-0.16"/>
      <point x="89.996" y="-0.16" type="curve" smooth="yes"/>
      <point x="112.672" y="-0.16"/>
      <point x="132.752" y="12.234"/>
      <point x="142.612" y="30.978" type="curve" smooth="yes"/>
      <point x="472.519" y="658.138" type="line" smooth="yes"/>
      <point x="477.068" y="666.786"/>
      <point x="479.904" y="736.538"/>
      <point x="479.904" y="747" type="curve"/>
      <point x="419.904" y="747" type="line"/>
      <point x="397.228" y="747"/>
      <point x="377.148" y="734.606"/>
    </contour>
    <contour>
      <point x="162.95" y="102" type="curve" smooth="yes"/>
      <point x="405.95" y="102" type="line" smooth="yes"/>
      <point x="439.087" y="102"/>
      <point x="465.95" y="128.863"/>
      <point x="465.95" y="162" type="curve" smooth="yes"/>
      <point x="465.95" y="195.137"/>
      <point x="439.087" y="222"/>
      <point x="405.95" y="222" type="curve" smooth="yes"/>
      <point x="162.95" y="222" type="line" smooth="yes"/>
      <point x="129.813" y="222"/>
      <point x="102.95" y="195.137"/>
      <point x="102.95" y="162" type="curve" smooth="yes"/>
      <point x="102.95" y="128.863"/>
      <point x="129.813" y="102"/>
    </contour>
    <contour>
      <point x="281.95" y="261" type="curve" smooth="yes"/>
      <point x="406.95" y="261" type="line" smooth="yes"/>
      <point x="440.087" y="261"/>
      <point x="466.95" y="287.863"/>
      <point x="466.95" y="321" type="curve" smooth="yes"/>
      <point x="466.95" y="354.137"/>
      <point x="440.087" y="381"/>
      <point x="406.95" y="381" type="curve" smooth="yes"/>
      <point x="281.95" y="381" type="line" smooth="yes"/>
      <point x="248.813" y="381"/>
      <point x="221.95" y="354.137"/>
      <point x="221.95" y="321" type="curve" smooth="yes"/>
      <point x="221.95" y="287.863"/>
      <point x="248.813" y="261"/>
    </contour>
    <component base="E" xOffset="364.95"/>
  </outline>
</glyph>
<glyph name="multiply" format="2">
  <advance width="612"/>
  <unicode hex="00D7"/>
  <outline>
    <contour>
      <point x="416" y="504" type="curve" smooth="yes"/>
      <point x="109" y="172" type="line" smooth="yes"/>
      <point x="99" y="161"/>
      <point x="93" y="147"/>
      <point x="93" y="131" type="curve" smooth="yes"/>
      <point x="93" y="98"/>
      <point x="120" y="71"/>
      <point x="153" y="71" type="curve" smooth="yes"/>
      <point x="170" y="71"/>
      <point x="186" y="78"/>
      <point x="197" y="90" type="curve" smooth="yes"/>
      <point x="504" y="422" type="line" smooth="yes"/>
      <point x="514" y="433"/>
      <point x="520" y="447"/>
      <point x="520" y="463" type="curve" smooth="yes"/>
      <point x="520" y="496"/>
      <point x="493" y="523"/>
      <point x="460" y="523" type="curve" smooth="yes"/>
      <point x="443" y="523"/>
      <point x="427" y="516"/>
    </contour>
    <contour>
      <point x="504" y="172" type="curve" smooth="yes"/>
      <point x="197" y="504" type="line" smooth="yes"/>
      <point x="186" y="516"/>
      <point x="170" y="523"/>
      <point x="153" y="523" type="curve" smooth="yes"/>
      <point x="120" y="523"/>
      <point x="93" y="496"/>
      <point x="93" y="463" type="curve" smooth="yes"/>
      <point x="93" y="447"/>
      <point x="99" y="433"/>
      <point x="109" y="422" type="curve" smooth="yes"/>
      <point x="416" y="90" type="line" smooth="yes"/>
      <point x="427" y="78"/>
      <point x="443" y="71"/>
      <point x="460" y="71" type="curve" smooth="yes"/>
      <point x="493" y="71"/>
      <point x="520" y="98"/>
      <point x="520" y="131" type="curve" smooth="yes"/>
      <point x="520" y="147"/>
      <point x="514" y="161"/>
    </contour>
  </outline>
</glyph>
<glyph name="germandbls" format="2">
  <advance width="589"/>
  <unicode hex="00DF"/>
  <anchor x="293" y="46" name="bottom"/>
  <anchor x="293" y="746" name="top"/>
  <outline>
    <contour>
      <point x="253" y="334" type="curve" smooth="yes"/>
      <point x="292" y="334" type="line" smooth="yes"/>
      <point x="380" y="334"/>
      <point x="419" y="296"/>
      <point x="419" y="233" type="curve" smooth="yes"/>
      <point x="419" y="220" type="line" smooth="yes"/>
      <point x="419" y="157"/>
      <point x="380" y="119"/>
      <point x="292" y="119" type="curve" smooth="yes"/>
      <point x="253" y="119" type="line" smooth="yes"/>
      <point x="220" y="119"/>
      <point x="193" y="92"/>
      <point x="193" y="59" type="curve" smooth="yes"/>
      <point x="193" y="26"/>
      <point x="220" y="-1"/>
      <point x="253" y="-1" type="curve" smooth="yes"/>
      <point x="292" y="-1" type="line" smooth="yes"/>
      <point x="436" y="-1"/>
      <point x="539" y="97"/>
      <point x="539" y="220" type="curve" smooth="yes"/>
      <point x="539" y="233" type="line" smooth="yes"/>
      <point x="539" y="356"/>
      <point x="436" y="454"/>
      <point x="292" y="454" type="curve" smooth="yes"/>
      <point x="253" y="454" type="line" smooth="yes"/>
      <point x="220" y="454"/>
      <point x="193" y="427"/>
      <point x="193" y="394" type="curve" smooth="yes"/>
      <point x="193" y="361"/>
      <point x="220" y="334"/>
    </contour>
    <contour>
      <point x="160" y="59" type="curve" smooth="yes"/>
      <point x="160" y="536" type="line"/>
      <point x="160" y="545" type="line" smooth="yes"/>
      <point x="160" y="597"/>
      <point x="191" y="627"/>
      <point x="268" y="627" type="curve" smooth="yes"/>
      <point x="275" y="627" type="line" smooth="yes"/>
      <point x="352" y="627"/>
      <point x="383" y="597"/>
      <point x="383" y="545" type="curve" smooth="yes"/>
      <point x="383" y="536" type="line" smooth="yes"/>
      <point x="383" y="484"/>
      <point x="352" y="454"/>
      <point x="275" y="454" type="curve" smooth="yes"/>
      <point x="253" y="454" type="line" smooth="yes"/>
      <point x="220" y="454"/>
      <point x="193" y="427"/>
      <point x="193" y="394" type="curve" smooth="yes"/>
      <point x="193" y="361"/>
      <point x="220" y="334"/>
      <point x="253" y="334" type="curve" smooth="yes"/>
      <point x="275" y="334" type="line" smooth="yes"/>
      <point x="409" y="334"/>
      <point x="503" y="425"/>
      <point x="503" y="536" type="curve" smooth="yes"/>
      <point x="503" y="545" type="line" smooth="yes"/>
      <point x="503" y="657"/>
      <point x="408" y="747"/>
      <point x="275" y="747" type="curve" smooth="yes"/>
      <point x="268" y="747" type="line" smooth="yes"/>
      <point x="135" y="747"/>
      <point x="40" y="657"/>
      <point x="40" y="545" type="curve" smooth="yes"/>
      <point x="40" y="536" type="line"/>
      <point x="40" y="59" type="line" smooth="yes"/>
      <point x="40" y="26"/>
      <point x="67" y="-1"/>
      <point x="100" y="-1" type="curve" smooth="yes"/>
      <point x="133" y="-1"/>
      <point x="160" y="26"/>
    </contour>
  </outline>
</glyph>
<glyph name="divide" format="2">
  <advance width="620"/>
  <unicode hex="00F7"/>
  <outline>
    <contour>
      <point x="528" y="359" type="curve" smooth="yes"/>
      <point x="93" y="359" type="line" smooth="yes"/>
      <point x="60" y="359"/>
      <point x="33" y="332"/>
      <point x="33" y="299" type="curve" smooth="yes"/>
      <point x="33" y="266"/>
      <point x="60" y="239"/>
      <point x="93" y="239" type="curve" smooth="yes"/>
      <point x="528" y="239" type="line" smooth="yes"/>
      <point x="561" y="239"/>
      <point x="588" y="266"/>
      <point x="588" y="299" type="curve" smooth="yes"/>
      <point x="588" y="332"/>
      <point x="561" y="359"/>
    </contour>
    <contour>
      <point x="311" y="-4" type="curve" smooth="yes"/>
      <point x="359" y="-4"/>
      <point x="402" y="34"/>
      <point x="402" y="82" type="curve" smooth="yes"/>
      <point x="402" y="130"/>
      <point x="359" y="168"/>
      <point x="311" y="168" type="curve" smooth="yes"/>
      <point x="262" y="168"/>
      <point x="219" y="130"/>
      <point x="219" y="82" type="curve" smooth="yes"/>
      <point x="219" y="34"/>
      <point x="262" y="-4"/>
    </contour>
    <contour>
      <point x="311" y="601" type="curve" smooth="yes"/>
      <point x="262" y="601"/>
      <point x="219" y="563"/>
      <point x="219" y="515" type="curve" smooth="yes"/>
      <point x="219" y="467"/>
      <point x="262" y="430"/>
      <point x="311" y="430" type="curve" smooth="yes"/>
      <point x="359" y="430"/>
      <point x="402" y="467"/>
      <point x="402" y="515" type="curve" smooth="yes"/>
      <point x="402" y="563"/>
      <point x="359" y="601"/>
    </contour>
  </outline>
</glyph>
<glyph name="oslash" format="2">
  <advance width="618"/>
  <unicode hex="00F8"/>
  <anchor x="309" y="0" name="bottom"/>
  <anchor x="309" y="285" name="center"/>
  <anchor x="519" y="10" name="ogonek"/>
  <anchor x="297" y="570" name="top"/>
  <anchor x="551" y="570" name="topright"/>
  <outline>
    <contour>
      <point x="50" y="321" type="curve" smooth="yes"/>
      <point x="50" y="269" type="line" smooth="yes"/>
      <point x="50" y="113"/>
      <point x="144" y="-6"/>
      <point x="302" y="-6" type="curve" smooth="yes"/>
      <point x="316" y="-6" type="line" smooth="yes"/>
      <point x="474" y="-6"/>
      <point x="568" y="113"/>
      <point x="568" y="269" type="curve" smooth="yes"/>
      <point x="568" y="321" type="line" smooth="yes"/>
      <point x="568" y="477"/>
      <point x="475" y="596"/>
      <point x="316" y="596" type="curve" smooth="yes"/>
      <point x="302" y="596" type="line" smooth="yes"/>
      <point x="143" y="596"/>
      <point x="50" y="477"/>
    </contour>
    <contour>
      <point x="170" y="321" type="line" smooth="yes"/>
      <point x="170" y="426"/>
      <point x="208" y="476"/>
      <point x="302" y="476" type="curve" smooth="yes"/>
      <point x="316" y="476" type="line" smooth="yes"/>
      <point x="410" y="476"/>
      <point x="448" y="426"/>
      <point x="448" y="321" type="curve" smooth="yes"/>
      <point x="448" y="269" type="line" smooth="yes"/>
      <point x="448" y="164"/>
      <point x="409" y="114"/>
      <point x="316" y="114" type="curve" smooth="yes"/>
      <point x="302" y="114" type="line" smooth="yes"/>
      <point x="209" y="114"/>
      <point x="170" y="164"/>
      <point x="170" y="269" type="curve" smooth="yes"/>
    </contour>
    <contour>
      <point x="405.753" y="599.51" type="curve" smooth="yes"/>
      <point x="100.753" y="59.51" type="line" smooth="yes"/>
      <point x="95.816" y="50.799"/>
      <point x="93" y="40.728"/>
      <point x="93" y="30" type="curve" smooth="yes"/>
      <point x="93" y="-3.137"/>
      <point x="119.863" y="-30"/>
      <point x="153" y="-30" type="curve" smooth="yes"/>
      <point x="175.409" y="-30"/>
      <point x="194.949" y="-17.715"/>
      <point x="205.247" y="0.49" type="curve" smooth="yes"/>
      <point x="510.247" y="540.49" type="line" smooth="yes"/>
      <point x="515.184" y="549.201"/>
      <point x="518" y="559.272"/>
      <point x="518" y="570" type="curve" smooth="yes"/>
      <point x="518" y="603.137"/>
      <point x="491.137" y="630"/>
      <point x="458" y="630" type="curve" smooth="yes"/>
      <point x="435.591" y="630"/>
      <point x="416.051" y="617.715"/>
    </contour>
  </outline>
</glyph>
<glyph name="thorn" format="2">
  <advance width="627"/>
  <unicode hex="00FE"/>
  <anchor x="261" y="46" name="bottom"/>
  <anchor x="261" y="545" name="top"/>
  <outline>
    <contour>
      <point x="577" y="321" type="line" smooth="yes"/>
      <point x="577" y="485"/>
      <point x="477" y="596"/>
      <point x="325" y="596" type="curve" smooth="yes"/>
      <point x="312" y="596" type="line" smooth="yes"/>
      <point x="160" y="596"/>
      <point x="60" y="485"/>
      <point x="60" y="321" type="curve" smooth="yes"/>
      <point x="60" y="269" type="line" smooth="yes"/>
      <point x="60" y="106"/>
      <point x="160" y="-6"/>
      <point x="312" y="-6" type="curve" smooth="yes"/>
      <point x="325" y="-6" type="line" smooth="yes"/>
      <point x="477" y="-6"/>
      <point x="577" y="106"/>
      <point x="577" y="269" type="curve" smooth="yes"/>
    </contour>
    <contour>
      <point x="457" y="321" type="curve" smooth="yes"/>
      <point x="457" y="269" type="line" smooth="yes"/>
      <point x="457" y="161"/>
      <point x="416" y="114"/>
      <point x="325" y="114" type="curve" smooth="yes"/>
      <point x="312" y="114" type="line" smooth="yes"/>
      <point x="221" y="114"/>
      <point x="180" y="161"/>
      <point x="180" y="269" type="curve" smooth="yes"/>
      <point x="180" y="321" type="line" smooth="yes"/>
      <point x="180" y="430"/>
      <point x="221" y="476"/>
      <point x="312" y="476" type="curve" smooth="yes"/>
      <point x="325" y="476" type="line" smooth="yes"/>
      <point x="416" y="476"/>
      <point x="457" y="430"/>
    </contour>
    <contour>
      <point x="180" y="-134" type="curve" smooth="yes"/>
      <point x="180" y="687" type="line" smooth="yes"/>
      <point x="180" y="720"/>
      <point x="153" y="747"/>
      <point x="120" y="747" type="curve" smooth="yes"/>
      <point x="87" y="747"/>
      <point x="60" y="720"/>
      <point x="60" y="687" type="curve" smooth="yes"/>
      <point x="60" y="-134" type="line" smooth="yes"/>
      <point x="60" y="-167"/>
      <point x="87" y="-194"/>
      <point x="120" y="-194" type="curve" smooth="yes"/>
      <point x="153" y="-194"/>
      <point x="180" y="-167"/>
    </contour>
    <contour>
      <point x="383" y="64" type="curve" smooth="yes"/>
      <point x="383" y="526" type="line" smooth="yes"/>
      <point x="383" y="559"/>
      <point x="356" y="586"/>
      <point x="323" y="586" type="curve" smooth="yes"/>
      <point x="290" y="586"/>
      <point x="263" y="559"/>
      <point x="263" y="526" type="curve" smooth="yes"/>
      <point x="263" y="64" type="line" smooth="yes"/>
      <point x="263" y="31"/>
      <point x="290" y="4"/>
      <point x="323" y="4" type="curve" smooth="yes"/>
      <point x="356" y="4"/>
      <point x="383" y="31"/>
    </contour>
  </outline>
</glyph>
<glyph name="Hbar" format="2">
  <advance width="697"/>
  <unicode hex="0126"/>
  <anchor x="369.1" y="0.0" name="bottom"/>
  <anchor x="369.1" y="373.5" name="center"/>
  <anchor x="369.1" y="747.0" name="top"/>
  <anchor x="145.1" y="747.0" name="topleft"/>
  <outline>
    <contour>
      <point x="607" y="625" type="curve" smooth="yes"/>
      <point x="130" y="625" type="line" smooth="yes"/>
      <point x="96.863" y="625"/>
      <point x="70" y="598.137"/>
      <point x="70" y="565" type="curve" smooth="yes"/>
      <point x="70" y="531.863"/>
      <point x="96.863" y="505"/>
      <point x="130" y="505" type="curve" smooth="yes"/>
      <point x="607" y="505" type="line" smooth="yes"/>
      <point x="640.137" y="505"/>
      <point x="667" y="531.863"/>
      <point x="667" y="565" type="curve" smooth="yes"/>
      <point x="667" y="598.137"/>
      <point x="640.137" y="625"/>
    </contour>
    <component base="H" xOffset="78.3"/>
  </outline>
</glyph>
<glyph name="hbar" format="2">
  <advance width="643"/>
  <unicode hex="0127"/>
  <anchor x="347" y="0" name="bottom"/>
  <anchor x="347" y="400" name="center"/>
  <anchor x="347" y="747" name="top"/>
  <outline>
    <contour>
      <point x="66" y="586" type="curve" smooth="yes"/>
      <point x="223" y="586" type="line" smooth="yes"/>
      <point x="256.137" y="586"/>
      <point x="283" y="612.863"/>
      <point x="283" y="646" type="curve" smooth="yes"/>
      <point x="283" y="679.137"/>
      <point x="256.137" y="706"/>
      <point x="223" y="706" type="curve" smooth="yes"/>
      <point x="66" y="706" type="line" smooth="yes"/>
      <point x="32.863" y="706"/>
      <point x="6" y="679.137"/>
      <point x="6" y="646" type="curve" smooth="yes"/>
      <point x="6" y="612.863"/>
      <point x="32.863" y="586"/>
    </contour>
    <component base="h" xOffset="50"/>
  </outline>
</glyph>
<glyph name="dotlessi" format="2">
  <advance width="366"/>
  <unicode hex="0131"/>
  <anchor x="256" y="-1" name="bottom"/>
  <anchor x="256" y="570" name="top"/>
  <outline>
    <contour>
      <point x="100" y="472" type="curve" smooth="yes"/>
      <point x="196" y="472" type="line"/>
      <point x="196" y="59" type="line" smooth="yes"/>
      <point x="196" y="26"/>
      <point x="223" y="-1"/>
      <point x="256" y="-1" type="curve" smooth="yes"/>
      <point x="289" y="-1"/>
      <point x="316" y="26"/>
      <point x="316" y="59" type="curve" smooth="yes"/>
      <point x="316" y="532" type="line" smooth="yes"/>
      <point x="316" y="571"/>
      <point x="295" y="592"/>
      <point x="256" y="592" type="curve" smooth="yes"/>
      <point x="100" y="592" type="line" smooth="yes"/>
      <point x="67" y="592"/>
      <point x="40" y="565"/>
      <point x="40" y="532" type="curve" smooth="yes"/>
      <point x="40" y="499"/>
      <point x="67" y="472"/>
    </contour>
    <contour>
      <point x="100" y="311" type="curve" smooth="yes"/>
      <point x="256" y="311" type="line" smooth="yes"/>
      <point x="289" y="311"/>
      <point x="316" y="338"/>
      <point x="316" y="371" type="curve" smooth="yes"/>
      <point x="316" y="404"/>
      <point x="289" y="431"/>
      <point x="256" y="431" type="curve" smooth="yes"/>
      <point x="100" y="431" type="line" smooth="yes"/>
      <point x="67" y="431"/>
      <point x="40" y="404"/>
      <point x="40" y="371" type="curve" smooth="yes"/>
      <point x="40" y="338"/>
      <point x="67" y="311"/>
    </contour>
  </outline>
</glyph>
<glyph name="lslash" format="2">
  <advance width="376.76"/>
  <unicode hex="0142"/>
  <anchor x="256" y="-1" name="bottom"/>
  <anchor x="188" y="400" name="center"/>
  <anchor x="256" y="800" name="top"/>
  <anchor x="309" y="800" name="topright"/>
  <outline>
    <contour>
      <point x="135.056" y="260.063" type="curve" smooth="yes"/>
      <point x="336.056" y="358.063" type="line" smooth="yes"/>
      <point x="356.013" y="367.804"/>
      <point x="369.758" y="388.296"/>
      <point x="369.758" y="412" type="curve" smooth="yes"/>
      <point x="369.758" y="445.137"/>
      <point x="342.896" y="472"/>
      <point x="309.758" y="472" type="curve" smooth="yes"/>
      <point x="300.324" y="472"/>
      <point x="291.399" y="469.823"/>
      <point x="283.46" y="465.937" type="curve" smooth="yes"/>
      <point x="82.46" y="367.937" type="line" smooth="yes"/>
      <point x="62.503" y="358.196"/>
      <point x="48.758" y="337.704"/>
      <point x="48.758" y="314" type="curve" smooth="yes"/>
      <point x="48.758" y="280.863"/>
      <point x="75.621" y="254"/>
      <point x="108.758" y="254" type="curve" smooth="yes"/>
      <point x="118.192" y="254"/>
      <point x="127.117" y="256.177"/>
    </contour>
    <component base="l"/>
  </outline>
</glyph>
<glyph name="eng" format="2">
  <advance width="594"/>
  <unicode hex="014B"/>
  <anchor x="302" y="0" name="bottom"/>
  <anchor x="302" y="570" name="top"/>
  <outline>
    <contour>
      <point x="424" y="76" type="curve" smooth="yes"/>
      <point x="423" y="-144" type="line" smooth="yes"/>
      <point x="422.938" y="-157.74"/>
      <point x="417.492" y="-159.068"/>
      <point x="390.122" y="-133.308" type="curve" smooth="yes"/>
      <point x="379.383" y="-123.196"/>
      <point x="364.915" y="-117"/>
      <point x="349" y="-117" type="curve" smooth="yes"/>
      <point x="315.863" y="-117"/>
      <point x="289" y="-143.863"/>
      <point x="289" y="-177" type="curve" smooth="yes"/>
      <point x="289" y="-194.222"/>
      <point x="296.256" y="-209.75"/>
      <point x="307.878" y="-220.692" type="curve" smooth="yes"/>
      <point x="396.89" y="-304.468"/>
      <point x="542.479" y="-258.599"/>
      <point x="543" y="-144" type="curve" smooth="yes"/>
      <point x="544" y="76" type="line" smooth="yes"/>
      <point x="544.151" y="109.137"/>
      <point x="517.137" y="136"/>
      <point x="484" y="136" type="curve" smooth="yes"/>
      <point x="450.863" y="136"/>
      <point x="424.151" y="109.137"/>
    </contour>
    <component base="n"/>
  </outline>
</glyph>
<glyph name="Tbar" format="2">
  <advance width="570"/>
  <unicode hex="0166"/>
  <anchor x="285" y="0" name="bottom"/>
  <anchor x="285.0" y="373.5" name="center"/>
  <anchor x="285" y="747" name="top"/>
  <outline>
    <contour>
      <point x="479.87" y="415" type="curve" smooth="yes"/>
      <point x="79.87" y="415" type="line" smooth="yes"/>
      <point x="46.733" y="415"/>
      <point x="19.87" y="388.137"/>
      <point x="19.87" y="355" type="curve" smooth="yes"/>
      <point x="19.87" y="321.863"/>
      <point x="46.733" y="295"/>
      <point x="79.87" y="295" type="curve" smooth="yes"/>
      <point x="479.87" y="295" type="line" smooth="yes"/>
      <point x="513.007" y="295"/>
      <point x="539.87" y="321.863"/>
      <point x="539.87" y="355" type="curve" smooth="yes"/>
      <point x="539.87" y="388.137"/>
      <point x="513.007" y="415"/>
    </contour>
    <component base="T"/>
  </outline>
</glyph>
